<svg version="1.2" xmlns="http://www.w3.org/2000/svg" viewBox="0 0 889 400" width="889" height="400">
	<title>total</title>
	<defs>
		<clipPath clipPathUnits="userSpaceOnUse" id="cp1">
			<path d="m0.5 0h888.89v400h-888.89z"/>
		</clipPath>
		<linearGradient id="g1" x1="-2.3" y1="-19.5" x2="-6.3" y2="424.3" gradientUnits="userSpaceOnUse">
			<stop offset="0" stop-color="#56a1fd"/>
			<stop offset="1" stop-color="#d4fff0"/>
		</linearGradient>
		<clipPath clipPathUnits="userSpaceOnUse" id="cp2">
			<path d="m-0.11-826h888.89v1225.82h-888.89z"/>
		</clipPath>
		<radialGradient id="g2" cx="419.8" cy="674" r="513.9" gradientUnits="userSpaceOnUse">
			<stop offset=".3" stop-color="#7ae7f8"/>
			<stop offset="1" stop-color="#4685e4"/>
		</radialGradient>
		<linearGradient id="g3" x1="310.3" y1="132.6" x2="300.8" y2="266.8" gradientUnits="userSpaceOnUse">
			<stop offset="0" stop-color="#000000"/>
			<stop offset="1" stop-color="#70bbb1"/>
		</linearGradient>
		<linearGradient id="g4" x1="-46.1" y1="104.8" x2="-55.4" y2="467.1" gradientUnits="userSpaceOnUse">
			<stop offset="0" stop-color="#000000"/>
			<stop offset="1" stop-color="#70bbb1"/>
		</linearGradient>
		<linearGradient id="g5" x1="909.1" y1="283.6" x2="756.9" y2="283.6" gradientUnits="userSpaceOnUse">
			<stop offset="0" stop-color="#000000"/>
			<stop offset="1" stop-color="#70bbb1"/>
		</linearGradient>
		<linearGradient id="g6" x1="-18.6" y1="174.6" x2="-28.5" y2="314.4" gradientUnits="userSpaceOnUse">
			<stop offset="0" stop-color="#000000"/>
			<stop offset="1" stop-color="#70bbb1"/>
		</linearGradient>
	</defs>
	<style>
		.s0 { fill: url(#g1) } 
		.s1 { fill: url(#g2) } 
		.s2 { opacity: .1;mix-blend-mode: multiply;fill: #4685e4 } 
		.s3 { mix-blend-mode: screen;fill: url(#g3) } 
		.s4 { mix-blend-mode: screen;fill: url(#g4) } 
		.s5 { opacity: .6;mix-blend-mode: screen;fill: #7ae7f8 } 
		.s6 { mix-blend-mode: screen;fill: url(#g5) } 
		.s7 { fill: #ffffff } 
		.s8 { mix-blend-mode: screen;fill: url(#g6) } 
	</style>
	<g id="sky">
		<g id="&lt;Clip Group&gt;" clip-path="url(#cp1)">
			<path id="&lt;Path&gt;" class="s0" d="m889.1-3v410.2h-889.6v-410.2z"/>
		</g>
	</g>
	<g id="sea">
		<g id="&lt;Clip Group&gt;" clip-path="url(#cp2)">
			<g id="&lt;Group&gt;">
				<path id="&lt;Path&gt;" class="s1" d="m-22.3 106.3h912.5v333.5h-912.5z"/>
				<path id="&lt;Path&gt;" class="s2" d="m888.5 106.3v60.9c-67.9-15.5-212.9-46.5-220-28.7-9.2 23.2 68.4 18.6 67.9 24.1-0.5 5.4-37-0.9-34 24.5 3.1 25.4 103.3 0 103.3 5.5 0 4.9-10.2 22.3-12.2 25.7 1.2-2.2 4.9-9.7-0.1-11.2-5.9-1.8-58.8-0.9-60 7.2-1.3 8.2-122.4 1.9-121.9-1.8 0.5-3.6 15.3 1.8 13.5-5.4-1.8-7.3-101 2.7-101.9 0-0.8-2.7 41.4-5.5 41.4-20 0-14.2-56.4-16.2-59.2-16.4 1.6 0 21.3-0.2 19.7-13-1.8-13.3-218.3-35-219.1-12.8-0.8 22.2 77.7 33.7 82.8 31.1q5.1-2.5-6.5-17.1 44.6 0.3 41.2 17.1c-3.4 16.8-135.2 6-136.6 7.2-1.3 1.2 22.8 18.1 9.2 35.7-13.6 17.6-101.8 20-101.8 9.1 0-9.9 13.4-16.8 15.9-18-3.5 1.4-28.6 11.1-29.2-0.2q-0.7-12.1 10.5-18.2-120.2 13.4-118.2-15.7c2.1-29.1-4.7-31.7-26.6-31-17.7 0.6-41-7.5-49.2-10.6v-28z"/>
				<path id="&lt;Path&gt;" class="s2" d="m888.5 106.3v19h-128c2.8-3 4.7-6.4 3.6-9.5q-2.7-8-238.8 8.8-299.5-18.9-293-6.5c1.5 2.9 7.6 5.3 16 7.2h-250.9v-19z"/>
				<g id="&lt;Group&gt;">
					<path id="&lt;Path&gt;" class="s2" d="m347.3 213q23.5 6.2 23.5 10.8c0 4.6-68 3.6-68 0q0-3.6 15.9-6.7-3.5 1.3-2.2 4.6c1.3 3.4 36.4 6.2 30.8-8.7z"/>
					<path id="&lt;Path&gt;" class="s2" d="m470.3 193.1q34 2.1 34 3.7c0 1.6-98.1 1.3-98.1 0q0-1.2 22.8-2.3-4.9 0.4-3.1 1.6c1.8 1.2 52.6 2.2 44.4-3z"/>
					<path id="&lt;Path&gt;" class="s2" d="m110.7 206.1q53.3 6.1 53.3 10.8c0 4.6-154 3.5-154 0q0-3.6 35.9-6.7-7.8 1.3-4.9 4.6c2.9 3.3 82.5 6.2 69.7-8.7z"/>
					<path id="&lt;Path&gt;" class="s2" d="m172.3 224.9q18.6 3.1 18.6 5.4c0 2.3-53.8 1.8-53.8 0q0-1.8 12.5-3.4-2.7 0.7-1.7 2.3c1 1.7 28.8 3.1 24.4-4.3z"/>
					<path id="&lt;Path&gt;" class="s2" d="m778.8 229.8q-41.1 14.5-52.8 13-11.8-1.6-1.3-6.5-81.8-1.5-83.8 6.6c-2.1 8.1 98.9 13.9 137.9-13.1z"/>
					<path id="&lt;Path&gt;" class="s2" d="m997 195.5q-56.8 20.1-73 17.9-16.2-2.1-1.8-8.9-112.9-2.1-115.7 9.1c-2.8 11.2 136.7 19.2 190.5-18.1z"/>
					<path id="&lt;Path&gt;" class="s3" d="m614 232.7c0.7 12.2-56.3 23.6-67.5 13.9q-11.2-9.6-14.3-5.1 18.4 27.1-70 25-88.4-2.2-92-19.9l-63.9-4.5 91.2-2.2q-14 1.6-1.5 9.8c12.5 8.1 108.9 26.8 106 5.3q-2.8-21.6-46.7-18l120.8-4.3q-22.7-0.9-22.7 7.9c0 8.9 52.3-1.2 56.8-4.1q4.5-2.9 3.8-3.8z"/>
					<path id="&lt;Path&gt;" class="s4" d="m918.3 459.5l-962.8 17.5-4.5-163.9 188.9 18.2q-70.1 11.5-42.4 20.3 27.7 8.7 160.1-20.3-16.1 14.5 37.3 34.9c53.3 20.4 167.4-20.4 173.5-17.5 6.1 3 171.7 26.2 202 17.5 30.3-8.8-1.9-17.5 0-32.1q2-14.6 241.8 32.1z"/>
					<path id="&lt;Path&gt;" class="s5" d="m651.1 330.2c-1.8-2-77.4-14.6-77.7-9.7-0.2 4.8 106 41.8 77.7 9.7z"/>
					<path id="&lt;Path&gt;" class="s6" d="m909.1 327q-153.3-12.4-152.7-21.1 0.5-8.7 146.5-16.2z"/>
					<path id="&lt;Path&gt;" class="s5" d="m748.9 304c0.2 5.8-60.9 15.5-62.2 5.8q-1.2-9.7 37.2-7.8-22.4-1.9-22.2-4.8 0.1-3 47.2 6.8z"/>
					<path id="&lt;Path&gt;" class="s7" d="m493.5 299.4c-2.4 10.5-69 23.5-86.3 21.4q-17.4-2.1-24.5-13.5-24.9 15.1-33.1 6.8-8.1-8.2-3.4-13.6-17.1 6.9 6.4 6.9 23.6 0 22.4 0z"/>
					<path id="&lt;Path&gt;" class="s7" d="m297.8 321.8c4 0.2-34.4 4.2-35.9-4.1q-1.5-8.2-3.9-12.8 17.9 15.9 39.8 16.9z"/>
					<path id="&lt;Path&gt;" class="s5" d="m574.2 327.4q8.4 6 7.5 12.5c-0.9 6.4-45.2 3.5-45.1 0 0.1-3.6 48.3 9.5 37.6-12.5z"/>
					<ellipse id="&lt;Path&gt;" class="s7" cx="547.1" cy="325.3" rx="7.7" ry="2.2"/>
					<ellipse id="&lt;Path&gt;" class="s5" cx="644.2" cy="312.6" rx="7.5" ry="2.4"/>
					<ellipse id="&lt;Path&gt;" class="s7" cx="522.6" cy="311.4" rx="2.6" ry="1.2"/>
					<ellipse id="&lt;Path&gt;" class="s5" cx="469" cy="286.9" rx="13.5" ry="4.3"/>
					<ellipse id="&lt;Path&gt;" class="s5" cx="235.1" cy="307.1" rx="7.7" ry="2.2"/>
					<ellipse id="&lt;Path&gt;" class="s7" cx="332.2" cy="294.4" rx="7.5" ry="2.4"/>
					<ellipse id="&lt;Path&gt;" class="s7" cx="348.3" cy="325.3" rx="4.7" ry="1.5"/>
					<path id="&lt;Path&gt;" class="s7" d="m356.4 337.4c0.6 0 1 0.4 1 0.9 0 0.5-0.4 0.8-1 0.8-0.5 0-1-0.3-1-0.8 0-0.5 0.5-0.9 1-0.9z"/>
					<path id="&lt;Path&gt;" class="s7" d="m334.7 323.2c0-0.3 0.8-0.6 1.7-0.6 1 0 1.8 0.3 1.8 0.6 0 0.4-0.8 0.6-1.8 0.6-0.9 0-1.7-0.2-1.7-0.6z"/>
					<path id="&lt;Path&gt;" class="s7" d="m335.7 319.3c0.5 0 1 0.4 1 0.8 0 0.5-0.5 0.9-1 0.9-0.6 0-1-0.4-1-0.9 0-0.4 0.4-0.8 1-0.8z"/>
					<ellipse id="&lt;Path&gt;" class="s7" cx="210.5" cy="293.2" rx="2.6" ry="1.2"/>
					<ellipse id="&lt;Path&gt;" class="s5" cx="158.4" cy="291.4" rx="13.5" ry="4.3"/>
					<ellipse id="&lt;Path&gt;" class="s5" cx="147.9" cy="313.8" rx="7.7" ry="2.2"/>
					<ellipse id="&lt;Path&gt;" class="s7" cx="246.5" cy="298.8" rx="7.5" ry="2.4"/>
					<ellipse id="&lt;Path&gt;" class="s7" cx="307.7" cy="326.2" rx="2.7" ry="2"/>
					<path id="&lt;Path&gt;" class="s7" d="m302.2 328.6c0.5 0 0.9 0.3 0.9 0.7 0 0.4-0.4 0.7-0.9 0.7-0.5 0-0.9-0.3-0.9-0.7 0-0.4 0.4-0.7 0.9-0.7z"/>
					<ellipse id="&lt;Path&gt;" class="s5" cx="123.3" cy="300" rx="2.6" ry="1.2"/>
					<ellipse id="&lt;Path&gt;" class="s5" cx="71.2" cy="298.1" rx="13.5" ry="4.3"/>
					<ellipse id="&lt;Path&gt;" class="s5" cx="276.2" cy="390.8" rx="13.5" ry="4.3"/>
					<ellipse id="&lt;Path&gt;" class="s5" cx="265.7" cy="413.2" rx="7.7" ry="2.2"/>
					<ellipse id="&lt;Path&gt;" class="s5" cx="189" cy="397.6" rx="13.5" ry="4.3"/>
					<ellipse id="&lt;Path&gt;" class="s5" cx="529.3" cy="376.4" rx="19.5" ry="6.3"/>
					<ellipse id="&lt;Path&gt;" class="s5" cx="625" cy="400.3" rx="8.5" ry="2.7"/>
					<ellipse id="&lt;Path&gt;" class="s5" cx="583.2" cy="408.6" rx="22.8" ry="7.3"/>
					<ellipse id="&lt;Path&gt;" class="s5" cx="566" cy="418.1" rx="6.8" ry="2.2"/>
					<ellipse id="&lt;Path&gt;" class="s5" cx="417.3" cy="413.2" rx="11.1" ry="3.1"/>
					<ellipse id="&lt;Path&gt;" class="s5" cx="402.9" cy="386.2" rx="19.5" ry="6.3"/>
					<path id="&lt;Path&gt;" class="s8" d="m-12 249.6l127.5 7.2q-73.6-4.1-77 9.8-3.4 13.8 22.1 14.9l-83.1 5.6z"/>
				</g>
			</g>
		</g>
	</g>
</svg>