<svg version="1.2" xmlns="http://www.w3.org/2000/svg" viewBox="0 0 889 400" width="889" height="400">
	<title>total</title>
	<defs>
		<clipPath clipPathUnits="userSpaceOnUse" id="cp1">
			<path d="m16-13.83h477.39v214.83h-477.39z"/>
		</clipPath>
		<linearGradient id="g1" x1="426.3" y1="97.3" x2="435.8" y2="57.9" gradientUnits="userSpaceOnUse">
			<stop offset="0" stop-color="#c5b4fd"/>
			<stop offset="1" stop-color="#d7e6fd"/>
		</linearGradient>
		<linearGradient id="g2" x1="426.7" y1="94.8" x2="432.8" y2="69.4" gradientUnits="userSpaceOnUse">
			<stop offset="0" stop-color="#9d9dfd"/>
			<stop offset="1" stop-color="#b2bdf7"/>
		</linearGradient>
		<linearGradient id="g3" x1="431.4" y1="71.9" x2="434.4" y2="59.7" gradientUnits="userSpaceOnUse">
			<stop offset="0" stop-color="#e9e9fd"/>
			<stop offset="1" stop-color="#fdf3ff"/>
		</linearGradient>
		<linearGradient id="g4" x1="410.7" y1="71.3" x2="411.6" y2="67.6" gradientUnits="userSpaceOnUse">
			<stop offset="0" stop-color="#e9e9fd"/>
			<stop offset="1" stop-color="#fdf3ff"/>
		</linearGradient>
		<linearGradient id="g5" x1="300.2" y1="141.4" x2="318.2" y2="37.8" gradientUnits="userSpaceOnUse">
			<stop offset="0" stop-color="#c5b4fd"/>
			<stop offset="1" stop-color="#d7e6fd"/>
		</linearGradient>
		<linearGradient id="g6" x1="175.9" y1="96.2" x2="176.9" y2="83.7" gradientUnits="userSpaceOnUse">
			<stop offset="0" stop-color="#9d9dfd"/>
			<stop offset="1" stop-color="#b2bdf7"/>
		</linearGradient>
		<linearGradient id="g7" x1="81.9" y1="100.7" x2="89.7" y2="76.7" gradientUnits="userSpaceOnUse">
			<stop offset="0" stop-color="#9d9dfd"/>
			<stop offset="1" stop-color="#b2bdf7"/>
		</linearGradient>
		<linearGradient id="g8" x1="165.9" y1="55.1" x2="164.6" y2="32.5" gradientUnits="userSpaceOnUse">
			<stop offset="0" stop-color="#e9e9fd"/>
			<stop offset="1" stop-color="#fdf3ff"/>
		</linearGradient>
		<linearGradient id="g9" x1="148.2" y1="75" x2="153" y2="44.8" gradientUnits="userSpaceOnUse">
			<stop offset="0" stop-color="#e9e9fd"/>
			<stop offset="1" stop-color="#fdf3ff"/>
		</linearGradient>
		<linearGradient id="g10" x1="107.5" y1="76" x2="107.4" y2="72.7" gradientUnits="userSpaceOnUse">
			<stop offset="0" stop-color="#e9e9fd"/>
			<stop offset="1" stop-color="#fdf3ff"/>
		</linearGradient>
		<linearGradient id="g11" x1="110" y1="69.3" x2="109.6" y2="63.4" gradientUnits="userSpaceOnUse">
			<stop offset="0" stop-color="#e9e9fd"/>
			<stop offset="1" stop-color="#fdf3ff"/>
		</linearGradient>
		<linearGradient id="g12" x1="191.8" y1="49.9" x2="191.2" y2="39.6" gradientUnits="userSpaceOnUse">
			<stop offset="0" stop-color="#e9e9fd"/>
			<stop offset="1" stop-color="#fdf3ff"/>
		</linearGradient>
		<linearGradient id="g13" x1="271" y1="56.2" x2="283.3" y2="23.1" gradientUnits="userSpaceOnUse">
			<stop offset="0" stop-color="#e9e9fd"/>
			<stop offset="1" stop-color="#fdf3ff"/>
		</linearGradient>
		<linearGradient id="g14" x1="310" y1="67.9" x2="308.9" y2="48.8" gradientUnits="userSpaceOnUse">
			<stop offset="0" stop-color="#e9e9fd"/>
			<stop offset="1" stop-color="#fdf3ff"/>
		</linearGradient>
		<linearGradient id="g15" x1="272.6" y1="82.2" x2="274.3" y2="73" gradientUnits="userSpaceOnUse">
			<stop offset="0" stop-color="#9d9dfd"/>
			<stop offset="1" stop-color="#b2bdf7"/>
		</linearGradient>
		<linearGradient id="g16" x1="308.9" y1="82.3" x2="314.8" y2="63.9" gradientUnits="userSpaceOnUse">
			<stop offset="0" stop-color="#9d9dfd"/>
			<stop offset="1" stop-color="#b2bdf7"/>
		</linearGradient>
		<linearGradient id="g17" x1="230.8" y1="56.4" x2="239.2" y2="30" gradientUnits="userSpaceOnUse">
			<stop offset="0" stop-color="#e9e9fd"/>
			<stop offset="1" stop-color="#fdf3ff"/>
		</linearGradient>
		<linearGradient id="g18" x1="276.1" y1="135.4" x2="283.2" y2="95.3" gradientUnits="userSpaceOnUse">
			<stop offset="0" stop-color="#c5b4fd"/>
			<stop offset="1" stop-color="#d7e6fd"/>
		</linearGradient>
		<linearGradient id="g19" x1="267.8" y1="135.1" x2="272.2" y2="121.8" gradientUnits="userSpaceOnUse">
			<stop offset="0" stop-color="#9d9dfd"/>
			<stop offset="1" stop-color="#b2bdf7"/>
		</linearGradient>
		<linearGradient id="g20" x1="280.8" y1="90.3" x2="308.8" y2="20.6" gradientUnits="userSpaceOnUse">
			<stop offset="0" stop-color="#e9e9fd"/>
			<stop offset="1" stop-color="#fdf3ff"/>
		</linearGradient>
		<linearGradient id="g21" x1="244.2" y1="88.2" x2="245.3" y2="81.5" gradientUnits="userSpaceOnUse">
			<stop offset="0" stop-color="#e9e9fd"/>
			<stop offset="1" stop-color="#fdf3ff"/>
		</linearGradient>
		<linearGradient id="g22" x1="397.5" y1="91" x2="403.4" y2="50" gradientUnits="userSpaceOnUse">
			<stop offset="0" stop-color="#c5b4fd"/>
			<stop offset="1" stop-color="#d7e6fd"/>
		</linearGradient>
		<linearGradient id="g23" x1="364.8" y1="132.2" x2="416.9" y2="35.3" gradientUnits="userSpaceOnUse">
			<stop offset="0" stop-color="#9d9dfd"/>
			<stop offset="1" stop-color="#b2bdf7"/>
		</linearGradient>
		<linearGradient id="g24" x1="401.4" y1="58.6" x2="403.8" y2="29.3" gradientUnits="userSpaceOnUse">
			<stop offset="0" stop-color="#e9e9fd"/>
			<stop offset="1" stop-color="#fdf3ff"/>
		</linearGradient>
		<linearGradient id="g25" x1="370.4" y1="64" x2="371.2" y2="55.3" gradientUnits="userSpaceOnUse">
			<stop offset="0" stop-color="#e9e9fd"/>
			<stop offset="1" stop-color="#fdf3ff"/>
		</linearGradient>
		<linearGradient id="g26" x1="359.9" y1="65.6" x2="360.1" y2="63.1" gradientUnits="userSpaceOnUse">
			<stop offset="0" stop-color="#e9e9fd"/>
			<stop offset="1" stop-color="#fdf3ff"/>
		</linearGradient>
		<linearGradient id="g27" x1="336.6" y1="67.4" x2="337" y2="62.6" gradientUnits="userSpaceOnUse">
			<stop offset="0" stop-color="#e9e9fd"/>
			<stop offset="1" stop-color="#fdf3ff"/>
		</linearGradient>
		<linearGradient id="g28" x1="377.2" y1="92.2" x2="378.7" y2="67.4" gradientUnits="userSpaceOnUse">
			<stop offset="0" stop-color="#e9e9fd"/>
			<stop offset="1" stop-color="#fdf3ff"/>
		</linearGradient>
		<linearGradient id="g29" x1="397" y1="79.4" x2="397.3" y2="74.7" gradientUnits="userSpaceOnUse">
			<stop offset="0" stop-color="#e9e9fd"/>
			<stop offset="1" stop-color="#fdf3ff"/>
		</linearGradient>
		<linearGradient id="g30" x1="82.5" y1="81.4" x2="94.2" y2="35.9" gradientUnits="userSpaceOnUse">
			<stop offset="0" stop-color="#c5b4fd"/>
			<stop offset="1" stop-color="#d7e6fd"/>
		</linearGradient>
		<linearGradient id="g31" x1="98.7" y1="42.7" x2="99" y2="49.8" gradientUnits="userSpaceOnUse">
			<stop offset="0" stop-color="#e9e9fd"/>
			<stop offset="1" stop-color="#fdf3ff"/>
		</linearGradient>
		<linearGradient id="g32" x1="75.1" y1="42.4" x2="77.6" y2="32.7" gradientUnits="userSpaceOnUse">
			<stop offset="0" stop-color="#e9e9fd"/>
			<stop offset="1" stop-color="#fdf3ff"/>
		</linearGradient>
		<clipPath clipPathUnits="userSpaceOnUse" id="cp2">
			<path d="m385-25.57h477.39v214.82h-477.39z"/>
		</clipPath>
		<linearGradient id="g33" x1="795.3" y1="85.6" x2="804.8" y2="46.1" gradientUnits="userSpaceOnUse">
			<stop offset="0" stop-color="#c5b4fd"/>
			<stop offset="1" stop-color="#d7e6fd"/>
		</linearGradient>
		<linearGradient id="g34" x1="795.7" y1="83" x2="801.8" y2="57.7" gradientUnits="userSpaceOnUse">
			<stop offset="0" stop-color="#9d9dfd"/>
			<stop offset="1" stop-color="#b2bdf7"/>
		</linearGradient>
		<linearGradient id="g35" x1="800.4" y1="60.1" x2="803.4" y2="47.9" gradientUnits="userSpaceOnUse">
			<stop offset="0" stop-color="#e9e9fd"/>
			<stop offset="1" stop-color="#fdf3ff"/>
		</linearGradient>
		<linearGradient id="g36" x1="779.7" y1="59.5" x2="780.6" y2="55.8" gradientUnits="userSpaceOnUse">
			<stop offset="0" stop-color="#e9e9fd"/>
			<stop offset="1" stop-color="#fdf3ff"/>
		</linearGradient>
		<linearGradient id="g37" x1="645.1" y1="123.7" x2="652.2" y2="83.5" gradientUnits="userSpaceOnUse">
			<stop offset="0" stop-color="#c5b4fd"/>
			<stop offset="1" stop-color="#d7e6fd"/>
		</linearGradient>
		<linearGradient id="g38" x1="636.8" y1="123.4" x2="641.2" y2="110.1" gradientUnits="userSpaceOnUse">
			<stop offset="0" stop-color="#9d9dfd"/>
			<stop offset="1" stop-color="#b2bdf7"/>
		</linearGradient>
		<linearGradient id="g39" x1="649.8" y1="78.6" x2="677.8" y2="8.8" gradientUnits="userSpaceOnUse">
			<stop offset="0" stop-color="#e9e9fd"/>
			<stop offset="1" stop-color="#fdf3ff"/>
		</linearGradient>
		<linearGradient id="g40" x1="613.2" y1="76.4" x2="614.3" y2="69.8" gradientUnits="userSpaceOnUse">
			<stop offset="0" stop-color="#e9e9fd"/>
			<stop offset="1" stop-color="#fdf3ff"/>
		</linearGradient>
		<linearGradient id="g41" x1="766.5" y1="79.2" x2="772.4" y2="38.2" gradientUnits="userSpaceOnUse">
			<stop offset="0" stop-color="#c5b4fd"/>
			<stop offset="1" stop-color="#d7e6fd"/>
		</linearGradient>
		<linearGradient id="g42" x1="733.8" y1="120.5" x2="785.9" y2="23.6" gradientUnits="userSpaceOnUse">
			<stop offset="0" stop-color="#9d9dfd"/>
			<stop offset="1" stop-color="#b2bdf7"/>
		</linearGradient>
		<linearGradient id="g43" x1="770.4" y1="46.8" x2="772.8" y2="17.6" gradientUnits="userSpaceOnUse">
			<stop offset="0" stop-color="#e9e9fd"/>
			<stop offset="1" stop-color="#fdf3ff"/>
		</linearGradient>
		<linearGradient id="g44" x1="739.4" y1="52.2" x2="740.2" y2="43.5" gradientUnits="userSpaceOnUse">
			<stop offset="0" stop-color="#e9e9fd"/>
			<stop offset="1" stop-color="#fdf3ff"/>
		</linearGradient>
		<linearGradient id="g45" x1="728.9" y1="53.9" x2="729.1" y2="51.4" gradientUnits="userSpaceOnUse">
			<stop offset="0" stop-color="#e9e9fd"/>
			<stop offset="1" stop-color="#fdf3ff"/>
		</linearGradient>
		<linearGradient id="g46" x1="705.6" y1="55.7" x2="706" y2="50.9" gradientUnits="userSpaceOnUse">
			<stop offset="0" stop-color="#e9e9fd"/>
			<stop offset="1" stop-color="#fdf3ff"/>
		</linearGradient>
		<linearGradient id="g47" x1="746.2" y1="80.4" x2="747.7" y2="55.6" gradientUnits="userSpaceOnUse">
			<stop offset="0" stop-color="#e9e9fd"/>
			<stop offset="1" stop-color="#fdf3ff"/>
		</linearGradient>
		<linearGradient id="g48" x1="766" y1="67.7" x2="766.3" y2="62.9" gradientUnits="userSpaceOnUse">
			<stop offset="0" stop-color="#e9e9fd"/>
			<stop offset="1" stop-color="#fdf3ff"/>
		</linearGradient>
		<linearGradient id="g49" x1="451.5" y1="69.6" x2="463.2" y2="24.1" gradientUnits="userSpaceOnUse">
			<stop offset="0" stop-color="#c5b4fd"/>
			<stop offset="1" stop-color="#d7e6fd"/>
		</linearGradient>
		<linearGradient id="g50" x1="467.7" y1="30.9" x2="468" y2="38" gradientUnits="userSpaceOnUse">
			<stop offset="0" stop-color="#e9e9fd"/>
			<stop offset="1" stop-color="#fdf3ff"/>
		</linearGradient>
		<linearGradient id="g51" x1="444.1" y1="30.7" x2="446.6" y2="20.9" gradientUnits="userSpaceOnUse">
			<stop offset="0" stop-color="#e9e9fd"/>
			<stop offset="1" stop-color="#fdf3ff"/>
		</linearGradient>
	</defs>
	<style>
		.s0 { fill: url(#g1) } 
		.s1 { fill: url(#g2) } 
		.s2 { fill: url(#g3) } 
		.s3 { fill: url(#g4) } 
		.s4 { fill: url(#g5) } 
		.s5 { fill: url(#g6) } 
		.s6 { fill: url(#g7) } 
		.s7 { fill: url(#g8) } 
		.s8 { fill: url(#g9) } 
		.s9 { fill: url(#g10) } 
		.s10 { fill: url(#g11) } 
		.s11 { fill: url(#g12) } 
		.s12 { fill: url(#g13) } 
		.s13 { fill: url(#g14) } 
		.s14 { fill: url(#g15) } 
		.s15 { fill: url(#g16) } 
		.s16 { fill: url(#g17) } 
		.s17 { fill: url(#g18) } 
		.s18 { fill: url(#g19) } 
		.s19 { fill: url(#g20) } 
		.s20 { fill: url(#g21) } 
		.s21 { fill: url(#g22) } 
		.s22 { fill: url(#g23) } 
		.s23 { fill: url(#g24) } 
		.s24 { fill: url(#g25) } 
		.s25 { fill: url(#g26) } 
		.s26 { fill: url(#g27) } 
		.s27 { fill: url(#g28) } 
		.s28 { fill: url(#g29) } 
		.s29 { fill: url(#g30) } 
		.s30 { fill: url(#g31) } 
		.s31 { fill: url(#g32) } 
		.s32 { fill: url(#g33) } 
		.s33 { fill: url(#g34) } 
		.s34 { fill: url(#g35) } 
		.s35 { fill: url(#g36) } 
		.s36 { fill: url(#g37) } 
		.s37 { fill: url(#g38) } 
		.s38 { fill: url(#g39) } 
		.s39 { fill: url(#g40) } 
		.s40 { fill: url(#g41) } 
		.s41 { fill: url(#g42) } 
		.s42 { fill: url(#g43) } 
		.s43 { fill: url(#g44) } 
		.s44 { fill: url(#g45) } 
		.s45 { fill: url(#g46) } 
		.s46 { fill: url(#g47) } 
		.s47 { fill: url(#g48) } 
		.s48 { fill: url(#g49) } 
		.s49 { fill: url(#g50) } 
		.s50 { fill: url(#g51) } 
	</style>
	<g id="clouds">
		<g id="cloud sx">
			<g id="&lt;Clip Group&gt;" clip-path="url(#cp1)">
				<g id="&lt;Group&gt;">
					<g id="&lt;Group&gt;">
						<path id="&lt;Path&gt;" class="s0" d="m388.1 75.7c1.4-0.2 13.8-0.5 14.1-0.8 0.4-0.3 0.2-5.4 3.1-7.8q0 0 0 0 0.1-0.1 0.3-0.2 3.2-2.3 5.3 2 0.1-3.1 1.5-6.1c0.3-0.7 1.1-1.4 2.1-2.1 3.4-2.2 9.5-3.9 12.9-1.9 3.1 1.8 3.9 7 4.1 10q0.1 1.4 0 2.3-0.1 0.2-0.3 0.3c-4.4 3.7-41.7 6.9-48.6 7.5q-0.7 0-1.1 0.1 5.3-3.1 6.6-3.3z"/>
						<path id="&lt;Path&gt;" class="s1" d="m382.6 78.9q3.9-0.5 26.1-3.3l-3.8-0.9 17.7-3.1-0.6 0.5 9.2-0.7c-4.4 3.7-41.7 6.9-48.6 7.5z"/>
						<path id="&lt;Path&gt;" class="s2" d="m414.5 60.7q0 0 0 0c3.4-2.2 9.5-3.9 12.9-1.9 3.1 1.8 3.9 7 4.1 10-7.1 2.1-20.4-2.3-17-8.1z"/>
						<path id="&lt;Path&gt;" class="s3" d="m410.5 70.5c-1 2.8-7.6-2.1-4.9-3.6 2.8-1.6 5.6 1.7 4.9 3.6z"/>
					</g>
					<g id="&lt;Group&gt;">
						<path id="&lt;Path&gt;" class="s4" d="m67.3 86c3-2.5 7.5 2.4 11.6 0.8 3.5-1.3 2.7-14.9 8.8-21.8 1.3-1.4 2.9-2.6 4.9-3.3 8.7-3.1 14.1 3.6 16.3 7q0.7 1.2 1 1.9 0.9-20 8.5-32.7c3.3-5.6 7.9-9.8 14.3-10.3 16.2-1.2 27.3 16.8 31.6 25l0.1 0.3 0.2 0.4q1 2 1.6 3.3-1-8 1.2-13.6v-0.1c1.1-2.8 3-5.1 6.3-5.3 7.3-0.6 14.3 8.5 17.1 12.8q0.9 1.4 1.4 2.2-0.5-15.1 7.4-27.6c5-8 13.3-14.9 27.2-16.3 29.9-2.8 42.9 29 46.3 39.5q0.7 2 1 3.3 0.2-0.5 0.7-1.3 0 0 0.1 0 0.2-0.4 0.5-0.8c0.6-0.7 1.5-1.6 2.7-2.5 2.9-1.9 7.5-3.3 14.8-1.5 13.1 3.2 15.2 19.8 17.3 26.3 0.2 0.8 0.5 1.3 0.6 1.5q0.3 0.2-0.2 0.4-2.9 1.5-26 2.8l-24.5-1.2q0.9-3 0.6-3.6c-1.6-3-9-11.4-40.5-5.7-5 0.9 3.2-3.2 2.8-6.2q-0.4-3-54.8 2.4 0.2 0.2 0.5 0.6c1.7 2.2 7.9 10.4 7.8 13q0 0.3-0.8 0.6c-8.3 3-82.6 8.5-90.6 10.2q-0.6 0.1-0.7 0.2 0 0 0 0c-1.6 1.4 9.2 0.5-16.8 3.9l-8.7 0.6q5.4-2.7 8.4-5.2z"/>
						<path id="&lt;Path&gt;" class="s5" d="m95 81.6c-9.2-6.6 53.5-8.1 53.5-7.3q0.1 0.9-3.7 2.4l31.7-1-0.8 0.6c-8.3 3-82.6 8.5-90.6 10.2 2.5-0.8 11.2-3.9 9.9-4.9z"/>
						<path id="&lt;Path&gt;" class="s6" d="m84.4 86.7c-1.6 1.4 9.2 0.5-16.8 3.9l-8.7 0.6z"/>
						<path id="&lt;Path&gt;" class="s7" d="m132.7 27.6c16.2-1.2 27.3 16.8 31.6 25l0.1 0.3 0.2 0.4 0.2 0.3-2.1 3c-26 1.9-43.1-4.4-44.3-18.7q0 0 0 0c3.3-5.6 7.9-9.8 14.3-10.3z"/>
						<path id="&lt;Path&gt;" class="s8" d="m111.5 71.4q-0.3-5.6 11.4-8.6 11.8-3 24 10.3-27.4 2.3-35.4-1.7z"/>
						<path id="&lt;Path&gt;" class="s9" d="m96.2 76.7q2.9-4.9 5.8-4.6 2.8 0.2 4.6 3 0.5 2.2-10.4 1.6z"/>
						<path id="&lt;Path&gt;" class="s10" d="m92.6 61.7c8.7-3.1 14.1 3.6 16.3 7q-7.7 3.9-15.2 1.1c-2.9-1-4.8-2.9-6-4.8 1.3-1.4 2.9-2.6 4.9-3.3z"/>
						<path id="&lt;Path&gt;" class="s11" d="m167.4 43v-0.1c1.1-2.8 3-5.1 6.3-5.3 7.3-0.6 14.3 8.5 17.1 12.8-12.5 0.6-23.8-1.2-23.4-7.4z"/>
						<path id="&lt;Path&gt;" class="s12" d="m199.6 25c5-8 13.3-14.9 27.2-16.3 29.9-2.8 42.9 29 46.3 39.5-4.9 3.9-29.1 2.2-35-1.2q-6-3.3-8.1-11.2-31.7 1.6-30.4-10.8z"/>
						<path id="&lt;Path&gt;" class="s13" d="m276.4 49.7q0-0.1 0-0.1 0.2-0.3 0.5-0.7c0.6-0.7 1.5-1.4 2.5-2.2 2.7-1.8 7-3.1 13.7-1.5 12.2 3 13.9 18 15.9 23.9q-12.1 5.3-20.8-1.8-8.6-7-5.1-6.5-3.5 0.8-4 0.3c-0.5-0.5-6.4-5.8-2.7-11.4z"/>
						<path id="&lt;Path&gt;" class="s14" d="m158.6 62.8q7.1-4.8 11.8-6.5 4.7-1.7 20.9 2.6 59.9-7.7 33.8 0.4-2.7 0.8 34.3 4 14.8-0.6 15 1.9 0.2 2.6-13.7 6.4c-59.8-2.4-49.3-3.5-45-5.7 4.4-2.3 7.3-5.1 7.3-6.2q0.1-3-54.8 2.4 0.2 0.2 0.5 0.6z"/>
						<path id="&lt;Path&gt;" class="s15" d="m310.8 73.2q2.3-1.4-50.7 2 35.1 7.6 50.7-2z"/>
						<path id="&lt;Path&gt;" class="s16" d="m207 48.3q0.9-8.1 11.7-8.3 10.8-0.1 11.8 14-22.3 0.9-23.5-5.7z"/>
					</g>
					<g id="&lt;Group&gt;">
						<path id="&lt;Path&gt;" class="s17" d="m200.9 93.5q16.2-4.8 17.7-6.2 1.6-1.4 13.5 1.3-0.1-2.3 1-4.5 0 0 0 0c0.6-1.3 1.6-2.5 3.3-3.3 3.1-1.3 5.2 0.9 6.2 2.3q0 0 0.1 0.1 0.3 0.5 0.4 0.8 0 0 0 0 0.1 0.1 0.2 0.2 0.8-3 3-6.5c2.8-4.6 7.8-10 16-10.4q14.5-0.7 17.9 12l1.2 5.2 1.6 7.3q-37.7 4.6-38.9 4-1.1-0.6-0.5-6.7z"/>
						<path id="&lt;Path&gt;" class="s18" d="m243.2 96.8q-0.9-0.8 0.4-5.9-17 0.9-21.6 1.2-4.7 0.2-21.1 1.4 15.1-1.6 19-2.9 3.9-1.3 12.2-0.4l11.6-1.9-0.2 4.9q12.1-3.8 20.8-4.4c8.8-0.7 20.2 0.3 18.3 3.6-1.3 2.1-38.5 5.2-39.4 4.4z"/>
						<path id="&lt;Path&gt;" class="s19" d="m246.3 77.7c2.8-4.6 7.8-10 16-10.4q14.5-0.7 17.9 12l1.2 5.2c-2.3 1.2-6.4 2.1-13.9 0.9q-15.5-2.4-16-7.2-5.3 2.6-5.2-0.5z"/>
						<path id="&lt;Path&gt;" class="s20" d="m233.1 84.1q0 0 0 0c0.6-1.3 1.6-2.5 3.3-3.3 3.1-1.3 5.2 0.9 6.2 2.3q0 0 0.1 0.1c0 0.1 0.3 0.4 0.4 0.8q0 0 0 0c0.5 1.1 0.6 2.9-3.9 3.2-6.4 0.5-6.2-3-6.1-3.1z"/>
					</g>
					<g id="&lt;Group&gt;">
						<path id="&lt;Path&gt;" class="s21" d="m316.4 72.5q5.1-9.6 10.2-9.9c5-0.4 6.2 1.9 10 5.4q3.7 3.5 16 0.2-0.3-4.7 2.1-5.6 2.4-1 5.3 1.9-2-4.3 0.9-16.2c0.4-2 1.6-3.6 3.2-4.8 7.8-6 26.8-3.2 30.9-0.1 4 3.1 4.9 14.1 5.1 18.3q0.1 1.1 0.1 1.7c0.2 1.6-0.2 2.9-1 4.1-5.7 8.7-33.7 8-36.8 7.2-3.5-0.8-1.8-5.8-1.7-6-0.3 0.1-12.9 3-31.4 5.3-18 2.2-29.5 1.1-30.5 1q0 0 0 0-0.1 0-0.1 0z"/>
						<path id="&lt;Path&gt;" class="s22" d="m325.6 71.5q4.8-1.5 18.6-0.5l26.3-5.1-3 2.1 31.7-0.5c-5.7 8.7-33.7 8-36.8 7.2-3.5-0.8-1.8-5.8-1.7-6-0.3 0.1-12.9 3-31.4 5.3-18 2.2-29.5 1.1-30.5 1 2.6 0.2 22.1-2 26.8-3.5z"/>
						<path id="&lt;Path&gt;" class="s23" d="m364.1 43.5c7.8-6 26.8-3.2 30.9-0.1 4 3.1 4.9 14.1 5.1 18.3-0.7 1-1.8 1.8-3.5 2.1-5.4 1-21.6 1.7-25.8-1.7-4.1-3.4-11.7-11.8-6.7-18.6z"/>
						<path id="&lt;Path&gt;" class="s24" d="m369.4 64.8q-6.6 3.1-8.7 0.9c-2-2.2-0.7-6.6 2-6.8q2.7-0.2 6.7 5.9z"/>
						<path id="&lt;Path&gt;" class="s25" d="m357.8 66c-2 0.2-4.5-1.3-3.1-2.5 1.3-1.1 7.3 2.1 3.1 2.5z"/>
						<path id="&lt;Path&gt;" class="s26" d="m334.2 68.4c-5.3 1-11.7-1.8-8.9-4.4 2.8-2.7 9.9 1.9 10.2 3.8q0.3 1.8-1.3 0.6z"/>
					</g>
					<path id="&lt;Path&gt;" class="s27" d="m366 84.7q-0.4-2.1 1.1-2.4 1.6-0.3 2.1 1.6 2.1-7.5 5-7.3c2.9 0.2 5.2 6.7-2.2 7.3z"/>
					<path id="&lt;Path&gt;" class="s28" d="m394.3 77.9c-1.7 0.4-3.8-0.1-1.9-1.8 2-1.6 7 0.8 1.9 1.8z"/>
					<path id="&lt;Path&gt;" class="s29" d="m59.8 33.7q0 0 0.1 0 0.3-0.6 0.6-1.2 0 0 0 0 0.5-0.6 1.1-1.1c0.7-0.6 1.6-1 2.7-1.1 5.8-0.5 9 7 10.4 11.7q0.7 2.1 0.9 3.6 0-2.3 2.9-3.5c2.9-1.2 12.6 2.8 12.3 4.2q-0.4 1.3-14.7 1.1 2.3 1.9-10.8 3.2-4.8 0.4-6.4-1.2-1.7-10.2 0.9-15.7z"/>
					<path id="&lt;Path&gt;" class="s30" d="m102.6 46c3.8-0.7 2.5-2.7 0.4-4.1-2.1-1.5-6.5 5.3-0.4 4.1z"/>
					<path id="&lt;Path&gt;" class="s31" d="m59.8 33.7q0 0 0.1 0 0.2-0.7 0.6-1.2 0 0 0 0 0.6-0.6 1.1-1.1c0.7-0.6 1.6-1 2.7-1.1 5.8-0.5 9 7 10.4 11.7-0.3 0.8-0.8 1.5-1.4 1.9-9.7 6.5-15.1-5.4-13.5-10.2z"/>
				</g>
			</g>
		</g>
		<g id="cloud dx">
			<g id="&lt;Clip Group&gt;" clip-path="url(#cp2)">
				<g id="&lt;Group&gt;">
					<g id="&lt;Group&gt;">
						<path id="&lt;Path&gt;" class="s32" d="m757.1 63.9c1.4-0.2 13.8-0.5 14.1-0.8 0.4-0.3 0.2-5.4 3.1-7.7q0 0 0 0 0.1-0.2 0.3-0.3 3.2-2.2 5.3 2 0.1-3.1 1.5-6c0.3-0.7 1.1-1.4 2.1-2.1 3.4-2.2 9.5-3.9 12.9-1.9 3.1 1.7 3.9 6.9 4.1 9.9q0.1 1.4 0 2.3-0.1 0.2-0.3 0.4c-4.4 3.6-41.7 6.9-48.6 7.4q-0.7 0.1-1.1 0.1 5.3-3 6.6-3.3z"/>
						<path id="&lt;Path&gt;" class="s33" d="m751.6 67.1q3.9-0.4 26.1-3.2l-3.8-1 17.7-3-0.6 0.4 9.2-0.6c-4.4 3.6-41.7 6.9-48.6 7.4z"/>
						<path id="&lt;Path&gt;" class="s34" d="m783.5 49q0 0 0 0c3.4-2.2 9.5-3.9 12.9-1.9 3.1 1.7 3.9 6.9 4.1 9.9-7.1 2.2-20.4-2.2-17-8z"/>
						<path id="&lt;Path&gt;" class="s35" d="m779.5 58.8c-1 2.7-7.6-2.1-4.9-3.7 2.8-1.5 5.6 1.7 4.9 3.7z"/>
					</g>
					<g id="&lt;Group&gt;">
						<path id="&lt;Path&gt;" class="s36" d="m569.9 81.7q16.2-4.7 17.7-6.1 1.6-1.4 13.5 1.2-0.1-2.3 1-4.5 0 0 0 0c0.6-1.3 1.6-2.5 3.3-3.2 3.1-1.4 5.2 0.8 6.2 2.3q0 0 0.1 0 0.3 0.5 0.4 0.8 0 0 0 0 0.1 0.2 0.2 0.3 0.8-3.1 3-6.6c2.8-4.6 7.8-9.9 16-10.3q14.5-0.7 17.9 12l1.2 5.2 1.6 7.3q-37.7 4.5-38.9 4-1.1-0.6-0.5-6.8z"/>
						<path id="&lt;Path&gt;" class="s37" d="m612.2 85q-0.9-0.8 0.4-5.8-17 0.8-21.6 1.1-4.7 0.3-21.1 1.4 15.1-1.5 19-2.8 3.9-1.3 12.2-0.4l11.6-1.9-0.2 4.8q12.1-3.7 20.8-4.4c8.8-0.6 20.2 0.3 18.3 3.7-1.3 2.1-38.5 5.1-39.4 4.3z"/>
						<path id="&lt;Path&gt;" class="s38" d="m615.3 65.9c2.8-4.6 7.8-9.9 16-10.3q14.5-0.7 17.9 12l1.2 5.2c-2.3 1.2-6.4 2.1-13.9 0.9q-15.5-2.5-16-7.3-5.3 2.6-5.2-0.5z"/>
						<path id="&lt;Path&gt;" class="s39" d="m602.1 72.3q0 0 0 0c0.6-1.3 1.6-2.5 3.3-3.2 3.1-1.4 5.2 0.8 6.2 2.3q0 0 0.1 0c0 0.1 0.3 0.4 0.4 0.8q0 0 0 0c0.5 1.1 0.6 3-3.9 3.3-6.4 0.5-6.2-3-6.1-3.2z"/>
					</g>
					<g id="&lt;Group&gt;">
						<path id="&lt;Path&gt;" class="s40" d="m685.4 60.7q5.1-9.5 10.2-9.9c5-0.3 6.2 2 10 5.5q3.7 3.5 16 0.2-0.3-4.7 2.1-5.7 2.4-1 5.3 1.9-2-4.2 0.9-16.2c0.4-2 1.6-3.5 3.2-4.7v-0.1c7.8-6 26.8-3.1 30.9 0 4 3 4.9 14 5.1 18.3q0.1 1 0.1 1.6c0.2 1.6-0.2 3-1 4.2-5.7 8.6-33.7 8-36.8 7.2-3.5-0.9-1.8-5.9-1.7-6-0.3 0-12.9 3-31.4 5.2-18 2.2-29.5 1.2-30.5 1.1q0 0 0 0-0.1 0-0.1 0z"/>
						<path id="&lt;Path&gt;" class="s41" d="m694.6 59.7q4.8-1.4 18.6-0.4l26.3-5.1-3 2.1 31.7-0.5c-5.7 8.6-33.7 8-36.8 7.2-3.5-0.9-1.8-5.9-1.7-6-0.3 0-12.9 3-31.4 5.2-18 2.2-29.5 1.2-30.5 1.1 2.6 0.2 22.1-2.1 26.8-3.6z"/>
						<path id="&lt;Path&gt;" class="s42" d="m733.1 31.8v-0.1c7.8-6 26.8-3.1 30.9 0 4 3 4.9 14 5.1 18.3-0.7 0.9-1.8 1.8-3.5 2.1-5.4 1-21.6 1.6-25.8-1.8-4.1-3.4-11.7-11.7-6.7-18.5z"/>
						<path id="&lt;Path&gt;" class="s43" d="m738.4 53.1q-6.6 3.1-8.7 0.8c-2-2.2-0.7-6.6 2-6.8q2.7-0.2 6.7 6z"/>
						<path id="&lt;Path&gt;" class="s44" d="m726.8 54.2c-2 0.2-4.5-1.3-3.1-2.4 1.3-1.2 7.3 2 3.1 2.4z"/>
						<path id="&lt;Path&gt;" class="s45" d="m703.2 56.7c-5.3 0.9-11.7-1.8-8.9-4.5 2.8-2.6 9.9 2 10.2 3.8q0.3 1.9-1.3 0.7z"/>
					</g>
					<path id="&lt;Path&gt;" class="s46" d="m735 73q-0.4-2.2 1.1-2.5 1.6-0.2 2.1 1.7 2.1-7.6 5-7.4c2.9 0.2 5.2 6.8-2.2 7.4z"/>
					<path id="&lt;Path&gt;" class="s47" d="m763.3 66.2c-1.7 0.3-3.8-0.2-1.9-1.8 2-1.6 7 0.8 1.9 1.8z"/>
					<path id="&lt;Path&gt;" class="s48" d="m428.8 21.9q0 0 0.1 0 0.3-0.6 0.6-1.1 0 0 0 0 0.5-0.7 1.1-1.2c0.7-0.6 1.6-1 2.7-1.1 5.8-0.5 9 7.1 10.4 11.7q0.7 2.1 0.9 3.7 0-2.4 2.9-3.6c2.9-1.2 12.6 2.9 12.3 4.2q-0.4 1.4-14.7 1.2 2.3 1.8-10.8 3.1-4.8 0.5-6.4-1.2-1.7-10.2 0.9-15.7z"/>
					<path id="&lt;Path&gt;" class="s49" d="m471.6 34.3c3.8-0.7 2.5-2.7 0.4-4.2-2.1-1.5-6.5 5.3-0.4 4.2z"/>
					<path id="&lt;Path&gt;" class="s50" d="m428.8 21.9q0 0 0.1 0 0.2-0.7 0.6-1.1 0 0 0 0 0.6-0.6 1.1-1.2c0.7-0.6 1.6-1 2.7-1.1 5.8-0.5 9 7.1 10.4 11.7-0.3 0.9-0.8 1.5-1.4 2-9.7 6.4-15.1-5.4-13.5-10.3z"/>
				</g>
			</g>
		</g>
	</g>
</svg>