<svg version="1.2" xmlns="http://www.w3.org/2000/svg" viewBox="0 0 889 400" width="889" height="400">
	<title>2109</title>
	<defs>
		<clipPath clipPathUnits="userSpaceOnUse" id="cp1">
			<path d="m0.5 0h888.89v400h-888.89z"/>
		</clipPath>
		<linearGradient id="g1" x1="-2.3" y1="-19.5" x2="-6.3" y2="424.3" gradientUnits="userSpaceOnUse">
			<stop offset="0" stop-color="#56a1fd"/>
			<stop offset="1" stop-color="#d4fff0"/>
		</linearGradient>
		<clipPath clipPathUnits="userSpaceOnUse" id="cp2">
			<path d="m-0.11-531h888.89v838.22h-888.89z"/>
		</clipPath>
		<radialGradient id="g2" cx="419.8" cy="494.7" r="513.9" gradientUnits="userSpaceOnUse">
			<stop offset=".3" stop-color="#7ae7f8"/>
			<stop offset="1" stop-color="#4685e4"/>
		</radialGradient>
		<linearGradient id="g3" x1="308.8" y1="124.5" x2="302.3" y2="216.2" gradientUnits="userSpaceOnUse">
			<stop offset="0" stop-color="#000000"/>
			<stop offset="1" stop-color="#70bbb1"/>
		</linearGradient>
		<linearGradient id="g4" x1="-47.6" y1="105.5" x2="-54" y2="353.3" gradientUnits="userSpaceOnUse">
			<stop offset="0" stop-color="#000000"/>
			<stop offset="1" stop-color="#70bbb1"/>
		</linearGradient>
		<linearGradient id="g5" x1="909.1" y1="227.7" x2="756.9" y2="227.7" gradientUnits="userSpaceOnUse">
			<stop offset="0" stop-color="#000000"/>
			<stop offset="1" stop-color="#70bbb1"/>
		</linearGradient>
		<linearGradient id="g6" x1="-20.2" y1="153.2" x2="-26.9" y2="248.8" gradientUnits="userSpaceOnUse">
			<stop offset="0" stop-color="#000000"/>
			<stop offset="1" stop-color="#70bbb1"/>
		</linearGradient>
	</defs>
	<style>
		.s0 { fill: url(#g1) } 
		.s1 { fill: url(#g2) } 
		.s2 { opacity: .1;mix-blend-mode: multiply;fill: #4685e4 } 
		.s3 { mix-blend-mode: screen;fill: url(#g3) } 
		.s4 { mix-blend-mode: screen;fill: url(#g4) } 
		.s5 { opacity: .6;mix-blend-mode: screen;fill: #7ae7f8 } 
		.s6 { mix-blend-mode: screen;fill: url(#g5) } 
		.s7 { fill: #ffffff } 
		.s8 { mix-blend-mode: screen;fill: url(#g6) } 
	</style>
	<g id="sky_01">
		<g id="&lt;Clip Group&gt;" clip-path="url(#cp1)">
			<path id="&lt;Path&gt;" class="s0" d="m889.1-3v410.2h-889.6v-410.2z"/>
		</g>
	</g>
	<g id="sea_01 copy 2">
		<g id="&lt;Clip Group&gt;" clip-path="url(#cp2)">
			<g id="&lt;Group&gt;">
				<path id="&lt;Path&gt;" class="s1" d="m-22.3 106.5h912.5v228.1h-912.5z"/>
				<path id="&lt;Path&gt;" class="s2" d="m888.5 106.5v41.7c-67.9-10.7-212.9-31.8-220-19.7-9.2 15.9 68.4 12.8 67.9 16.5-0.5 3.7-37-0.6-34 16.8 3.1 17.4 103.3 0 103.3 3.7 0 3.4-10.2 15.3-12.2 17.6 1.2-1.5 4.9-6.6-0.1-7.7-5.9-1.2-58.8-0.6-60 5-1.3 5.6-122.4 1.2-121.9-1.2 0.5-2.5 15.3 1.2 13.5-3.8-1.8-4.9-101 1.9-101.9 0-0.8-1.8 41.4-3.7 41.4-13.6 0-9.7-56.4-11.1-59.2-11.2 1.6 0 21.3-0.2 19.7-8.9-1.8-9.1-218.3-24-219.1-8.8-0.8 15.2 77.7 23 82.8 21.3q5.1-1.8-6.5-11.7 44.6 0.2 41.2 11.7c-3.4 11.5-135.2 4-136.6 4.9-1.3 0.8 22.8 12.4 9.2 24.4-13.6 12-101.8 13.7-101.8 6.2 0-6.7 13.4-11.4 15.9-12.3-3.5 1-28.6 7.6-29.2-0.1q-0.7-8.3 10.5-12.4-120.2 9.1-118.2-10.8c2.1-19.9-4.7-21.7-26.6-21.2-17.7 0.4-41-5.1-49.2-7.2v-19.2z"/>
				<path id="&lt;Path&gt;" class="s2" d="m888.5 106.5v13h-128c2.8-2 4.7-4.4 3.6-6.5q-2.7-5.5-238.8 6-299.5-12.9-293-4.4c1.5 1.9 7.6 3.6 16 4.9h-250.9v-13z"/>
				<g id="&lt;Group&gt;">
					<path id="&lt;Path&gt;" class="s2" d="m347.3 179.5q23.5 4.2 23.5 7.3c0 3.2-68 2.5-68 0q0-2.4 15.9-4.5-3.5 0.9-2.2 3.1c1.3 2.3 36.4 4.3 30.8-5.9z"/>
					<path id="&lt;Path&gt;" class="s2" d="m470.3 165.8q34 1.5 34 2.6c0 1.1-98.1 0.9-98.1 0q0-0.8 22.8-1.6-4.9 0.3-3.1 1.1c1.8 0.8 52.6 1.5 44.4-2.1z"/>
					<path id="&lt;Path&gt;" class="s2" d="m110.7 174.8q53.3 4.2 53.3 7.3c0 3.2-154 2.5-154 0q0-2.4 35.9-4.6-7.8 0.9-4.9 3.2c2.9 2.3 82.5 4.2 69.7-5.9z"/>
					<path id="&lt;Path&gt;" class="s2" d="m172.3 187.6q18.6 2.1 18.6 3.7c0 1.6-53.8 1.2-53.8 0q0-1.2 12.5-2.3-2.7 0.4-1.7 1.6c1 1.1 28.8 2.1 24.4-3z"/>
					<path id="&lt;Path&gt;" class="s2" d="m778.8 190.9q-41.1 10-52.8 8.9-11.8-1-1.3-4.4-81.8-1-83.8 4.5c-2.1 5.5 98.9 9.5 137.9-9z"/>
					<path id="&lt;Path&gt;" class="s2" d="m997 167.5q-56.8 13.7-73 12.3-16.2-1.5-1.8-6.1-112.9-1.5-115.7 6.2c-2.8 7.6 136.7 13.1 190.5-12.4z"/>
					<path id="&lt;Path&gt;" class="s3" d="m614 193c0.7 8.3-56.3 16.1-67.5 9.5q-11.2-6.6-14.3-3.5 18.4 18.5-70 17-88.4-1.4-92-13.5l-63.9-3.2 91.2-1.4q-14 1-1.5 6.6c12.5 5.6 108.9 18.4 106 3.7q-2.8-14.8-46.7-12.3l120.8-2.9q-22.7-0.7-22.7 5.4c0 6 52.3-0.9 56.8-2.9q4.5-1.9 3.8-2.5z"/>
					<path id="&lt;Path&gt;" class="s4" d="m918.3 348l-962.8 12-4.5-112.1 188.9 12.4q-70.1 8-42.4 13.9 27.7 6 160.1-13.9-16.1 10 37.3 23.9c53.3 14 167.4-13.9 173.5-11.9 6.1 2 171.7 17.9 202 11.9 30.3-6-1.9-11.9 0-21.9q2-10 241.8 21.9z"/>
					<path id="&lt;Path&gt;" class="s5" d="m651.1 259.6c-1.8-1.4-77.4-10-77.7-6.6-0.2 3.3 106 28.6 77.7 6.6z"/>
					<path id="&lt;Path&gt;" class="s6" d="m909.1 257.4q-153.3-8.4-152.7-14.4 0.5-6 146.5-11.1z"/>
					<path id="&lt;Path&gt;" class="s5" d="m748.9 241.7c0.2 4-60.9 10.6-62.2 4q-1.2-6.7 37.2-5.4-22.4-1.3-22.2-3.3 0.1-2 47.2 4.7z"/>
					<path id="&lt;Path&gt;" class="s7" d="m493.5 238.5c-2.4 7.2-69 16.1-86.3 14.7q-17.4-1.4-24.5-9.2-24.9 10.3-33.1 4.6-8.1-5.6-3.4-9.3-17.1 4.8 6.4 4.8 23.6 0 22.4 0z"/>
					<path id="&lt;Path&gt;" class="s7" d="m297.8 253.9c4 0.1-34.4 2.8-35.9-2.8q-1.5-5.6-3.9-8.8 17.9 10.9 39.8 11.6z"/>
					<path id="&lt;Path&gt;" class="s5" d="m574.2 257.7q8.4 4.1 7.5 8.5c-0.9 4.5-45.2 2.5-45.1 0 0.1-2.4 48.3 6.5 37.6-8.5z"/>
					<ellipse id="&lt;Path&gt;" class="s7" cx="547.1" cy="256.2" rx="7.7" ry="1.5"/>
					<ellipse id="&lt;Path&gt;" class="s5" cx="644.2" cy="247.6" rx="7.5" ry="1.6"/>
					<path id="&lt;Path&gt;" class="s7" d="m522.6 246c1.4 0 2.5 0.3 2.5 0.8 0 0.4-1.1 0.8-2.5 0.8-1.4 0-2.6-0.4-2.6-0.8 0-0.5 1.2-0.8 2.6-0.8z"/>
					<ellipse id="&lt;Path&gt;" class="s5" cx="469" cy="230" rx="13.5" ry="3"/>
					<ellipse id="&lt;Path&gt;" class="s5" cx="235.1" cy="243.8" rx="7.7" ry="1.5"/>
					<ellipse id="&lt;Path&gt;" class="s7" cx="332.2" cy="235.1" rx="7.5" ry="1.6"/>
					<path id="&lt;Path&gt;" class="s7" d="m348.3 255.3c2.6 0 4.7 0.4 4.7 1 0 0.5-2.1 1-4.7 1-2.6 0-4.7-0.5-4.7-1 0-0.6 2.1-1 4.7-1z"/>
					<path id="&lt;Path&gt;" class="s7" d="m356.4 264.6c0.6 0 1 0.2 1 0.5 0 0.4-0.4 0.6-1 0.6-0.5 0-1-0.2-1-0.6 0-0.3 0.5-0.5 1-0.5z"/>
					<path id="&lt;Path&gt;" class="s7" d="m334.7 254.8c0-0.2 0.8-0.4 1.7-0.4 1 0 1.8 0.2 1.8 0.4 0 0.3-0.8 0.5-1.8 0.5-0.9 0-1.7-0.2-1.7-0.5z"/>
					<path id="&lt;Path&gt;" class="s7" d="m335.7 252.1c0.5 0 1 0.3 1 0.6 0 0.3-0.5 0.6-1 0.6-0.6 0-1-0.3-1-0.6 0-0.3 0.4-0.6 1-0.6z"/>
					<path id="&lt;Path&gt;" class="s7" d="m210.5 233.5c1.4 0 2.6 0.4 2.6 0.8 0 0.5-1.2 0.8-2.6 0.8-1.4 0-2.5-0.3-2.5-0.8 0-0.4 1.1-0.8 2.5-0.8z"/>
					<ellipse id="&lt;Path&gt;" class="s5" cx="158.4" cy="233.1" rx="13.5" ry="3"/>
					<ellipse id="&lt;Path&gt;" class="s5" cx="147.9" cy="248.4" rx="7.7" ry="1.5"/>
					<ellipse id="&lt;Path&gt;" class="s7" cx="246.5" cy="238.1" rx="7.5" ry="1.6"/>
					<ellipse id="&lt;Path&gt;" class="s7" cx="307.7" cy="256.9" rx="2.7" ry="1.4"/>
					<path id="&lt;Path&gt;" class="s7" d="m302.2 258.5c0.5 0 0.9 0.2 0.9 0.5 0 0.3-0.4 0.5-0.9 0.5-0.5 0-0.9-0.2-0.9-0.5 0-0.3 0.4-0.5 0.9-0.5z"/>
					<path id="&lt;Path&gt;" class="s5" d="m123.3 238.1c1.4 0 2.6 0.4 2.6 0.8 0 0.5-1.2 0.9-2.6 0.9-1.4 0-2.5-0.4-2.5-0.9 0-0.4 1.1-0.8 2.5-0.8z"/>
					<ellipse id="&lt;Path&gt;" class="s5" cx="71.2" cy="237.7" rx="13.5" ry="3"/>
					<ellipse id="&lt;Path&gt;" class="s5" cx="276.2" cy="301.1" rx="13.5" ry="3"/>
					<ellipse id="&lt;Path&gt;" class="s5" cx="265.7" cy="316.4" rx="7.7" ry="1.5"/>
					<ellipse id="&lt;Path&gt;" class="s5" cx="189" cy="305.7" rx="13.5" ry="3"/>
					<ellipse id="&lt;Path&gt;" class="s5" cx="529.3" cy="291.2" rx="19.5" ry="4.3"/>
					<ellipse id="&lt;Path&gt;" class="s5" cx="625" cy="307.5" rx="8.5" ry="1.9"/>
					<ellipse id="&lt;Path&gt;" class="s5" cx="583.2" cy="313.2" rx="22.8" ry="5"/>
					<ellipse id="&lt;Path&gt;" class="s5" cx="566" cy="319.7" rx="6.8" ry="1.5"/>
					<ellipse id="&lt;Path&gt;" class="s5" cx="417.3" cy="316.4" rx="11.1" ry="2.1"/>
					<ellipse id="&lt;Path&gt;" class="s5" cx="402.9" cy="297.9" rx="19.5" ry="4.3"/>
					<path id="&lt;Path&gt;" class="s8" d="m-12 204.5l127.5 4.9q-73.6-2.8-77 6.7-3.4 9.5 22.1 10.2l-83.1 3.8z"/>
				</g>
			</g>
		</g>
	</g>
</svg>