<svg version="1.2" xmlns="http://www.w3.org/2000/svg" viewBox="0 0 750 500" width="750" height="500">
	<title>7066694-ai</title>
	<style>
		.s0 { fill: #ffffff } 
		.s1 { fill: #fff2de } 
		.s2 { fill: #ffca80 } 
		.s3 { fill: #a13a02 } 
		.s4 { fill: #c25909 } 
		.s5 { fill: #f28422 } 
		.s6 { fill: #ffddbd } 
		.s7 { fill: #e8631b } 
	</style>
	<g id="BACKGROUND">
		<path id="&lt;Path&gt;" class="s0" d="m750 500h-750v-500h750z"/>
	</g>
	<g id="OBJECTS">
		<g id="&lt;Clip Group&gt;">
			<g id="&lt;Group&gt;">
				<path id="&lt;Path&gt;" class="s1" d="m257.6 146.5c6.7-14 19.1-25 33.7-30 9.5-3.2 20.3-3.8 29 1.1 8.7 4.8 14.1 16.2 10 25.3 7.1-9.6 22.4-11.8 31.8-4.6 9.5 7.3 11.4 22.6 3.9 31.9 5.2-3.4 12.3-3.5 17.5-0.2 5.2 3.2 8.2 9.6 7.4 15.7 6.5-1.6 13.8 0.5 18.3 5.4-0.3-7.4 6.3-14.2 13.7-15 12.4-1.3 19.2 9.4 21 20.2 1 5.5 0.6 11.3-1.1 16.6-1 3.4-4 12.1-7.7 13.6 5.8-2.3 12.5-1.9 18 1.1 5.4 3 9.4 8.5 10.6 14.5 1.4 7.5-1.3 15.4-6 21.4-4.7 6-11.1 10.3-17.9 13.9-17.2 9.2-36 13-55.1 16.6-48.5 9.1-99.9 13.7-149.2 8.7-10.8-1.1-21.8-2.9-31.7-7.4-10-4.6-18.8-12.2-23-22.3-4.2-10.1-2.9-22.8 4.8-30.6 7.6-7.8 21.7-9 29.4-1.2 1.4-11.5 3-23.4 9.2-33.1 6.3-9.7 18.8-16.3 29.6-12.2-7.2-16.8-3.8-33.6 3.8-49.4z"/>
				<path id="&lt;Path&gt;" class="s2" d="m431.8 201.1q-0.1 1.8-0.5 3.5c-0.3 1.2-0.5 2.5-1 3.7-0.1 0.2-0.5 0.1-0.5-0.1 0.1-1.1 0.4-2.2 0.5-3.3 0.2-1.1 0.4-2.2 0.5-3.4 0.2-2.1 0.2-4.1-0.3-6.1-1-3.8-4-7.2-8-7.3-0.3 0-0.3-0.3 0-0.3 4.1-0.2 7.3 2.9 8.6 6.6 0.7 2.1 0.9 4.4 0.7 6.7z"/>
				<path id="&lt;Path&gt;" class="s2" d="m412.3 207.4c0 0.2-0.3 0.3-0.4 0-0.4-1.3-0.7-2.6-1.4-3.8-0.6-1.2-1.3-2.3-2.3-3.3-1.1-0.9-2.3-1.7-3.7-2.2q-0.9-0.3-1.9-0.5c-0.7-0.2-1.4-0.1-2-0.3-0.2 0-0.2-0.3 0-0.3 0.7-0.3 1.5-0.2 2.3-0.1q1 0.1 2 0.4 2.2 0.7 3.9 2.2c2.2 1.9 3.9 4.9 3.5 7.9z"/>
				<path id="&lt;Path&gt;" class="s2" d="m303.9 131.1c-2 0.3-4 0.2-6 0.3q-3 0.3-5.9 1.1c-6.9 1.8-13.2 5.9-17.8 11.3-4.6 5.4-7.5 12.2-8.2 19.2 0 0.2-0.4 0.2-0.4 0 0.4-4 1.4-7.9 3-11.6 2.9-6.6 7.7-12.3 13.9-16.1 3.2-1.9 6.8-3.3 10.4-4.2q2.7-0.6 5.5-0.9c1.9-0.1 3.7-0.2 5.5 0.3 0.3 0.1 0.3 0.5 0 0.6z"/>
				<path id="&lt;Path&gt;" class="s2" d="m303.4 143.1c-1.9 0.1-3.7 0-5.6 0.3-1.8 0.2-3.6 0.8-5.2 1.5-3.5 1.4-6.5 3.8-8.7 6.9-0.2 0.2-0.7 0-0.5-0.3 2.3-3.1 5.3-5.7 8.8-7.3q2.7-1.2 5.5-1.6c1.8-0.3 3.9-0.5 5.7 0.1 0.2 0.1 0.2 0.4 0 0.4z"/>
				<path id="&lt;Path&gt;" class="s2" d="m354.6 157.5c0 0.2-0.3 0.4-0.4 0.2-0.8-0.9-1.4-2-2.3-2.9-0.8-0.9-1.8-1.6-2.9-2.3-2.1-1.2-4.7-1.8-7.2-1.5-0.2 0-0.2-0.3 0-0.4 2.6-0.3 5.2 0.1 7.5 1.3q1.8 0.9 3.2 2.3c0.8 0.9 1.8 2 2.1 3.3z"/>
			</g>
			<g id="&lt;Group&gt;">
				<path id="&lt;Path&gt;" class="s1" d="m677.7 226.2c-2-5.7-3.7-10-2.6-16 0.9-4.9 3.1-9.6 6.7-13.1 6.4-6.4 17.4-8.3 25.1-3.4 2-7.4 7.7-13.6 14.5-16.9 6.9-3.3 15.2-3.4 22.2-0.4-6.7-5.8-9.6-15.6-7.2-24.1 2.2-7.9 9.5-15.2 17.8-16.8 4.3-0.8 9.5 0.5 13.6 2.1 1 0.4 11.2 6.4 10.6 7 10.9-9.5 28.4-10.3 40.2-1.9 11.8 8.4 16.7 25.2 11.3 38.6 6.8-5.1 17.4-4.3 23.3 1.9 5.8 6.2 6.1 16.9 0.6 23.4 8.6-7.3 22.9-6.2 30.2 2.3 7.3 8.5 6.3 22.8-2.1 30.2 6-2.3 12.2-4.7 18.7-4.1 6.4 0.5 12.9 4.9 13.7 11.3 0.8 5.6-3.2 11-8.2 13.7-5 2.7-10.9 3.3-16.5 3.9-99.1 9.5-198.5 19.1-298 15.1-10.4-0.4-23.3-2.8-26.3-12.8-2.5-8.2 4.2-17.1 12.5-19.5 8.2-2.4 17.1 0.1 24.9 3.7 4.9-8.2 14-13.7 23.6-14.1 9.5-0.5 19.2 4.2 24.8 11.9-2.1-7 0.4-15.1 6-19.8 5.6-4.6 14.1-5.6 20.6-2.2z"/>
				<path id="&lt;Path&gt;" class="s2" d="m697.4 201.2c-7.5 2.6-12.5 11.1-10.1 18.8 0.6 2 1.7 3.9 3.3 5.2 0.1 0.2 0.3 0 0.1-0.1-3-3.5-4-8.5-2.7-12.9 1.5-4.7 5.4-8.2 9.5-10.6 0.3-0.1 0.1-0.5-0.1-0.4z"/>
				<path id="&lt;Path&gt;" class="s2" d="m759.9 145.2c-1.1 0.1-2.2 0-3.3 0.1q-1.5 0.2-3 0.8c-3.6 1.3-6.6 4.1-8 7.7-1.5 3.8-1.5 8 0.1 11.7 0 0.1-0.2 0.3-0.3 0.1-1.2-2.1-1.8-4.4-1.9-6.8 0-4.3 1.8-8.4 5.1-11.2 1.6-1.3 3.4-2.3 5.3-2.9 1.8-0.6 4.2-1.1 6.1-0.6 0.6 0.2 0.4 1-0.1 1.1z"/>
				<path id="&lt;Path&gt;" class="s2" d="m813.6 154.5c-1.3-0.5-2.4-1.4-3.6-2.1q-1.9-1-3.9-1.8c-4.7-1.8-9.6-2.2-14.6-1.3-2.2 0.4-4.4 1.1-6.5 2-2 1-3.9 2.3-5.8 3.4-0.3 0.1-0.5-0.2-0.3-0.4 1.7-2.1 4.3-3.5 6.7-4.5 4.6-2 9.5-2.6 14.4-2q3.9 0.5 7.6 2c1.2 0.6 2.3 1.2 3.4 1.9 1.1 0.7 2.2 1.4 2.9 2.4 0.1 0.2-0.1 0.5-0.3 0.4z"/>
				<path id="&lt;Path&gt;" class="s2" d="m808.7 162c-0.7-0.1-1.4-0.7-2-1.1q-1-0.7-2.1-1.2c-1.4-0.7-2.9-1.3-4.4-1.6-3.1-0.7-6.6-0.8-9.7 0.1-0.2 0.1-0.3-0.3-0.1-0.4 3.3-1 6.6-1.2 9.9-0.6q2.6 0.4 4.9 1.5 1.1 0.6 2.1 1.2c0.6 0.4 1.5 0.9 1.8 1.6 0.2 0.3-0.1 0.6-0.4 0.5z"/>
				<path id="&lt;Path&gt;" class="s2" d="m737 185.6q-0.2 0.4-0.3 0.7c-0.2 0.4-0.8 0.4-0.8-0.1q0 0 0 0c-1 0.3-2 0.5-3.1 0.7q-1.7 0.4-3.5 0.9c-2.3 0.7-4.5 1.6-6.6 2.8-2 1.2-3.8 2.7-5.2 4.6q-1.1 1.4-1.8 3c-0.5 1.1-0.6 2.3-1 3.4 0 0.1-0.1 0.1-0.2 0-0.1-1.1 0.2-2.3 0.5-3.4 0.4-1.1 0.9-2.2 1.5-3.1 1.3-2.1 3.1-3.8 5.1-5.2 2.2-1.5 4.7-2.5 7.2-3.2q1.8-0.6 3.7-1.1c1.3-0.3 2.6-0.6 3.9-0.7 0.4-0.1 0.7 0.3 0.6 0.7z"/>
			</g>
			<g id="&lt;Group&gt;">
				<path id="&lt;Path&gt;" class="s3" d="m594 232.6c15.5 2.8 26.9 5.3 42.8 0.7 13.9-3.9 27-10.5 40.8-15.2 21.6-7.4 44.9-10.1 67.6-8 13.5 1.3 27.8 4.7 36.9 14.8 7 7.8 9.9 18.5 11.9 28.8 5.9 30.2 12.9 79-3.4 107.1-10.3 17.7-26.7 12.5-43.3 14-231.8 21.1-464.7 30.7-697.5 28.6-33.7-0.3-71.1-2.4-94.6-26.5-15.1-15.4-28.3-57.5-10-75.8 9.8-9.8 38.5-13.9 51.7-18.5q27.4-9.5 54.8-19c22.4-7.7 45.1-15.6 68.7-17.3 49.5-3.6 97.8 19.7 147.2 16.8 24.4-1.4 48-9.1 72-13.7 21.7-4.1 44-5.6 66.1-4.4 18.7 0.9 35.2 6.2 53.1 0.7 29.4-9 60.2-13.2 90.9-14.2 13.2-0.5 27.5-1.4 40.7 0.5q1.8 0.2 3.6 0.6z"/>
				<g id="&lt;Group&gt;">
					<path id="&lt;Path&gt;" class="s4" d="m448.3 260.4c-24.7-1.7-49.1-3.1-73.9-1.3-25.2 1.9-50.2 6.3-74.6 12.9-0.1 0.1-0.2-0.1 0-0.2 24.1-6.8 48.7-11.3 73.7-13.5 24.7-2.1 50.3-2.6 74.9 1.1 0.6 0.1 0.5 1.1-0.1 1z"/>
					<path id="&lt;Path&gt;" class="s4" d="m416 267.8c-16.7-0.8-33.2-0.8-49.9 1-0.2 0-0.2-0.3 0-0.4 16.6-1.8 33.3-2.5 49.9-1 0.3 0 0.3 0.5 0 0.4z"/>
					<path id="&lt;Path&gt;" class="s4" d="m661.5 234.2c-34 6.4-68.2 4.6-102.6 5-32.8 0.3-66.6 3.5-95.6 20.1-0.2 0.1-0.4-0.2-0.2-0.3 15-8.9 31.6-14.3 48.8-17.4 33.5-6.1 67.6-2.9 101.4-3.8 17.6-0.4 35.1-2.2 52.4-5.8 16.7-3.4 32.5-9 48.7-14.4 0.5-0.1 0.8 0.6 0.3 0.8-16.6 7.8-35.3 12.4-53.2 15.8z"/>
					<path id="&lt;Path&gt;" class="s4" d="m763.8 221.5c-49.7-7.6-91.8 33-141.4 25.7-0.2-0.1-0.2-0.5 0.1-0.5 25.4 3.3 49.2-6.6 72.8-14.7 21.8-7.4 45.3-15.6 68.6-11 0.3 0.1 0.1 0.5-0.1 0.5z"/>
				</g>
			</g>
			<g id="&lt;Group&gt;">
				<path id="&lt;Path&gt;" class="s1" d="m207.4 95.5c1.9 1.2 5.9 8.8 2.7 10.6 2-1.1 4.1-2.3 6.4-2 2.2 0.4 4.2 3 3.1 4.9-0.9 1.5-2.9 1.8-4.7 1.8q-23.8 1-47.6 1.3-11.9 0.1-23.8 0c-4-0.1-8 0.1-11.9-0.2-2.3-0.1-6.1 0-8.1-1.1-2.5-1.4-2.7-5.5-0.4-7.2 2.3-1.7 6.1-0.2 6.7 2.6 0.3-4.2 3.1-8.1 7-9.7 3.9-1.7 8.7-1 12 1.6-1.2-3.3 0.7-7.5 4.1-8.7 3.3-1.3 7.5 0.7 8.7 4 1.1-2.7 4.1-4.4 7-4.1 2.9 0.3 5.4 2.8 5.8 5.6 1.2-6 7.8-10.5 13.9-9.2 6 1.2 10.4 7.9 9.1 14 1.2-4 6.4-6.6 10-4.2z"/>
				<g id="&lt;Group&gt;">
					<path id="&lt;Path&gt;" class="s2" d="m146.2 100.9c0.1 0.2-0.1 0.4-0.2 0.3-5.8-3.7-12.4-1.3-14.7 5.1 0 0.2-0.2 0.1-0.2 0 1.5-6.9 9.6-9.6 15.1-5.4z"/>
					<path id="&lt;Path&gt;" class="s2" d="m157.8 92.5c0.1 0.1 0 0.4-0.2 0.3-2.3-1.3-5.1-0.2-5.7 2.4-0.1 0.2-0.4 0.2-0.3 0 0.6-2.9 3.7-4.3 6.2-2.7z"/>
					<path id="&lt;Path&gt;" class="s2" d="m170.6 92.6c-2.8 0.3-5.1 0.7-7.1 2.9-0.1 0.1-0.2-0.1-0.1-0.2 1.6-1.9 4.6-3.6 7.2-2.9 0.2 0 0.1 0.2 0 0.2z"/>
					<path id="&lt;Path&gt;" class="s2" d="m169.8 94.9c-1.7 0-3.3 0.4-4.7 1.4-0.1 0.1-0.2-0.1-0.1-0.2 1.4-1 3.1-1.6 4.8-1.4 0.2 0 0.2 0.2 0 0.2z"/>
					<path id="&lt;Path&gt;" class="s2" d="m169.3 96.8q-0.3 0.3-0.7 0.6c-0.1 0.1-0.2-0.1-0.1-0.2q0.4-0.2 0.8-0.5c0 0 0.1 0.1 0 0.1z"/>
					<path id="&lt;Path&gt;" class="s2" d="m178 94.4c-0.1 0.1 0.1 0.2 0.1 0.1 2.2-4 6.6-5.6 10.8-3.8 3.6 1.5 5.2 4.6 6.2 8.2 0 0.2 0.4 0.2 0.4-0.1-0.9-8.8-13.2-13.5-17.5-4.4z"/>
					<path id="&lt;Path&gt;" class="s2" d="m191.7 95.1c0.8 1 1.5 2.2 1.6 3.5 0 0.1-0.2 0.1-0.2 0-0.4-1.2-0.8-2.3-1.7-3.2-0.1-0.2 0.1-0.5 0.3-0.3z"/>
					<path id="&lt;Path&gt;" class="s2" d="m199.6 100.5c-0.1 0.1-0.3-0.1-0.1-0.2 2.1-1.9 5.2-2.4 7.7-0.8 0.1 0.1 0 0.3-0.1 0.2-2.5-1.2-5.3-1-7.5 0.8z"/>
					<path id="&lt;Path&gt;" class="s2" d="m207.6 100.9c0.1 0.1 0.1 0.2-0.1 0.2-1.4-0.6-2.9-0.7-4.4-0.2-0.1 0-0.2-0.2 0-0.2 1.5-0.6 3.1-0.5 4.5 0.2z"/>
					<path id="&lt;Path&gt;" class="s2" d="m206.7 102.6c0.1 0 0.1 0.2 0 0.1q-0.8-0.4-1.6-0.4c-0.2 0-0.2-0.2 0-0.2q0.9 0 1.6 0.5z"/>
					<path id="&lt;Path&gt;" class="s2" d="m216.8 109.4c-0.1 0.2-0.3 0.2-0.3 0-0.3-1.8-1.9-3.1-3.8-2.5-0.2 0.1-0.2-0.2 0-0.3 1.9-0.7 4.2 0.6 4.1 2.8z"/>
					<path id="&lt;Path&gt;" class="s2" d="m126.3 104.7c-1.8 0-3.1 1.6-2.7 3.3 0 0.2-0.3 0.3-0.3 0.1-0.5-2 1-3.7 3-3.6 0.2 0 0.2 0.2 0 0.2z"/>
				</g>
			</g>
			<g id="&lt;Group&gt;">
				<path id="&lt;Path&gt;" class="s1" d="m689.5 56c2.7 0.5 5.4 2.9 5.8 5.7 0.5 3-2.6 3.9-5.2 4.5-8.6 1.9-17.3 1.9-26.1 2.6q-14.4 1.1-28.8 1.5c-18.8 0.5-37.6 0.1-56.4-1.3-7-0.5-30.7-0.2-27.4-12.4 0.9-3.3 4.6-5.6 7.9-4.8 2.2 0.5 3.9 2.3 4.7 4.3 0.3-3.5 2.6-6.9 5.9-8.3 4.4-1.9 10 0 12.4 4.1-0.8-3.9 2.2-8.2 6.1-8.7 3.3-0.4 6.7 1.8 7.8 4.9-1.6-9.1 2.1-19.1 9.4-24.8 7.8-6.2 19.2-7.3 28-2.7 6.8 3.5 11.7 10.2 13.3 17.6 1.3-3.3 4.5-6.2 8.2-6.5 11.2-1.1 17.6 12.8 16 22.2 1.7-1.8 4.7-2.1 6.7-0.6 2 1.5 2.6 4.5 1.4 6.6 2.7-2.7 6.5-4.6 10.3-3.9z"/>
				<g id="&lt;Group&gt;">
					<path id="&lt;Path&gt;" class="s2" d="m561.4 55.8c0.2 0.2 0 0.5-0.3 0.5-1.6-0.5-3.3-0.8-4.9 0.1-1.6 1-2.3 3-2.1 4.9 0 0.1-0.2 0.2-0.2 0-0.5-1.9 0.1-4 1.8-5.3 1.6-1.2 4.1-1.5 5.7-0.2z"/>
					<path id="&lt;Path&gt;" class="s2" d="m560.3 57.6c-1.7 0.4-3 0.6-4.3 1.9-0.2 0.2-0.4-0.1-0.3-0.2 1.1-1.3 2.9-2.4 4.6-2 0.2 0 0.2 0.3 0 0.3z"/>
					<path id="&lt;Path&gt;" class="s2" d="m579.1 50.5c-5.1-1.6-12.7 0.3-13.3 6.5 0 0.1 0.3 0.2 0.3 0 0.6-2.8 2.8-4.7 5.4-5.6 2.6-0.7 5-0.2 7.5-0.4 0.3 0 0.4-0.4 0.1-0.5z"/>
					<path id="&lt;Path&gt;" class="s2" d="m576.8 52.7c-2.7 0.6-5.2 1-7.7 2.5-0.1 0-0.2-0.2-0.1-0.3 2.2-1.5 5.1-2.8 7.8-2.6 0.2 0 0.3 0.4 0 0.4z"/>
					<path id="&lt;Path&gt;" class="s2" d="m577 54.3c-2.1 0.3-4 0.9-5.7 2.3-0.1 0.2-0.3 0-0.1-0.1 1.5-1.5 3.6-2.6 5.8-2.6 0.2 0 0.2 0.4 0 0.4z"/>
					<path id="&lt;Path&gt;" class="s2" d="m584.1 52.5c0.1 0.2 0.4 0.1 0.4-0.1-1-2.6 2.1-4.5 4.2-4.9 1.7-0.3 3 0.5 4.7 0.6 0.2 0 0.3-0.3 0.2-0.4-2.6-3.5-11.5 0.3-9.5 4.8z"/>
					<path id="&lt;Path&gt;" class="s2" d="m591.1 50.7c0.2 0.1-0.1 0.3-0.2 0.2-0.8-0.4-1.8-0.6-2.5 0.2-0.1 0.2-0.4-0.1-0.2-0.3 0.7-0.9 2.2-1.1 2.9-0.1z"/>
					<path id="&lt;Path&gt;" class="s2" d="m613.4 25.4c-8.7 3.8-14 13.1-13.2 22.6 0 0.2 0.3 0.2 0.3 0-0.2-8.8 4.6-17.5 12.6-21.4 4.1-1.9 8.8-2.4 13.3-1.6 4.6 0.9 7.9 3.2 11.6 6 0.5 0.3 1-0.2 0.6-0.7-5.7-7-17.3-8.3-25.2-4.9z"/>
					<path id="&lt;Path&gt;" class="s2" d="m624.7 32.4c-4.9 0-9.4 0.3-13.2 3.9-3.6 3.3-5.3 8.1-5 12.9 0 0.3-0.4 0.3-0.4 0.1-0.7-5.1 0.8-10.3 4.6-13.8 3.5-3.3 9.4-5.5 14.1-3.8 0.4 0.1 0.3 0.7-0.1 0.7z"/>
					<path id="&lt;Path&gt;" class="s2" d="m619.1 38c-3.4 1.3-6.2 3.2-7.8 6.6 0 0.1-0.3 0-0.2-0.1 1.3-3.4 4.2-6.4 7.9-7 0.3-0.1 0.4 0.4 0.1 0.5z"/>
					<path id="&lt;Path&gt;" class="s2" d="m621.9 41c-1.2 0.3-2.3 1.1-3.1 2.2-0.1 0.2-0.4 0-0.3-0.2 0.8-1.2 1.9-2.1 3.3-2.5 0.3 0 0.4 0.4 0.1 0.5z"/>
					<path id="&lt;Path&gt;" class="s2" d="m667.6 56.4c-0.2 0.4-1 0.4-0.9-0.1 0.7-6.3 1.2-12.8-3.7-17.6-4.6-4.4-12.5-4.4-15.7 1.6-0.1 0.3-0.4 0.1-0.3-0.1 2.7-5.8 10-7.3 15.2-3.9 6.4 4.2 8.1 13.2 5.4 20.1z"/>
					<path id="&lt;Path&gt;" class="s2" d="m658.6 44.2c3 3.5 5.1 8.6 3.8 13.2-0.1 0.3-0.6 0.2-0.6-0.1 0.1-4.8-0.4-8.9-3.4-12.9-0.1-0.2 0.1-0.4 0.2-0.2z"/>
				</g>
			</g>
			<g id="&lt;Group&gt;">
				<path id="&lt;Path&gt;" class="s1" d="m0.3 116.5c4.8-3.3 11.1-5 20.6-5 7.5 2.1 13.5 8.6 14.9 16.3 1.4 7.6-1.9 15.9-8.1 20.5 9.1-2.6 19 4.8 21.5 13.9 2.6 9.2-0.7 19.1-5.7 27.1 16.9-5.1 36.9 3.8 44.4 19.7-1.9-10.7 7.2-22 18.1-22.4 10.8-0.4 20.7 10.3 19.5 21.1 12-18.1 37.9-0.4 34.9 17.7 8.4-1.2 17.3 2.4 22.5 9.1 5.2 6.7 6.5 16.2 3.3 24 7.6-4.9 16.1-10.1 25.1-9.1 9 1 17 11.8 11.9 19.3-2.7 3.9-7.6 5.3-12.2 6.5-121.1 30.7-247.4 40.7-371.7 29.4-11.7-1.1-26-4.5-28.6-15.9-2.1-9.3 5.9-18.4 15-21.1 9.1-2.6 18.9-0.5 28.1 1.5-3.3-14 1.4-29.7 11.8-39.6 10.5-10 26.4-13.8 40.3-9.7-4.9-9.2-3.9-21.2 2.4-29.5 6.2-8.2 17.4-12.5 27.6-10.4-3.9-12.5 0.5-27.2 10.6-35.5 10.1-8.4 25.3-10 36.9-3.9 6.3-11.2 10.2-19.3 16.9-24z"/>
				<path id="&lt;Path&gt;" class="s2" d="m80.9 214.2c-0.1 0.2-0.5 0.2-0.5-0.1-0.2-2-1-3.7-2.3-5.2-1.2-1.4-2.8-2.6-4.3-3.6-11.3-7.6-25.9-9.5-38.8-5.3-0.2 0-0.2-0.3 0-0.3 3.7-1.5 7.6-2.3 11.6-2.7 7.1-0.8 14.4 0.5 20.8 3.3 3.3 1.4 6.4 3.1 9.2 5.3 2.4 1.9 5.5 5.2 4.3 8.6z"/>
				<path id="&lt;Path&gt;" class="s2" d="m65.3 214.7c-0.1 0.1-0.4 0.2-0.4 0-0.4-0.7-0.7-1.3-1.2-1.9-0.5-0.5-1.2-0.9-1.8-1.3-1.6-0.9-3.3-1.5-5-2.1-3.7-1.3-7.5-2.2-11.3-2.8-0.2 0-0.2-0.4 0.1-0.4 4.2 0.5 8.4 1.4 12.5 2.8 1.7 0.5 3.6 1.1 5.1 2.2 1.1 0.8 2.3 2 2 3.5z"/>
				<path id="&lt;Path&gt;" class="s2" d="m34 174.7c-0.2 0.4-0.7 0.2-0.6-0.2 0.7-4-1.1-8-4.4-10.4-3.5-2.7-8.3-3.5-12.6-3.8-0.2 0-0.2-0.3 0-0.3 4.7 0.1 9.7 0.6 13.5 3.6 3.2 2.5 5.8 7.1 4.1 11.1z"/>
				<path id="&lt;Path&gt;" class="s2" d="m22.7 142.1c0 0.2-0.3 0.3-0.4 0.1-0.4-0.6-0.6-1.3-1-1.9q-0.5-1-1.2-1.9c-0.9-1.1-1.9-2-3-2.8-2.4-1.7-5.2-2.6-8.1-2.5-0.2 0-0.2-0.4 0-0.4 3-0.1 6 0.8 8.5 2.5q1.8 1.3 3.2 3c0.8 1.1 1.8 2.5 2 3.9z"/>
				<path id="&lt;Path&gt;" class="s2" d="m154.1 217.7c0 0.3-0.4 0.5-0.5 0.2-0.6-1-1.1-1.9-1.7-2.9-0.6-0.9-1.4-1.7-2.3-2.4-1.7-1.4-3.8-2.4-6-2.9-5.4-1.3-11.2 0.2-16.3 2.3-0.2 0.1-0.3-0.2-0.1-0.2 2.4-1.1 4.8-2.1 7.4-2.7 4.1-0.9 8.5-0.9 12.4 0.9 3.1 1.4 6.5 4.1 7.1 7.7z"/>
			</g>
			<g id="&lt;Group&gt;">
				<g id="&lt;Group&gt;">
					<path id="&lt;Path&gt;" class="s4" d="m72.5 237.2q0-25.1 1.4-50.1c0-1.1 1.6-2.2 2.7-2 1.1 0.2 1.9 1.2 2.3 2.2 0.4 1 0.4 2.2 0.4 3.3q0.1 21.5 0.2 43.1c0 1.7-0.1 3.8-1.5 4.8-1.7 1.1-3.7-0.2-5.5-1.3z"/>
					<path id="&lt;Path&gt;" class="s4" d="m86.8 236q0.1-25 1.4-50.1c0-1.1 1.6-2.1 2.7-1.9 1.1 0.2 2 1.1 2.3 2.1 0.4 1.1 0.4 2.2 0.4 3.3q0.1 21.6 0.2 43.1c0.1 1.8-0.1 3.8-1.5 4.8-1.7 1.2-3.7-0.2-5.5-1.3z"/>
					<path id="&lt;Path&gt;" class="s4" d="m101.1 234.9q0.1-25.1 1.4-50.2c0.1-1.1 1.7-2.1 2.8-1.9 1 0.2 1.9 1.1 2.3 2.2 0.3 1 0.4 2.1 0.4 3.2q0.1 21.6 0.2 43.2c0 1.7-0.2 3.7-1.6 4.7-1.7 1.2-3.7-0.2-5.5-1.2z"/>
					<path id="&lt;Path&gt;" class="s4" d="m115.5 233.7q0-25.1 1.3-50.1c0.1-1.1 1.7-2.1 2.8-2 1.1 0.2 1.9 1.2 2.3 2.2 0.4 1 0.4 2.2 0.4 3.3q0.1 21.6 0.2 43.1c0 1.8-0.1 3.8-1.6 4.8-1.7 1.1-3.7-0.2-5.4-1.3z"/>
					<path id="&lt;Path&gt;" class="s4" d="m129.8 232.5q0-25 1.4-50.1c0-1.1 1.6-2.1 2.7-1.9 1.1 0.2 1.9 1.1 2.3 2.2 0.4 1 0.4 2.1 0.4 3.2q0.1 21.6 0.2 43.2c0 1.7-0.1 3.7-1.5 4.7-1.7 1.2-3.8-0.2-5.5-1.3z"/>
					<path id="&lt;Path&gt;" class="s4" d="m144.1 231.4q0-25.1 1.4-50.1c0-1.1 1.6-2.2 2.7-2 1.1 0.2 1.9 1.2 2.3 2.2 0.4 1 0.4 2.2 0.4 3.3q0.1 21.5 0.2 43.1c0 1.7-0.1 3.8-1.5 4.7-1.7 1.2-3.7-0.2-5.5-1.2z"/>
					<path id="&lt;Path&gt;" class="s4" d="m158.4 230.2q0.1-25.1 1.4-50.1c0.1-1.1 1.7-2.1 2.7-1.9 1.1 0.2 2 1.1 2.4 2.1 0.3 1.1 0.3 2.2 0.4 3.3q0.1 21.6 0.2 43.1c0 1.8-0.2 3.8-1.6 4.8-1.7 1.2-3.7-0.2-5.5-1.3z"/>
					<path id="&lt;Path&gt;" class="s4" d="m172.8 230.2q0-25.1 1.3-50.1c0.1-1.1 1.7-2.1 2.8-1.9 1.1 0.2 1.9 1.1 2.3 2.1 0.4 1.1 0.4 2.2 0.4 3.3q0.1 21.6 0.2 43.1c0 1.8-0.1 3.8-1.6 4.8-1.7 1.2-3.7-0.2-5.4-1.3z"/>
					<path id="&lt;Path&gt;" class="s4" d="m187.1 229.5q0-25.1 1.3-50.2c0.1-1.1 1.7-2.1 2.8-1.9 1.1 0.2 1.9 1.1 2.3 2.2 0.4 1 0.4 2.1 0.4 3.2q0.1 21.6 0.2 43.2c0 1.7-0.1 3.7-1.6 4.7-1.6 1.2-3.7-0.2-5.4-1.2z"/>
					<path id="&lt;Path&gt;" class="s4" d="m201.4 230q0-25 1.4-50.1c0-1.1 1.6-2.1 2.7-1.9 1.1 0.2 1.9 1.1 2.3 2.1 0.4 1.1 0.4 2.2 0.4 3.3q0.1 21.6 0.2 43.1c0 1.8-0.1 3.8-1.5 4.8-1.7 1.2-3.7-0.2-5.5-1.3z"/>
					<path id="&lt;Path&gt;" class="s4" d="m71.3 181.7c4.3-8.1 9.3-15.7 14.8-22.9 2.4-3.1 7-3.1 10.8-3.4 31.5-1.7 62.9-2.8 94.4-2.5 7.7 6.7 14.6 14.7 18 24.4-45.5 2-92.5 3.5-138 4.4z"/>
					<path id="&lt;Path&gt;" class="s4" d="m66.9 188.6q0.2-3.7 0.5-7.3c0.1-1.1 1-2.1 2.1-2.1 66-3.9 93.6-5.3 140.4-4.5 0.6 0 1.3 0.7 1.9 1 0.3 2.3 0.4 5.4 0 7.7-42.6 1.7-84.6 3.6-127.2 5.4-4.5 0.2-9.9 0.1-14.5 0.6-0.9 0-3.3 0.2-3.2-0.8z"/>
					<path id="&lt;Path&gt;" class="s2" d="m204.3 175.3c-9.5 0.1-19-0.2-28.5-0.2-16.6 0-33.3 0.4-50 1-16.7 0.6-33.4 1.6-50.1 2.4-0.1 0-0.1-0.1 0-0.1 9.5-0.8 18.9-1.4 28.4-1.9q25-1.2 50.1-1.7c8.3-0.1 16.6-0.1 24.9-0.2 8.4-0.1 16.8-0.1 25.2 0.2 0.3 0 0.3 0.5 0 0.5z"/>
					<path id="&lt;Path&gt;" class="s2" d="m189.4 155.9c-0.1 1.6-1.1 3.3-1.7 4.9q-1 2.3-2 4.5c-1.4 3.3-2.9 6.6-4.5 9.7-0.2 0.3-0.6 0.1-0.5-0.2 1.4-3.2 2.9-6.3 4.3-9.5q1.1-2.5 2.1-5.1c0.6-1.4 1.1-3.1 2-4.4 0.1-0.1 0.4-0.1 0.3 0.1z"/>
				</g>
				<g id="&lt;Group&gt;">
					<path id="&lt;Path&gt;" class="s4" d="m-18.3 262.2c4.3-8.5 12.3-14.8 27.2-17.1 35.9-5.5 71.9-12.3 107.9-16.5 34.3-4.1 69.6-1.1 104-1.1 32.6-0.2 64.4-3.8 96.7-7.1 7.7-0.7 9.6-3.4 12.9 2.9 2.6 4.9-2 20.7-2.9 26.1-2.6 16.6-6.5 32.9-11.8 48.8-5.3 15.8-12.4 31.8-25.7 41.8-16.5 12.3-38.9 12.6-59.6 12.3q-103.8-1.4-207.6-2.7c-25.4-0.3-39.2-3.7-45-30.5-3.7-17.3-4.2-40.6 3.9-56.9z"/>
					<path id="&lt;Path&gt;" class="s2" d="m312.7 240.6c0.1 2.6-0.7 5.4-1.2 7.9q-0.8 4.1-1.6 8.2c-4.1 19.2-8.2 38.2-13.2 57.1-0.1 0.3-0.5 0.2-0.4-0.1 1.3-5.4 2.5-10.9 3.8-16.3q3.4-14.3 6.4-28.6c1-4.7 1.9-9.5 2.8-14.3q0.7-3.6 1.4-7.2c0.4-2.2 0.6-4.7 1.5-6.8 0.1-0.3 0.5-0.1 0.5 0.1z"/>
					<path id="&lt;Path&gt;" class="s2" d="m300.1 252c-0.1 2.9-1 5.9-1.5 8.8q-0.8 4.4-1.7 8.8-1.7 9-3.4 18c-0.1 0.2-0.4 0.1-0.4-0.1q1.6-8.9 3.1-17.9 0.8-4.5 1.6-9c0.5-2.9 0.8-5.9 1.7-8.7 0.1-0.4 0.6-0.3 0.6 0.1z"/>
					<path id="&lt;Path&gt;" class="s2" d="m216.7 250.3c0.1 3.3-0.6 6.6-1 9.9q-0.5 4.6-1 9.3l-2.2 19.2c0 0.3-0.6 0.3-0.5 0l1.9-19.5q0.5-4.7 1.1-9.5c0.3-3.1 0.4-6.4 1.1-9.5 0.1-0.3 0.6-0.2 0.6 0.1z"/>
					<path id="&lt;Path&gt;" class="s2" d="m230.4 249.3c-0.9 3.8-1.9 7.6-2.6 11.4q-1.1 6-1.6 12.1c0 0.4-0.7 0.4-0.6 0q0.4-5.9 1.4-11.8c0.7-4 1.6-8.1 3-11.9 0.1-0.2 0.5-0.1 0.4 0.2z"/>
					<path id="&lt;Path&gt;" class="s2" d="m98.4 259.6c0 0.4-0.5 0.4-0.5 0 0.1-5.1 0.1-10.3 0.5-15.4 0-0.2 0.3-0.2 0.3 0 0.1 5.1-0.1 10.3-0.3 15.4z"/>
				</g>
			</g>
			<g id="&lt;Group&gt;">
				<path id="&lt;Path&gt;" class="s1" d="m15.7 268.7c9.2-0.9 19.2 2.4 25.2 8.8 6.2-4.3 16-1.2 18.6 5.8 7.8-6.9 21.3-5.9 28.1 2.1 1.4-6 6.8-10.8 13-11.4 6.1-0.6 12.4 2.9 15 8.5 8.8-4.4 20.1-2.9 27.4 3.5-5.2-7.4-0.7-19 7.8-22.2 8.4-3.3 18.6 1.1 23.5 8.6 5 7.5 5.4 17.5 2.6 26.1 2.4-5.6 10.2-7.9 15.2-4.5 5 3.4 5.8 11.5 1.5 15.8 10-4.9 23.2-2 30.1 6.6 10.9-20.6 45.5-8.7 42 14.1 4.5-2.5 9.3-5.1 14.5-5 5.2 0.1 10.7 3.9 10.6 9.1 0 6.6-8 9.8-14.4 11.1-56.6 11.4-114.9 7.8-172.5 4.1q-76.4-4.9-152.8-9.8c-6.3-0.4-14-1.8-16.1-7.8-2.1-6.1 4.1-12.5 10.5-13.2 6.4-0.7 12.6 2.4 18.3 5.4-8.5-3.9-8.4-18.5 1.7-20.3 2.9-0.5 6 0.6 7.9 2.8-1.4-1-2-3-1.8-4.7 0.2-1.8 1.1-3.4 2.3-4.8 4.9-6.2 14-8.6 21.4-5.7-0.5-5.4 1.3-10.9 4.7-15.1 4-4.7 9.7-7.2 15.7-7.9z"/>
				<path id="&lt;Path&gt;" class="s2" d="m248.8 315.3c-0.7 0-1.3-0.3-1.9-0.5q-1-0.3-2-0.5c-1.3-0.2-2.7-0.3-4-0.2-2.8 0.1-5.6 1.2-7.9 2.7-0.1 0.1-0.3-0.1-0.2-0.2 2.3-1.9 5.1-2.9 8-3.3 1.4-0.1 2.9-0.1 4.3 0.1q1.2 0.2 2.3 0.6c0.6 0.2 1.2 0.4 1.6 0.9 0.1 0.2-0.1 0.4-0.2 0.4z"/>
				<path id="&lt;Path&gt;" class="s2" d="m159 272.5c-1.8-0.6-3.4 1.1-4.4 2.4-1.1 1.3-1.8 2.9-2.3 4.5-1 3.3-0.8 6.9 0.7 10.1 0.1 0.1-0.2 0.3-0.3 0.1-1.7-3.4-2-7.5-0.9-11.1 0.6-1.8 1.4-3.6 2.7-5 1.1-1.3 3-2.6 4.6-1.4 0.2 0.1 0.1 0.4-0.1 0.4z"/>
				<path id="&lt;Path&gt;" class="s2" d="m168.6 276.2c-1 0.3-2 0.4-3 0.9-0.9 0.4-1.8 1-2.5 1.8-1.5 1.6-2.2 3.8-2 6 0 0.2-0.4 0.2-0.4 0-0.3-2.4 0.4-4.7 1.9-6.5 0.8-0.8 1.7-1.5 2.8-2 0.9-0.5 2.1-0.9 3.2-0.7 0.3 0 0.2 0.5 0 0.5z"/>
				<path id="&lt;Path&gt;" class="s2" d="m106.1 285.1c-1 0.2-2-0.1-3 0-1 0-2.1 0.3-3 0.6-2.1 0.7-3.9 2-5.2 3.7-0.1 0.2-0.3 0-0.2-0.1 1.1-1.9 2.9-3.5 5-4.3q1.5-0.7 3.2-0.9c1.1-0.1 2.4-0.1 3.3 0.5 0.2 0.1 0.2 0.5-0.1 0.5z"/>
				<path id="&lt;Path&gt;" class="s2" d="m26.2 277.2c-1.2 0.4-2.5 0.1-3.6 0-1.2 0-2.4 0-3.6 0.1-4.4 0.5-8.6 2-12.3 4.2-3.7 2.2-8 5.6-8.5 10.2 0 0.2-0.2 0.2-0.2 0 0-2.6 1.4-4.9 3.1-6.7 3.1-3.5 7.2-6.1 11.6-7.6 2.2-0.7 4.5-1.1 6.8-1.3q1.7-0.2 3.5-0.1c1.1 0 2.3 0 3.2 0.7 0.2 0.1 0.2 0.4 0 0.5z"/>
				<path id="&lt;Path&gt;" class="s2" d="m25.9 282.6c-1 0.3-2 0.3-3 0.5q-1.4 0.2-2.8 0.6-3 0.7-5.7 1.9c-0.2 0.1-0.4-0.2-0.2-0.3 1.8-1 3.7-1.8 5.7-2.4q1.5-0.5 3.1-0.8c0.9-0.1 1.9-0.4 2.9-0.2 0.3 0.1 0.2 0.5 0 0.7z"/>
			</g>
			<g id="&lt;Group&gt;">
				<g id="&lt;Group&gt;">
					<path id="&lt;Path&gt;" class="s2" d="m764.6 88c2.4-1.6 5.6-1.4 7.7 0.8 1.9 2 2.3 5.5 0.2 7.5-0.4 0.4-0.9 0-0.8-0.5 0.3-2 0.4-4.2-1-5.8-1.4-1.6-3.8-2.1-5.8-1.5-0.4 0.1-0.6-0.4-0.3-0.5z"/>
				</g>
			</g>
		</g>
		<g id="&lt;Clip Group&gt;">
			<g id="&lt;Group&gt;">
				<path id="&lt;Path&gt;" class="s4" d="m462.7 278.2c51.6-6.4 104-5 155.5-11.7 39.2-5.2 77.6-15 114.9-28.1 8.7-3.1 20.1-5.5 25.6 1.8 3.2 4.1 2.9 9.8 2.5 14.9q-2.7 37.9-5.5 75.7c-1 12.8-2.7 27.3-13 35.1-6.5 5-15.2 6.1-23.4 7-71.1 8-142.9 16-214.1 8.6-47.6-4.9-94.3-16.7-139.8-31.2-11.5-3.6-23.2-7.1-34.4-11.4-14.2-5.4-0.1-12.6 7.4-17.9 17-12 36-20.9 55.7-27.6 22.2-7.6 45.4-12.2 68.6-15.2z"/>
				<path id="&lt;Compound Path&gt;" class="s2" d="m745.7 271.6c5-2.2 9.9-4.6 14.8-6.8q0 0.4 0 0.9c-5.4 2.8-11 5.2-16.5 7.6-21.5 9.2-44 16.7-66.9 21.5-0.3 0.1-0.4-0.3-0.1-0.3q9.6-2.4 19.1-5.1c11.3-3.2 22.4-7 33.3-11.2q8.3-3.1 16.3-6.6zm15.8-21q-0.1 0.5-0.1 1c-4.2 2-8.5 3.8-12.7 5.7q-9.7 4.1-19.6 7.8c-23.9 9-48.5 16-73.5 20.9-24.8 5-50.1 7.9-75.5 8.5-0.2 0-0.2-0.3 0-0.3 14.2-0.6 28.4-1.8 42.5-3.6 25-3.1 49.9-8.3 74.1-15.5q18.3-5.4 36-12.2 8.9-3.5 17.7-7.3c3.7-1.6 7.4-3.3 11.1-5zm-154.3 28.1c-26.5 2.6-53 3.1-79.6 4.2-25.7 1-51.4 2.5-76.8 6.7-24.3 4.2-47.9 10.9-70.1 21.5-0.2 0.1-0.4-0.2-0.2-0.3q3.9-2.1 8-3.9c22.2-9.9 45.9-15.8 69.9-19.3 25.3-3.8 50.8-5 76.4-5.9 26.5-1 53-1.7 79.4-4.7 25.1-2.8 50-7.5 74.4-14q18.3-4.9 36.3-11c11.2-3.9 22.1-8.3 33.1-12.6q0.3 0.2 0.5 0.5-3.1 1.4-6.2 2.7c-23.3 9.5-47.3 17.3-71.7 23.4-24.1 6-48.7 10.2-73.4 12.7z"/>
			</g>
			<g id="&lt;Group&gt;">
				<path id="&lt;Path&gt;" class="s5" d="m107.5 308.6c42.2 9.3 83.7 23.9 126.8 26.2 60.7 3.3 119.7-17.7 179.9-26.1 101.2-14.1 204.3 8.1 300.5 42.7 14.5 5.2 29.1 10.9 41.3 20.3 29.3 22.8 31.3 73.1 26.9 107.5-2.1 16.6-7.3 34.3-20.9 44.1-12.1 8.9-28.1 9.6-43.1 9.9-68.8 1.3-137.6 1.6-206.3 0.7-80.3-1.2-160.5-5.3-240.8-6.1-82.3-0.8-164.5-3.5-246.8-6.2-15.2-0.5-31.6-1.4-43.3-11.2-16.6-13.9-16.4-39.2-14.7-60.8 3-39.4 3.9-79.5 9.1-118.7 3.9-30.1 46.6-30.2 70.5-30 20.7 0.2 40.7 3.8 60.9 7.7z"/>
				<path id="&lt;Path&gt;" class="s2" d="m337.4 332.7q-4.2 1.4-8.5 2.7c-22.5 6.6-45.9 10.3-69.3 11.4-23.6 1.2-47.4-0.4-70.6-4.7-23.9-4.5-47.2-11.6-70.7-17.8-22.6-6-45.5-11.3-69-12.4-22.7-1-45.5 2-66.5 10.9-0.3 0.1-0.5-0.3-0.2-0.4q3.5-1.7 7.2-3.1c20.7-8 43.4-9.7 65.5-8.1 23.3 1.7 46.1 7.2 68.6 13.3 23.6 6.4 47.2 13.4 71.3 17.4 23.7 3.9 47.7 5 71.6 3.3 23.9-1.8 47.5-6.4 70.4-13.3 0.6-0.2 0.8 0.7 0.2 0.8z"/>
				<path id="&lt;Path&gt;" class="s2" d="m238.9 356c-16.9 1.2-33.8-0.4-50.5-3.3-30.1-5.4-59.1-15.2-89-21.8-14.8-3.4-29.9-5.9-45.1-6.8-7.5-0.5-15-0.5-22.6 0-7.6 0.5-15.2 1.7-22.7 3.1-0.3 0.1-0.4-0.3-0.1-0.3 16.1-4.5 33.5-4.9 50.2-3.5 30.3 2.4 59.6 11.1 88.9 18.8 29.6 7.8 60 14.7 90.9 13 0.5 0 0.5 0.8 0 0.8z"/>
				<path id="&lt;Path&gt;" class="s2" d="m645.8 339.7q-3.3-1-6.6-2.1c-17.2-5.6-34.8-10.2-52.6-13.9-17.9-3.7-36.1-6.5-54.4-8.3-18.1-1.8-36.4-2.7-54.6-2.6-18.2 0.1-36.5 1.2-54.6 3.2-18.3 2-36.3 5.2-54.4 8.6-0.2 0.1-0.3-0.3-0.1-0.4 2.2-0.5 4.5-1.1 6.7-1.6 17.8-3.8 35.8-6.6 53.9-8.4 18.3-1.9 36.7-2.7 55.2-2.6 18.3 0.2 36.6 1.3 54.8 3.3 18.1 2.1 36.1 5 53.8 9q13.5 2.9 26.8 6.6c8.9 2.5 17.8 5.1 26.4 8.2 0.6 0.2 0.3 1.2-0.3 1z"/>
				<g id="&lt;Group&gt;">
					<path id="&lt;Path&gt;" class="s2" d="m320.7 347.7c25.9-10.1 53.3-17.9 80.9-21.9 27.1-3.8 54.8-6.1 82.1-4.4 0.4 0 0.4 0.6 0 0.6-28 0.1-55.7 1.3-83.4 6.2-27 4.8-53.5 11-79.6 19.8-0.2 0.1-0.3-0.3 0-0.3z"/>
				</g>
				<g id="&lt;Group&gt;">
					<path id="&lt;Path&gt;" class="s2" d="m422.2 333.9c14.9-2.9 30.9-5.3 46-3.9 0.9 0 0.9 1.3 0 1.3-15.4 0.8-30.5 0.6-45.9 3-0.3 0-0.4-0.4-0.1-0.4z"/>
				</g>
			</g>
			<g id="&lt;Group&gt;">
				<path id="&lt;Path&gt;" class="s2" d="m404.6 428.4c1.7-11.5 15.3-17.1 26.5-12.8 1.9-3.7 4.4-6 8.4-7.1 4-1.2 8.6-0.8 12.4 1.3 5-6.3 13.4-9.7 21.4-7.6-5.1-6.3-6.9-14.9-2.7-21.4 4.3-6.5 13.1-9.5 20.7-7.1 2.2-7.4 7.7-13.5 14.8-16.4 7.1-2.9 15.6-2.4 22.6 1.3 1.7 0.9 3.5 2 5.4 2 3.4-0.1 5.2-3.5 6.9-6.3 8.2-13.2 26.5-18.9 41.4-12.8 1.7-7.1 8.1-13.7 15-16 6.8-2.4 15-1 21.1 3.4 5-9.7 15.6-16 26.8-16 2.5 0 5.1 0.3 7.2 1.7 2.8 1.9 4.1 5.4 4.2 8.7 0.2 3.3-0.8 6.5-1.7 9.6 3.2-4.4 10.6-5.5 15.6-2.8 4.9 2.7 8 8.3 8.3 13.8 0.4 5.5-1.7 10.9-4.8 15.3 3.7-5.1 10.7-7.4 17-5.6 6.2 1.8 11.3 7.7 12.1 14.1 6.5-10.8 15.8-19.3 28.6-20.9 32.3-4.1 44.6 31.3 40.1 57.2-4.3 24.3-20.9 39.8-43.1 48.2-36.3 13.6-75 13.5-113.7 14.1-42.9 0.7-86.1-1.7-128.8-5.6-19.3-1.8-74.2 0.8-81.1-24.9-0.7-2.7-0.9-5.2-0.6-7.4z"/>
				<path id="&lt;Path&gt;" class="s5" d="m495.8 380.8c-2.1 0.7-4.1 1.3-5.8 2.6-3 2.2-5.1 5.6-5.5 9.5-0.4 4 0.9 8.2 3.6 11.3 0.1 0.1-0.1 0.3-0.1 0.2-1.7-1.8-2.9-4-3.6-6.3-1.1-4.1-0.6-8.4 1.7-11.9 2.1-3 5.8-5.8 9.6-5.9 0.3 0 0.4 0.4 0.1 0.5z"/>
				<path id="&lt;Path&gt;" class="s5" d="m500.1 387c-0.9 0.3-1.8 0.6-2.6 1.2-0.8 0.5-1.5 1.3-2 2-1.1 1.6-1.6 3.6-1.2 5.6 0 0.2-0.4 0.3-0.4 0.1-0.4-2.1 0-4.3 1.2-6 1.1-1.6 2.9-3.1 4.9-3.3 0.3 0 0.3 0.4 0.1 0.4z"/>
				<path id="&lt;Path&gt;" class="s5" d="m645.6 334.9c-1.8-1.6-4-2.3-6.3-2.4-7.8-0.3-15.2 4.2-18.3 11.2-0.1 0.1-0.3 0-0.3-0.1 0.9-2.2 2.1-4 3.6-5.7 2.6-3 6.5-5.2 10.4-6.1 2.1-0.4 4.2-0.6 6.3-0.2 2 0.3 4.1 1 5.3 2.8 0.3 0.5-0.3 0.8-0.7 0.5z"/>
				<path id="&lt;Path&gt;" class="s5" d="m759.5 373.5c-0.5-0.4-1.1-0.6-1.6-1q-0.7-0.6-1.5-1.1-1.6-1-3.2-2c-2.2-1.2-4.3-2.3-6.7-3.1-4.2-1.4-8.4-2.2-12.8-2.2-4.1 0-8.3 0.8-12.1 2.2-7.6 2.9-14 8.3-18 15.3-0.1 0.2-0.3 0-0.2-0.2 2.1-4.1 5.1-7.8 8.6-10.8 6.5-5.3 14.7-8.4 23.4-8.1 4.5 0.2 9 1.2 13.3 2.9 2.1 0.8 4.2 1.8 6.1 3q1.5 1 2.8 2.1 0.7 0.5 1.3 1.1c0.4 0.4 0.8 0.9 1.2 1.3 0.3 0.3-0.2 0.9-0.6 0.6z"/>
				<path id="&lt;Path&gt;" class="s5" d="m753.3 382.2c0 0.6-0.8 0.4-0.8-0.1-0.2-3-3.6-4-6.1-4.3-2.7-0.4-5.5-0.4-8.2-0.2-5.6 0.3-11.2 1.8-16.2 4.2-0.3 0.2-0.6-0.3-0.3-0.4 2.4-1.2 4.9-2.3 7.5-3.1 4.6-1.4 9.5-2.1 14.5-1.9 2.2 0.1 4.7 0.1 6.8 1.1 1.8 0.9 3.1 2.7 2.8 4.7z"/>
				<path id="&lt;Path&gt;" class="s5" d="m685.4 375.6c-0.2-0.1-0.2-0.4 0-0.4 0.9 0.1 1.5-0.8 1.3-1.6-0.1-0.8-0.8-1.5-1.4-1.9-1.5-1-3.1-1.8-4.7-2.4-3.4-1.5-7-2.4-10.7-2.7-0.2-0.1-0.2-0.4 0-0.4 4.6 0.2 9.2 1.4 13.4 3.4 1.5 0.8 3.9 1.8 4.2 3.7 0.2 1.2-0.8 2.7-2.1 2.3z"/>
				<path id="&lt;Path&gt;" class="s5" d="m667.7 357.1c0 0.1-0.2 0.2-0.3 0.1-1.8-2.7-4.1-4.6-7.1-5.6-3.5-1.2-7.3-1.1-10.9-1-0.2 0-0.2-0.4 0-0.4 3.9-0.2 7.9-0.5 11.6 0.9 2.8 1 5.7 3 6.7 6z"/>
			</g>
			<g id="&lt;Group&gt;">
				<path id="&lt;Path&gt;" class="s2" d="m491.4 517.9q-259-2.6-518-5.1c-8.6-0.1-17.7-0.3-25.4-4.6-7.8-4.3-13.6-14.2-10.2-21.9 2.6-5.8 9.5-8.4 16-7.7 5.9 0.6 11.4 3.5 16.5 6.8-5.5-4.4-5.8-13-2.4-18.2 4.2-6.5 15.3-8 22.5-5.2 5.6 2.1 10.2 6.8 12.3 12.4-2.8-7.6-0.4-16.4 5.7-21 6.1-4.5 15.4-4.3 22.1 0.4-13.3-8.5-21.4-24.4-20.9-39.6 0.4-15.2 9.2-29 22-36.3 7.8-4.4 17-6.4 26.2-6.1 7.4 0.3 17.7 1.3 24.7 4.5 7.7 3.5 14.5 9.4 19.5 16.3 3.8 5.2 10.5 16 9.3 22.6 1.8-9.8 17.6-12 23.2-3.2 13.8-11.6 39.5-4 46.6 13.8 7.7-6.9 19.2-9.3 29.7-6.2 10.5 3.1 19.5 11.6 23.4 21.9 5.4-12.2 23.4-16.1 34.7-7.3 7.7-14.5 31.9-15.2 42.4-1.3-12.5-20.4-0.6-49.7 21.8-53.9 11.4-2.1 23.5 2.7 32.3 10.8 10.8 9.9 13.5 21.1 13.5 34.5 1.4-4.5 6.4-7.2 11.2-6.9 4.9 0.4 9.5 3.1 13.1 6.6 9.8 9.5 13.1 25.1 7.6 36.6 2.8-5.9 17.1 0 20.5 2.9 6.6 5.7 11.4 14.8 7 22.7 5.2-8.1 16.5-11.5 26-7.9 9.5 3.6 16.5 13.8 16.1 23.8 0.1-2.3 8.6-2.4 10-2.2 3.9 0.4 8.2 2.1 11.1 5.1 8.1 8.1-3 13-10.1 12.9z"/>
				<g id="&lt;Group&gt;">
					<path id="&lt;Path&gt;" class="s5" d="m86 380.6c-17.3-8.7-41.6-3-56.2 8.4-14.2 11.2-23.6 33.2-8.5 47.8 0.2 0.2 0.5-0.1 0.3-0.3-15.2-16-3.1-38.6 12.4-48.9 7.5-4.9 16.2-8 25-9.1 9.4-1.1 17.7 0.8 26.7 2.8 0.4 0.1 0.7-0.5 0.3-0.7z"/>
					<path id="&lt;Path&gt;" class="s5" d="m72 392.2c-11.5-4.9-27.2 0.8-35.6 9.1-9.8 9.8-12.8 24.8-8.4 37.8 0.1 0.2 0.4 0.1 0.4-0.1-3.8-12.7-0.7-27.3 9-36.7 4.4-4.3 9.9-7.4 15.9-8.9 6.4-1.6 12-0.7 18.4-0.2 0.5 0.1 0.8-0.8 0.3-1z"/>
					<path id="&lt;Path&gt;" class="s5" d="m48 409.8c-4.1 1.8-7.5 4.7-9.3 8.9-0.1 0.2-0.4 0.1-0.3-0.1 1.6-4.3 5.1-7.9 9.5-9.2 0.3 0 0.4 0.3 0.1 0.4z"/>
					<path id="&lt;Path&gt;" class="s5" d="m130 415.6c-11.8-4.6-23.9 6-25.4 17.4 0 0.1 0.2 0.1 0.2 0 1.1-5.5 4.1-10.7 8.9-13.8 5.2-3.3 10.4-3.1 16.2-2.7 0.6 0.1 0.6-0.7 0.1-0.9z"/>
					<path id="&lt;Path&gt;" class="s5" d="m127.8 421.5c-4.2-0.3-8 0.1-11.8 2.3-0.2 0.1-0.5-0.3-0.2-0.5 3.5-2.3 7.9-3.5 12.1-2.5 0.4 0.1 0.3 0.7-0.1 0.7z"/>
					<path id="&lt;Path&gt;" class="s5" d="m176.6 431.6c-0.1 0.5-0.9 0.5-1 0-0.8-4.1-1.2-7.5-4.1-10.7-2.5-2.9-5.8-4.6-9.4-5.6-8.2-2.2-16.7 0.5-24.2 3.7-0.2 0.1-0.5-0.3-0.2-0.4 8.5-4.2 18.3-7.4 27.6-3.8 6.3 2.4 13.2 9.5 11.3 16.8z"/>
					<path id="&lt;Path&gt;" class="s5" d="m231.3 451.4c-0.1 0.8-1.5 0.9-1.4 0 2.2-22.2-33.6-29.8-47.3-17.2-0.1 0.1-0.4-0.1-0.2-0.2 14.1-14 51.2-6 48.9 17.4z"/>
					<path id="&lt;Path&gt;" class="s5" d="m262.4 438.7c-8.2-2.8-16.1-1.9-21.5 5.6-0.1 0.1-0.4 0-0.3-0.2 4.6-7.2 14.4-10.9 22.1-6.2 0.4 0.3 0.1 1-0.3 0.8z"/>
					<path id="&lt;Path&gt;" class="s5" d="m295.2 430.8c-6.7-1.2-12.8-0.3-18 4.2-0.2 0.1-0.4-0.1-0.3-0.3 4.9-4.4 12-6.7 18.4-4.5 0.4 0.1 0.3 0.6-0.1 0.6z"/>
					<path id="&lt;Path&gt;" class="s5" d="m366.6 398.4c0.6 0.6-0.2 1.4-0.8 0.9-9.4-7.9-21.9-11.2-33.5-6.1-11.3 5.1-18.2 17-17.9 29.2 0 0.3-0.4 0.3-0.5 0-0.6-12.7 6.7-25.3 18.5-30.4 11.1-4.8 25.8-2.5 34.2 6.4z"/>
					<path id="&lt;Path&gt;" class="s5" d="m359.5 408.3c-0.2 0.4-0.9 0.1-0.7-0.3 1.3-4.5-6.1-6.8-9.1-7.6-3.1-0.8-6.2-0.9-9.4-0.7-0.4 0.1-0.4-0.5 0-0.5 5.2-0.6 10.4 0 15.2 2.3 2.7 1.2 6.2 3.6 4 6.8z"/>
					<path id="&lt;Path&gt;" class="s5" d="m340.6 411c-0.4 0.1-0.2 0.7 0.1 0.6 2.5-0.8 5.1-0.8 7.6 0 2.3 0.8 3.8 2.4 5.9 3.6 0.4 0.2 0.8-0.3 0.6-0.6-2.3-4.8-9.9-5.2-14.2-3.6z"/>
					<path id="&lt;Path&gt;" class="s5" d="m390.7 425.3c-3.2 0.6-6.3 1.5-8.9 3.4-0.3 0.3-0.6-0.2-0.4-0.4 2.5-2.6 5.6-4.3 9.2-4 0.5 0.1 0.7 0.8 0.1 1z"/>
					<path id="&lt;Path&gt;" class="s5" d="m28.3 456.4c-9.7-3.7-22.2 3.6-20 14.8 0.1 0.5 0.8 0.4 0.8-0.1 0.3-4.4 1.3-8.5 4.7-11.7 3.9-3.5 9.5-4.1 14.3-2.4 0.3 0.1 0.5-0.4 0.2-0.6z"/>
					<path id="&lt;Path&gt;" class="s5" d="m23.6 459.4c-5.6 1.7-9.9 5.4-9.1 11.7 0 0.3-0.4 0.3-0.5 0.1-1.3-6 2.7-13.3 9.4-12.8 0.6 0 0.8 0.9 0.2 1z"/>
					<path id="&lt;Path&gt;" class="s5" d="m-10.1 467.8c-7.4-0.1-12.6 5.5-13.1 12.7-0.1 0.3-0.6 0.3-0.6 0-0.4-7.7 6.2-13.5 13.7-13.2 0.3 0 0.3 0.5 0 0.5z"/>
					<path id="&lt;Path&gt;" class="s5" d="m-8.9 473.4c-3.1 0-5.9 1.5-7.4 4.2-0.1 0.3-0.6 0.1-0.4-0.2 1.4-2.9 4.5-4.9 7.8-4.5 0.3 0.1 0.3 0.5 0 0.5z"/>
					<path id="&lt;Path&gt;" class="s5" d="m-43.1 506.6c-12.3-2.5-12.3-19.2-1.2-23.4 0.3-0.1 0.4 0.3 0.1 0.4-11.1 4.7-9.1 18.5 1.3 22.3 0.4 0.1 0.3 0.7-0.2 0.7z"/>
				</g>
			</g>
			<g id="&lt;Group&gt;">
				<path id="&lt;Path&gt;" class="s5" d="m286.3 507l59.5-64.1c1.6-1.6 3.6-2.7 5.8-3 130.3-18.6 262.5-27.1 394-21.4 3.2 0.1 6.7 0.4 9.4 2.2 4.9 3.4 5.1 10.4 4.9 16.4q-1.2 26.3-2.5 52.7c-0.2 5.9-0.7 12.3-4.5 16.9-5.1 6.1-14.1 6.7-22.1 6.8q-195.3 2.6-390.6 5.1c-18.6 0.2-38.5-1.3-53.9-11.6z"/>
				<path id="&lt;Path&gt;" class="s6" d="m757.4 489.8c-0.2 5.9-0.7 12.3-4.5 16.9-5.1 6.1-14.1 6.7-22.1 6.8q-134.6 1.8-269.2 3.5-0.7-0.7-1.5-1.4c-3.3-3-6.6-6.1-9.8-9.2-1.5-1.4-3-2.8-4.5-4.3-1.2-1.2-2.2-2.5-2.6-4.2-0.5-1.9-0.1-4 1.3-5.3-4.3-1.2-8.5-2.4-12.7-3.6-8.2-2.4-16.5-4.7-24.9-6.6-4.2-1-8.5-2-12.8-3q-3-0.7-6.1-1.3c-2.1-0.4-4.5-0.6-6.4-1.4-0.3-0.2-0.5-0.5-0.3-0.8q0 0 0 0-0.1 0.1-0.3 0.1c-0.4 0.1-0.6-0.5-0.3-0.8 1.9-1.4 4-2.3 6.1-3.3q3-1.5 6.1-2.9c4-1.8 8-3.5 12.1-5.1q6.4-2.4 13-4.4c-7.6 0.8-15.2 1.2-22.9 1-7.5-0.1-15.2-0.7-22.7-1.7-5.7-0.8-11.6-2.1-16.5-5.3-4-2.6-8.2-7.4-7.6-12.5q1.6-0.8 3.3-1.1c130.3-18.6 262.5-27.1 394-21.4 3.2 0.1 6.7 0.4 9.4 2.2 4.9 3.4 5.1 10.4 4.9 16.4q-1.2 26.3-2.5 52.7z"/>
				<path id="&lt;Path&gt;" class="s2" d="m376.8 479.1c-1 1.8-2.8 3.4-4.3 4.9q-2.2 2.3-4.5 4.6-4.4 4.7-8.9 9.4-4.5 4.6-9 9.2c-1.6 1.6-3.1 3.2-4.7 4.8-1.5 1.4-2.9 3.1-4.6 4.2-0.1 0.1-0.2 0-0.2-0.1 1.2-1.9 2.8-3.4 4.3-5q2.1-2.4 4.4-4.7 4.4-4.7 8.9-9.4 4.5-4.6 8.9-9.3 2.4-2.4 4.7-4.8c1.4-1.5 2.8-3.3 4.5-4.3 0.4-0.2 0.7 0.2 0.5 0.5z"/>
				<path id="&lt;Path&gt;" class="s2" d="m379.7 485.8c-0.8 1.5-2.3 2.8-3.4 4.1q-1.7 2.1-3.5 4.1-3.6 4.1-7.3 8.2c-0.3 0.3-0.6-0.1-0.4-0.4q3.5-4.3 6.9-8.5 1.8-2.2 3.6-4.3c1.1-1.3 2.1-2.8 3.5-3.8 0.4-0.3 0.7 0.2 0.6 0.6z"/>
				<path id="&lt;Path&gt;" class="s2" d="m334.3 462.3c-0.7 1.4-1.8 2.6-2.7 3.7q-1.5 2-3.1 3.9-2.8 3.8-5.7 7.5-6 7.6-11.9 15.2c-0.2 0.3-0.7-0.1-0.5-0.4q5.9-7.7 11.7-15.4 2.9-3.8 5.8-7.6l2.9-3.8c0.9-1.2 1.8-2.5 2.9-3.5 0.3-0.3 0.7 0.1 0.6 0.4z"/>
				<path id="&lt;Path&gt;" class="s3" d="m493 427.9c-3.8 0.7-7.6 1.1-11.5 1.5q-5.8 0.8-11.6 1.5c-27.7 3.5-55.4 7.3-83.1 11-0.3 0.1-0.4-0.5-0.1-0.6q11.7-1.9 23.4-3.6c13.7-2 27.5-3.8 41.3-5.6q10.4-1.3 20.8-2.5 5.1-0.6 10.3-1.2c3.5-0.4 6.9-0.9 10.4-1.1 0.3 0 0.4 0.5 0.1 0.6z"/>
				<path id="&lt;Path&gt;" class="s3" d="m472.4 436.3c-2 0.7-4.2 0.9-6.3 1.2q-3 0.5-6.1 1-6.2 0.8-12.4 1.8c-0.5 0.1-0.7-0.7-0.2-0.7q6.3-1.1 12.6-2.3 3.1-0.5 6.3-1c2-0.3 4-0.8 6-0.8 0.4 0.1 0.5 0.6 0.1 0.8z"/>
				<path id="&lt;Path&gt;" class="s3" d="m442.8 477.4c-2.8 0.3-5.8 0.1-8.7-0.1q-4.2-0.3-8.4-1c-0.6-0.1-0.4-1 0.2-0.9q4.3 0.6 8.6 0.9c2.7 0.2 5.6 0.1 8.3 0.4 0.5 0 0.5 0.6 0 0.7z"/>
				<path id="&lt;Path&gt;" class="s3" d="m720.3 453.2c-9.1 1.2-18.4 1.8-27.6 2.3-32.4 1.9-65 2.1-97.4-0.6-0.4 0-0.4-0.6 0-0.6q13.9 0.6 27.7 0.9 24.2 0.7 48.4-0.1 12.2-0.4 24.2-1.2c8.3-0.5 16.5-1.3 24.7-1.8 0.7 0 0.7 1 0 1.1z"/>
				<path id="&lt;Path&gt;" class="s3" d="m706.9 440.2c-3.1 0.6-6.5 0.6-9.7 0.8q-5 0.4-10 0.7c-0.4 0-0.4-0.6 0-0.7q4.9-0.4 9.8-0.8c3.3-0.3 6.6-0.8 9.8-0.8 0.5 0 0.6 0.8 0.1 0.8z"/>
				<path id="&lt;Path&gt;" class="s3" d="m707.4 426.2c-3.7 0.5-7.5 0.3-11.1 0.3q-5.6 0.1-11.1 0.1c-0.6 0-0.6-0.8 0-0.8q5.5-0.1 11.1-0.2c3.6-0.1 7.4-0.4 11.1-0.1 0.4 0.1 0.4 0.7 0 0.7z"/>
			</g>
		</g>
		<g id="&lt;Group&gt;">
			<path id="&lt;Path&gt;" class="s6" d="m663.1 439.1c-1.7 3.2-4.7 4.9-8.5 5.1-3.5 0.2-7.1-0.3-12.7-1.3-5.5-1-11.5-2.8-17.1-2-7.2 1-12.1 5.9-19.3 5.4-5.2-0.4-10.8-3.1-15.8-1.7-2.5 0.8-6 3.2-7.9 4.8-10.2 8.7-25.2-2.1-35.4-10.7-1.8-1.6-5.6-3.4-7.7-4.4-2.1-1.1-4.8-1.3-6.7 0-4.1 2.9-9.8 2-13.9-0.3-0.6-0.4-0.9-0.6-1.2-1.2-0.2-0.6-0.2-1.3 0-1.9 0.3-1.2 1.3-1.7 1.9-2.6 0.7-1 1-2.2 1.3-3.4 0.5-1.6 0.6-3.3 0.6-5q0.2-6.5-0.4-13 0-0.2 0-0.5c-1.3-0.2-2.5-0.6-3.4-1.5-1.1-1.1-1.4-2.7-1.7-4.2-0.5-3.1-1.3-6-2.3-8.9-2.1-1.4-3.7-4-4.1-6.5-1-5.8-1.4-11.6-2-17.5-4.1-1.7-7-6.4-6.9-10.7 0.2-9.7-0.3-19.3 0.3-28.9-1.4-1.9-2.1-4.6-1.8-7-2.1-0.3-4.1-1.5-5.5-3.1-1.4-1.5-2.2-3.6-2.2-5.7-0.4-25.2 10.9-49 17.5-73.4 2.7-9.7 6-19.2 11.1-28q0.1 0 0.1-0.1c-0.2-1.4-0.3-2.9-0.4-4.1-0.5-6.7 0.5-13.4 2.4-19.8 1.2-3.7 2.7-7.2 4.4-10.7q0.5-1.1 1.1-2.1c-0.6-1.7-0.8-3.7-0.8-5.7q-1.5 0.7-3.1 1.1c-1.6 0.3-3.3 0.5-4.8-0.1q-0.1 0.1-0.1 0.2c-0.5 0.6-1.1 1.4-1.9 1.5-0.9 0.2-1.8-0.5-2.4-1.2q-2.2-2.1-3.7-4.6c-0.7-1.1-1.2-2.2-1.6-3.3-0.7 0.7-1.4 1.2-2.3 1.5-2 0.5-4-0.9-5.4-2.5-4.1-4.5-6-10.6-6.6-16.7-0.2-2.6-0.2-5.3 0.5-7.7q-1.4-1.2-2.7-2.4c-13.3-12.7-21.8-29.6-31.5-45.3q-0.4-0.7-0.8-1.5c-1.4-1.4-2.7-3.1-3.2-5-0.6-2.2-0.2-4.5 0.4-6.6 0.5-2.3 1.7-6.7 1.7-6.7-0.1-1 0-2 0.3-3q0.1-0.4 0.2-0.7 0-0.4 0-0.9 0-0.5-0.1-1.1 0-0.3-0.1-0.6c-0.3-0.6-0.8-1.2-1-2-0.1-0.4-0.1-0.8 0.1-1.2 0.1-0.3 0.4-0.8 0.8-0.8q0.1 0 0.1 0.1c0.3 0.1 0.5 0.4 0.7 0.5q0.3 0.4 0.7 0.8 0.2 0.2 0.4 0.5-0.1-0.3-0.1-0.6 0-0.3 0-0.6 0 0-0.1-0.1 0-0.2-0.1-0.4-0.2-0.7-0.2-1.4 0.1-0.7 0.4-1.4c0.1-0.3 0.4-0.9 0.7-1.1 0.1-0.1 0.2 0 0.2 0 0.6 0.4 1 1 1.4 1.6q-0.1-0.9 0-1.8c0.2-1.1 1-2.5 2.2-2.8 0.1 0 0.1 0.1 0.1 0.2q0 0.7 0.2 1.4c0.1 0.4 0.2 0.8 0.4 1.2q0.3 0.6 0.7 1.1 0.2 0.3 0.4 0.6c0.1 0.1 0.3 0.2 0.4 0.4 0.3 0.3 0.4 0.9 0.5 1.3q0.4 1.3 0.6 2.6c0.2 0.7 0.2 1.5 0.2 2.2q0.1-0.2 0.1-0.3 0.1-0.3 0.1-0.5 0-0.8-0.1-1.6 0-0.6 0-1.2 0-0.1 0-0.2c-0.6-0.6-0.9-1.3-0.9-2.1 0.1-1.1 0.7-2.2 1.6-2.7q0.2 0 0.2 0.1 0.1 0 0.1 0c0.5 0.8 0.9 1.7 1.3 2.6q0.3 0.6 0.6 1.2 0.2 0.3 0.3 0.6 0.1 0.2 0.1 0.3 0.2 0.4 0.3 0.7c0.1 0.4 0.2 0.9 0.2 1.4q0.1 0.8 0.2 1.5 0.1 0.4 0.2 0.7c0 0.2 0.1 0.4 0.2 0.7q0 0-0.1 0 0.3 0.8 0.3 1.6 0 0.1 0 0.2 0.1 0.3 0.1 0.6c-0.3 3.5-1.3 7-3.1 10.1-0.8 2-2.3 3.9-3.9 5.7q0.5 0.6 0.9 1.3c4.6 7.3 10.3 13.8 17 19.3 4.3 3.4 8.8 6.4 13 10 2.3 1.9 4.4 4.1 6.2 6.5q0.1-0.1 0.1-0.1c2.3-1.8 5.8-1.4 8.1 0.3q0.9 0.6 1.6 1.5c0.8 0.2 1.6 0.6 2.4 0.9q9.2 4.2 18.4 8.4 1.1 0.5 2.1 1.1 0.5-0.1 0.9-0.2c2.4-0.4 4.8 0.3 7.1 1.2 5.5 2 10.7 4.9 15.8 7.8 0.6 0.3 1.2 0.7 1.7 1.2q1.3-1 2.3-2.3-0.8 0-1.6-0.2c-2.3-0.4-4.6-1.3-6.4-2.8-0.7-0.7-1.4-1.5-1.4-2.5 0.1-0.5 0.3-1 0.6-1.4 0.2-0.5 0.5-0.9 0.5-1.4 0.1-0.5-0.1-1.1-0.6-1.3-0.2-0.7 0.1-1.5 0.8-1.8-0.3-0.4-0.6-1-0.9-1.4 0.1-0.8 0.4-1.6 1-2.2-0.6-0.3-1.1-0.7-1.5-1.1-0.5-0.3-0.8-0.9-0.8-1.5 0-0.6 0.4-1.2 0.7-1.7q1.2-1.8 1.7-3.8c-0.4-0.7-0.6-1.7-0.3-2.5-0.2-0.6-0.1-1.4 0-2.1-0.4-0.7-0.5-1.5-0.4-2.3q-0.3-0.3-0.4-0.6c-0.3-0.7-0.4-1.5-0.3-2.3 0.2-2.2 1.5-4.1 3.3-5.3q0.3-0.9 0.8-1.7c1-1.6 2.7-2.8 4.5-2.9 0.6 0 1.2 0.1 1.7 0.3 0.9-0.2 1.8-0.3 2.7-0.3 1.1 0 2.2 0.2 3.3 0.5q0.3 0 0.7 0 0.3 0 0.7 0.1 0 0 0 0c0.9-0.4 1.8-0.6 2.8-0.7 2.4-0.1 4.8 0.4 7 1.3 2.3 0.8 4.4 2 6.5 3.1 1 0.6 1.9 1.1 2.6 1.9q0.1 0.1 0.2 0.2c1.1 0.8 1.8 2 2.4 3.1 0.8 1.5 1.4 3.1 1.8 4.7q0.3-0.1 0.7-0.1c1.4-0.2 2.9 0.2 4.1 0.9 1.7 1.1 2.9 3 3.2 5 0.4 2 0 4.1-1 5.9-1 1.8-2.5 3.2-4.3 4.3-1 0.6-2.2 1.1-3.5 1.4-0.3 0.8-0.8 1.5-1.5 2-0.8 0.5-1.8 0.6-2.7 0.5 0 0.8-0.2 1.5-0.7 2-0.7 0.9-1.9 1.3-2.6 2.1-0.4 0.5-0.6 1.3-0.2 1.8 0.4 0.4 1.1 0.4 1.6 0.5 0.9 0.2 1.8 0.7 2.1 1.5 0.4 0.7 0.1 1.7-0.2 2.4-0.4 0.8-0.9 1.5-1.2 2.2-0.4 1-0.4 2-0.2 2.9q0 0.1 0 0.2 1-0.4 2-0.8 0-0.4 0-0.7c1.2-0.4 2.2-0.9 3.3-0.9 1 0.1 2 0.5 2.6 1.3 1.7-0.2 4.6 2.1 5.5 2.9 1.1 0.9 2.2 1.8 2.7 3.1 0.4-0.8 1.2-1.3 2.7-0.7 1.5 0.5 2.7 1.7 3.7 3.1 0.9 1.3 1.5 2.8 2.1 4.4 1.7 4.6 3 9.4 3 14.3q0 0.9-0.1 1.7 0.1 0.1 0.2 0.1c1.2 0.8 2 2 2.8 3.3 2.7 4.3 4.7 9 5.5 14 0.9 5 0.5 10.2-1.5 14.9q-0.3 0.8-0.7 1.6c-2.2 8.7-2.9 17.7-2.2 26.7 1.3 14.6 3.9 28.8 5.9 43.2 0.8 5.6-4.3 10.5-7.4 15.1 3 11.7 3.3 24.2 0.5 35.9-2.2 9.1-3.7 18.4-1.9 27.6 1 5.5 3.3 10.7 4.9 16 2.7 9.3 3.3 19.1 1.8 28.7-0.5 2.5 2.3 4 4.4 5.6 6.3 5 13.1 9.4 19.3 14.6 6.2 5.2 11.8 10.1 14.7 17.7z"/>
			<g id="&lt;Group&gt;">
				<path id="&lt;Path&gt;" class="s3" d="m562.9 179q-6.4 5.4-11.9 11.7c-0.1 0.1-0.3 0-0.2-0.1 2.6-3.5 5.6-6.7 8.8-9.7q1.3-1.2 2.7-2.3 0.2 0.1 0.4 0.3 0.1 0.1 0.2 0.1z"/>
				<path id="&lt;Path&gt;" class="s3" d="m547.5 191.1c-0.1 0.1-0.4-0.1-0.2-0.3q3.6-4.4 7.6-8.5-2.6 2.2-5.2 4.6c-0.1 0.1-0.3-0.1-0.1-0.2q4.4-4.4 9.2-8.3 0.9-0.8 1.9-1.6 0.1 0.1 0.3 0.3 0.1 0.1 0.1 0.1 0.1 0 0.1 0.1-0.1 0-0.1 0.1-7.2 6.4-13.6 13.7z"/>
				<path id="&lt;Path&gt;" class="s3" d="m546.4 189.5c-0.2 0.1-0.4-0.1-0.3-0.2q1.8-2.1 3.7-4.1c0-0.1 0-0.1 0-0.2q1.1-1.6 2.4-3-3.8 3.5-7.5 7.1c-0.2 0.2-0.3 0-0.2-0.1 2.9-3.5 6.1-6.6 9.4-9.7q-0.3 0.3-0.7 0.6c-3 2.7-5.9 5.6-9 8.3-0.1 0.2-0.4-0.1-0.2-0.2 3.1-3.4 6.6-6.5 10-9.6q2.2-1.9 4.4-3.7 0.1 0 0.1 0.1 0.1 0 0.1 0.1 0.1 0 0.1 0 0.4 0.5 1 0.9 0 0 0 0 0 0 0 0.1 0.2 0.2 0.5 0.4-7.2 6.3-13.8 13.2z"/>
				<path id="&lt;Path&gt;" class="s3" d="m562.2 178.4q-6.7 5.7-12.8 12.2c-0.2 0.2-0.5-0.1-0.3-0.3 3.1-3.6 6.4-7.1 10-10.4 0.8-0.7 1.7-1.4 2.5-2.1q0 0 0.1 0.1 0.2 0.3 0.5 0.5z"/>
				<path id="&lt;Compound Path&gt;" fill-rule="evenodd" class="s3" d="m603.1 152c-0.5 0.6-1.2 0.9-1.8 1.2q-0.5 0.2-0.9 0.4 0.5-0.2 1-0.3c0.3-0.1 0.5 0.3 0.2 0.5-0.9 0.6-1.9 1.1-3 1.5q0.8 0.1 1.5 0.2 0.5-0.3 1-0.5c0.3-0.1 0.5 0.4 0.2 0.5q0 0.1-0.1 0.1 0 0 0 0c0.2 0.1 0.2 0.4 0 0.4q-0.4 0.1-0.9 0.1-0.9 0.5-1.9 1 0 0.1 0.1 0.1c0.5 0.1 1.1 0.2 1.6 0.5 0.1 0.1 0 0.3-0.1 0.3-0.5 0.2-1.2-0.1-1.7-0.2q-0.3-0.2-0.7-0.3-0.6 0.4-1.3 0.7 0 0 0.1 0c0.6 0.2 1.3 0.3 1.8 0.6 0.2 0.1 0.1 0.4-0.1 0.4-0.4 0-0.8-0.1-1.2-0.2-0.2 0.1-0.6 0.1-0.9 0.2q-0.6 0-1.3 0-0.1 0-0.3 0-1 0.5-2.1 1.1 0.4 0 0.7 0.1 0.9 0 1.7 0.1c0.5 0 1.1 0 1.6 0.1 0.2 0 0.2 0.3 0 0.3-0.5 0.2-1.2 0.1-1.7 0q-0.5 0-1.1-0.1c0.1 0.1 0 0.3-0.1 0.3-0.5 0.1-1.1-0.1-1.6-0.1q-0.3-0.1-0.6-0.2-0.9 0.5-1.9 1c1.1 0.3 2.2 0.7 3.3 0.7 0.1 0 0.2 0.2 0.1 0.2-0.5 0.4-1.1 0.3-1.6 0.2q-1-0.3-2-0.6-0.2-0.1-0.4-0.1-1.1 0.5-2.1 1.1 0.4 0.1 0.7 0.2 1 0.3 1.9 0.5c0.6 0.1 1.3 0.2 1.8 0.4 0.1 0.1 0.1 0.3 0 0.4-0.6 0.1-1.4-0.1-1.9-0.2q-1-0.2-2-0.5-0.6-0.2-1.2-0.4-0.7 0.4-1.4 0.8 0.7 0.1 1.4 0.2 1 0.1 2 0.3c0.6 0.1 1.2 0.2 1.8 0.6 0.1 0.1 0.1 0.3-0.1 0.3-0.6 0.2-1.2 0-1.9-0.1q-1-0.2-1.9-0.4-1.1-0.2-2.1-0.5-3.6 2.1-7.1 4.3-0.1-0.2-0.1-0.3-0.1-0.3-0.3-0.5 1.2-0.8 2.4-1.5 2-1.1 3.9-2.2-0.4-0.1-0.7-0.2c-0.2 0-0.2-0.2-0.1-0.3q-2.9 1.8-5.7 3.7-0.1-0.1-0.1-0.2-0.1-0.1-0.1-0.2c0.1 0.2-0.1-0.3-0.2-0.4q0-0.1-0.1-0.2 1.6-1 3.1-2 1.2-0.6 2.3-1.3 1.2-0.8 2.4-1.5 0 0 0.1 0 0.2-0.1 0.3-0.2c-0.1 0-0.2-0.1-0.2-0.2q0.1-0.1 0.1-0.1-1 0.6-1.9 1.2-3.2 1.8-6.4 3.6-0.1-0.1-0.2-0.2 0-0.1 0-0.1-0.1-0.2-0.2-0.4 0-0.1-0.1-0.1 0.4-0.3 0.8-0.6 2.6-1.7 5.2-3.3 0.1-0.4 0.1-0.8-3.2 2-6.4 4.2 0-0.1-0.1-0.2-0.1-0.2-0.2-0.3-0.1 0-0.2-0.1 0.5-0.3 0.9-0.6 3-2.1 6.2-4 0-0.1 0-0.2-1.2 0.7-2.4 1.4 0 0.1 0 0.1-2.4 1.5-4.8 3.1 0 0 0-0.1 0-0.3 0-0.5 0-0.1 0-0.1 0-0.3 0-0.6 0-0.1 0-0.2 2.3-1.6 4.5-3.1 0-0.7 0-1.3 0-1.4 0.1-2.8c0-0.1 0.1-0.2 0.2-0.3 0.2 0 0.4 0.1 0.4 0.3 0 0.1 0 0.2-0.1 0.2q-0.1 1.3-0.1 2.5 0 0.6-0.1 1.1 0.6-0.3 1.1-0.7 0-0.7 0.1-1.4 0.1-0.7 0.2-1.4c0-0.5 0-1 0.2-1.4 0.1-0.2 0.4-0.2 0.4 0.1 0 0.4-0.1 0.9-0.1 1.3q-0.1 0.8-0.2 1.5-0.1 0.5-0.2 1 0.6-0.4 1.2-0.8 0.2-0.5 0.4-1.1 0 0 0-0.1 0.1-0.7 0.2-1.4c0.1-0.5 0.2-1 0.4-1.3 0.1-0.1 0.2 0 0.2 0 0.1 0.5-0.1 1-0.2 1.4q0 0.4-0.1 0.7 0.1 0 0.2 0c0.2 0 0.2 0.1 0.1 0.2-0.2 0.1-0.4 0.3-0.5 0.6q0 0.3 0 0.6 0.3-0.2 0.6-0.4 0.1-0.8 0.3-1.5c0.2-1 0.5-2 1.1-2.9 0-0.1 0.2 0 0.2 0.1-0.3 1-0.7 1.9-0.9 2.8q-0.2 0.6-0.3 1.2 0.1 0 0.2-0.1 0.6-0.4 1.2-0.8 0.2-0.9 0.4-1.8 0.2-0.8 0.3-1.6c0.1-0.4 0.2-0.9 0.4-1.4 0.1-0.1 0.3 0 0.3 0.1 0.1 0.5-0.1 1.1-0.2 1.5q-0.2 0.8-0.3 1.5-0.2 0.7-0.3 1.4 0 0 0 0 0.6-0.4 1.1-0.7 0.1-1 0.2-2 0.2-0.8 0.4-1.5 0.1-0.3 0.2-0.7c0-0.2 0.1-0.5 0.2-0.6 0.1-0.2 0.4-0.1 0.3 0 0 0.3-0.1 0.5-0.1 0.7q-0.1 0.4-0.2 0.7-0.2 0.7-0.3 1.4-0.2 0.9-0.3 1.8 0.7-0.4 1.3-0.8 0.2-0.8 0.4-1.6 0.2-0.7 0.4-1.5c0.2-0.5 0.3-1 0.6-1.4 0.1-0.1 0.3 0 0.3 0.1 0 0.5-0.3 1-0.5 1.5q-0.2 0.7-0.4 1.4-0.2 0.6-0.3 1.2 0.1-0.1 0.1-0.1 0.5-0.3 0.9-0.5 0.1-1 0.4-2 0.3-0.7 0.6-1.5c0.2-0.4 0.5-0.9 0.9-1.3 0.1 0 0.2 0.1 0.2 0.2-0.1 0.5-0.4 0.9-0.7 1.4q-0.3 0.7-0.5 1.4-0.3 0.7-0.5 1.5 0.8-0.5 1.5-0.9 0.2-0.6 0.5-1.2c0.3-0.7 0.6-1.5 0.9-2.1 0.1-0.2 0.3-0.1 0.3 0.1-0.2 0.7-0.5 1.4-0.8 2.1l-0.3 0.8q0.3-0.2 0.6-0.4 0.3-0.7 0.6-1.3c0-0.1 0.2 0 0.2 0.1q-0.1 0.5-0.3 1 0 0 0 0 0.2-0.3 0.3-0.5c0.2-0.3 0.3-0.5 0.5-0.8 0.1-0.1 0.3 0 0.3 0.2-0.1 0.3-0.3 0.5-0.4 0.8q0 0 0 0 0.1-0.1 0.2-0.1c0.3-0.1 0.4 0.2 0.2 0.3q-0.4 0.3-0.9 0.6-0.3 0.6-0.7 1.2 0.7-0.3 1.4-0.6 0.2-0.5 0.3-1c0.2-0.4 0.3-0.9 0.6-1.4 0-0.1 0.3-0.1 0.2 0.1 0 0.5-0.2 1-0.4 1.5q0 0.3-0.1 0.5 0.5-0.3 0.9-0.5c0.4-0.1 0.6 0.3 0.3 0.5q-0.8 0.4-1.5 0.8-0.1 0.1-0.1 0.2 0 0.1-0.1 0.2 1-0.5 1.9-0.9 0.3-0.6 0.7-1.1c0.2-0.5 0.5-1.1 0.9-1.5 0.2-0.1 0.3 0 0.3 0.1-0.1 0.6-0.5 1.1-0.8 1.6q-0.2 0.4-0.4 0.8c0.1 0.1 0.2 0.3 0 0.4q-0.2 0.1-0.3 0.2-0.1 0.1-0.2 0.2-0.4 0.7-0.8 1.4 0.4-0.2 0.8-0.3 0.5-0.5 1-0.9 0.7-0.7 1.4-1.4 0.3-0.3 0.7-0.6c0.2-0.3 0.4-0.5 0.7-0.6 0.1 0 0.3 0 0.2 0.2-0.2 0.6-0.8 1-1.2 1.5q-0.7 0.7-1.4 1.3-0.1 0.1-0.1 0.2c0 0 0.1 0.2-0.1 0.3q-0.5 0.3-1 0.6 0 0-0.1 0.1 1.3-0.3 2.5-0.7 0-0.1-0.1-0.1c-0.1-0.1 0-0.3 0.2-0.3q0.2 0.1 0.4 0.2 0.9-0.3 1.7-0.8c0.6-0.2 1.2-0.7 1.8-0.8 0.2 0 0.4 0.1 0.3 0.3zm-27.3 15.5q0 0 0 0 0 0 0 0zm2.7-7.1q0 0 0-0.1-1.9 1.3-3.7 2.5 1.8-1.2 3.7-2.4zm1.3-1q-0.5 0.4-1 0.7 0 0.1 0 0.1 0.5-0.3 1-0.6 0-0.1 0-0.2zm15.6-4.5q-0.4 0.3-0.8 0.6-0.1 0.2-0.3 0.1c-0.2 0.1-0.4-0.1-0.3-0.3q0 0 0-0.1-0.2 0.1-0.4 0.2 0.5 0.2 1 0.4 0.7-0.3 1.3-0.7-0.1 0-0.2-0.1-0.1 0-0.1-0.1-0.1 0-0.2 0zm-10.2 5.8q0.2 0.1 0.4 0.1 0.9-0.5 1.9-1-0.1 0-0.2-0.1c-0.1 0-0.1-0.2-0.1-0.3q-0.3 0.2-0.6 0.4-1.2 0.7-2.4 1.4-0.1 0.3-0.3 0.6 0.6-0.3 1.1-0.6c-0.2-0.1-0.1-0.5 0.2-0.5zm3.2-4.2q0.2-0.2 0.4-0.3-1.2 0.7-2.5 1.4-0.1 0.2-0.3 0.4-0.3 0.5-0.6 0.9 0.4-0.2 0.7-0.4 0.3-0.1 0.5-0.2 0.8-1 1.8-1.8zm2.5-1.3q-0.2 0.1-0.4 0.2-0.9 0.7-1.8 1.4c-0.4 0.3-0.6 0.6-0.9 0.9q1.3-0.8 2.6-1.5 0.3-0.5 0.5-1zm0 0.8q0.3-0.2 0.7-0.3 0 0 0-0.1 0.5-0.3 1-0.5 0.3-0.6 0.5-1.2-0.2 0.1-0.5 0.2 0 0.1 0 0.1c-0.3 0.2-0.7 0.4-1 0.6q-0.1 0-0.2 0.1-0.3 0.6-0.5 1.1zm-3.2 3.3q0.2 0.1 0.4 0.2 0-0.1 0-0.1 0.2 0 0.3-0.1-0.4 0-0.7 0zm1.8-0.6q1.1-0.7 2.3-1.3-0.5-0.2-1-0.4c-0.8 0.7-1.7 1.3-2.6 1.8q0.7-0.1 1.3-0.1zm2.9-1.6q0.8-0.5 1.7-1-0.4-0.2-0.8-0.4-0.1 0-0.1-0.1-0.9 0.5-1.9 1 0 0 0 0-0.1 0.1-0.1 0.1 0.6 0.2 1.2 0.4zm1.3-3.5q-0.2 0.6-0.5 1.2 0.3-0.2 0.6-0.3 0.4-0.2 0.8-0.4 0.5-0.7 0.9-1.5-0.9 0.5-1.8 1zm-1.7-0.2q0 0 0 0.1 0 0.1-0.1 0.2 0.8-0.4 1.6-0.8 0.1-0.2 0.2-0.4-0.9 0.5-1.7 0.9zm-2.3 0.4q1.1-0.6 2.3-1.1 0.1-0.5 0.3-1-0.3 0.2-0.7 0.4-0.1 0.2-0.2 0.5c-0.1 0.2-0.5 0.1-0.4-0.1q0 0 0-0.1-0.6 0.4-1.2 0.7 0 0.4-0.1 0.7zm-1.5 0.8q0.2-0.1 0.3-0.2 0.1 0 0.1 0 0.4-0.2 0.8-0.4-0.1 0-0.1-0.1 0-0.2 0.1-0.5-0.5 0.3-1.1 0.6 0 0.3-0.1 0.6zm-0.4 1.2q-0.2 0.1-0.4 0.3 2-1.1 4.1-2.2 0-0.1 0.1-0.2-1.9 1-3.8 2.1zm-1.2-0.3q0.6-0.3 1.2-0.6 0-0.3 0.1-0.6-0.6 0.4-1.2 0.8 0 0.2-0.1 0.4zm-1.7 1q0.7-0.4 1.5-0.8-0.1-0.1-0.1-0.2 0-0.1 0-0.2-0.7 0.4-1.3 0.8 0 0 0 0.1-0.1 0.2-0.1 0.3zm-1 1.5q-0.1 0.1-0.1 0.3 0.7-0.5 1.5-0.9 0.5-0.4 1.1-0.7 0.1-0.1 0.2-0.3-1.4 0.8-2.7 1.6zm-0.8-0.4q0.4-0.2 0.8-0.5 0.1-0.2 0.2-0.3 0-0.1 0-0.2-0.5 0.4-1 0.7 0 0.1 0 0.3zm-1.1 0.6q0.4-0.2 0.7-0.4 0-0.1 0-0.3-0.2 0.1-0.3 0.2-0.2 0.1-0.3 0.2-0.1 0.2-0.1 0.3zm-0.1 1.1q0.7-0.3 1.3-0.7 0-0.1 0.1-0.2 0 0 0-0.1-0.7 0.4-1.3 0.8-0.1 0.1-0.1 0.2 0 0 0 0zm-0.6-0.6q0-0.2 0.1-0.3-0.6 0.4-1.2 0.8 0 0.1-0.1 0.2 0.6-0.4 1.2-0.7zm1.5 1q-0.8 0.5-1.5 0.9-0.1 0.4-0.1 0.9 0.7-0.5 1.4-0.9 0.1-0.5 0.2-0.9zm1.9-0.3q0.3-0.7 0.7-1.3-0.4 0.3-0.9 0.5-0.6 0.4-1.2 0.8-0.1 0.4-0.3 0.9 0.8-0.5 1.7-0.9zm0.2 3.9q-0.5-0.2-1-0.5-1.1 0.6-2.1 1.3 0.1-0.1 0.1-0.1 0.7 0.2 1.3 0.3 0.9-0.5 1.7-1zm2.6-1.4q-0.7-0.2-1.3-0.4-0.9 0.5-1.8 1 0.6 0.2 1.1 0.4 1-0.5 2-1zm2.5-1.4q-0.7-0.1-1.4-0.4-0.9 0.5-1.8 1.1 0.7 0.1 1.4 0.3 0.8-0.4 1.6-0.9 0.1 0 0.2-0.1zm2.7-1.3q-0.3 0-0.6 0-0.9 0-1.8 0-0.6 0.3-1.1 0.6 0.2 0 0.4 0.1 0 0 0 0 0.7 0.1 1.3 0.2 0.9-0.5 1.8-0.9zm1.7-0.9q-0.1 0-0.1 0-0.6-0.2-1.3-0.5-0.7 0.4-1.4 0.7 0.3 0 0.6 0 1-0.1 1.9-0.1 0.2-0.1 0.3-0.1zm2.2-1.1q-0.6-0.3-1.2-0.5-0.1 0-0.2 0.1-0.7 0.3-1.5 0.7 0.4 0.1 0.8 0.2 0.3 0.1 0.6 0.2 0.7-0.4 1.5-0.7zm1.9-1.4q-0.4 0-0.7-0.1-0.9 0.3-1.8 0.7 0.4 0.2 0.9 0.3 0.2 0.1 0.4 0.1 0.9-0.4 1.8-0.8-0.3-0.1-0.6-0.2z"/>
				<path id="&lt;Path&gt;" class="s7" d="m581.7 159.3q0.1 0.1 0.1 0.1-0.1 0.1-0.2 0.2 0-0.1 0-0.2 0.1-0.1 0.1-0.1z"/>
				<path id="&lt;Path&gt;" class="s7" d="m596.7 154.7q-0.1 0-0.1-0.1 0.1 0 0.2 0 0 0-0.1 0.1z"/>
			</g>
			<path id="&lt;Path&gt;" class="s3" d="m598.1 186.3l-0.1-0.2-0.1-0.1 0.1-0.2c2.8-2.5 6.5-3.9 9.1-4.5 1.9-0.5 3.5-0.8 4.9-0.8h0.2c1.7 0 2.9 0.4 3.6 1.3q0.2 0.2 0.1 0.4c-0.1 0.2-0.2 0.3-0.4 0.3q-0.1 0-0.2-0.1c-0.8-0.7-1.8-1.1-3.2-1.1q-0.4 0-0.9 0.1-2.2 0.2-4.5 0.8c-3 0.9-5.5 2.3-8.3 4l-0.1 0.1h-0.1z"/>
			<path id="&lt;Path&gt;" class="s3" d="m589.4 181.3q-0.1 0-0.2-0.1-0.1-0.2-0.1-0.3c2.5-5.7 4.3-11.3 5.6-16.8 0.7-2.7 1.2-5.6 1.6-8.6 0.3-2 0.5-4 0.6-6q0.1-1.5 0.2-3c0.1-0.2 0.2-0.3 0.4-0.3 0.2 0 0.4 0.1 0.4 0.4 0 2.6-0.3 5.5-0.6 8-1.2 9.4-3.7 18.3-7.6 26.6l-0.1 0.1z"/>
			<path id="&lt;Path&gt;" class="s3" d="m578.2 107.7c-0.6 0-1.2 0-1.8-0.1l-0.4-0.1q-1.5-0.1-3-0.5-3-0.7-5.9-2.1c-0.1 0-0.2-0.2-0.1-0.3 0-0.1 0.1-0.2 0.3-0.2h0.1q2.8 1.3 5.7 2 1.6 0.3 3.1 0.5 0.6 0.1 1.2 0.1c0.6 0 1.1 0 1.6 0.1 0.2 0 0.3 0.1 0.3 0.3 0 0.1-0.1 0.2-0.3 0.3q-0.4 0-0.8 0z"/>
			<path id="&lt;Path&gt;" class="s3" d="m578.9 112.2q-0.2 0-0.3 0c-0.8-0.1-1.8-0.5-2.2-1.3q-0.1-0.2 0-0.3l0.1-0.1 0.1-0.1q0.1 0 0.2 0.1 0.2 0.1 0.3 0.2 0.3 0.3 0.6 0.4 0.4 0.3 0.9 0.3 0.2 0.1 0.3 0.1c0.6 0 1.3-0.3 1.7-0.6l0.1-0.1h0.1q0.2 0 0.3 0.2v0.1l-0.1 0.2c-0.6 0.6-1.3 0.9-2.1 0.9z"/>
			<path id="&lt;Path&gt;" class="s3" d="m581.7 117.5q-0.2 0-0.4 0c-0.1-0.1-0.2-0.2-0.2-0.3 0-0.2 0.1-0.3 0.3-0.3q0.1 0 0.2 0l0.1-0.1q0.1 0 0.3 0 0.3-0.2 0.5-0.4c0.3-0.2 0.5-0.6 0.5-1.1 0-0.1 0.1-0.3 0.3-0.3 0.2 0 0.3 0.2 0.3 0.3 0 0.6-0.2 1.2-0.6 1.7q-0.4 0.3-0.8 0.4-0.2 0.1-0.5 0.1z"/>
			<path id="&lt;Path&gt;" class="s3" d="m595 181.2q-0.2 0-0.3-0.2-0.1-0.1 0-0.3c2.5-4.9 4.6-9.3 6.5-13.7 1-2.3 2-4.7 2.8-7.1 0.4-1.3 0.7-2.4 0.9-3.5 0.1-0.8 0.2-1.7 0.2-2.5q0-0.6 0.1-1.3c0-0.2 0.1-0.3 0.3-0.3 0.2 0 0.3 0.1 0.4 0.2 0.4 2.3-0.3 5-1 7.3-0.7 2.3-1.7 4.5-2.7 6.9-2.2 5.1-4.5 9.9-6.9 14.3q-0.1 0.2-0.3 0.2z"/>
			<path id="&lt;Path&gt;" class="s3" d="m556.2 116.4l-0.1-0.1v-0.1l-0.1-0.1q0.1-0.5 0.2-1 0.2-0.5 0.2-0.9l-0.5-0.1-0.1-0.2c0-0.1 0.1-0.3 0.3-0.3h0.4q-0.1-0.3-0.2-0.7-0.1-0.3-0.2-0.6-0.1-0.1-0.2-0.3v-0.1-0.1l0.1-0.1h0.1 0.1c0.4 0.2 0.6 0.6 0.7 0.9q0.2 0.5 0.2 1.1c0 0.9-0.2 1.8-0.6 2.5v0.1l-0.2 0.1z"/>
			<path id="&lt;Path&gt;" class="s3" d="m576 106q-0.5 0-1 0c-0.2 0-0.3-0.1-0.3-0.3 0-0.2 0.1-0.3 0.3-0.3h0.5q0.5 0 1.1 0 0.2 0 0.4-0.1 0.3 0 0.7 0 0.2 0 0.4 0l0.2 0.1 0.1 0.2c0 0.1-0.1 0.2-0.2 0.3-0.5 0.1-0.9 0.1-1.3 0.1q-0.7 0-0.9 0z"/>
			<path id="&lt;Compound Path&gt;" fill-rule="evenodd" class="s3" d="m587.5 149.9l-0.2-0.1v-0.1-0.1q0.1-0.2 0.2-0.4 0 0 0-0.1 0.2-0.2 0.3-0.5 0.1-0.5 0.2-0.9 0-0.5-0.1-1v-0.2q-1.6-0.3-2.9-1.1-0.8-0.5-1.4-1l-0.1-0.1c-0.3-0.2-0.6-0.5-0.8-0.8h-0.1l-0.1-0.2v-0.1l-0.1-0.1c-1.6-5.6-0.3-11.7 1-17.1q-1.5-0.9-2.7-2.9 0.1 0.3 0.1 0.6v0.5q0.1 0.5 0.1 1.1 0.1 1.7-0.6 2.6c-0.5 0.7-1.2 1.1-1.9 1.1q-0.1 0-0.2 0-0.2 0-0.4-0.1 0 0-0.1 0.1 0 0.3-0.1 0.5-0.1 0.5-0.4 1-0.6 1-1.5 1.6h-0.1c-0.1 0-0.2-0.1-0.3-0.2v-0.1l0.1-0.2q0.8-0.7 1.2-1.4 0.2-0.5 0.4-0.9 0.1-0.2 0.1-0.5c0 0 0-0.2 0-0.3q-0.4-0.3-0.5-0.9v-0.1l0.1-0.1q0.1-0.1 0.2-0.1h0.1l0.2 0.2c0.1 0.5 0.6 0.9 1.2 0.9q0.2 0 0.3-0.1c0.7-0.2 1.2-0.7 1.4-1.5 0.2-0.7 0.2-1.6 0.1-2.3v-0.5c-0.1-0.6-0.2-1.4 0-2v-0.1q-0.2-0.4-0.4-0.8-1-0.8-2-2.1c-1.1-1.5-1.8-3-2-4.5q-1.6-0.7-2.6-1.8-1.5-1.6-1.5-4.1c-0.6-0.2-1.2-0.4-1.7-0.6-2.8-1.3-5-3.3-6-5.3l-0.1-0.1c-2.2 0.4-3.9 1.1-5.2 2.1-0.8 0.5-1.5 1.2-1.9 2q-0.4 0.6-0.7 1.2 0 0.2-0.1 0.5-0.1 0.3-0.2 0.7l-0.1 0.1h-0.1-0.2l-0.1-0.2c0-0.4 0.1-0.7 0.1-1q-0.1-1.1 0.1-2.3 0.1-0.7 0.4-1.3v-0.1c0.1-0.3 0.3-0.7 0.6-1v-0.1h0.1q0.2 0 0.3 0.1v0.1 0.2q0 0.2-0.2 0.4v0.1q-0.2 0.3-0.3 0.6-0.2 0.5-0.3 1.1-0.1 0.4-0.1 1 0.1-0.2 0.2-0.4 0.2-0.3 0.4-0.6l0.1-0.1c0-0.7 0.2-1.3 0.5-1.7l0.1-0.1h0.1q0.1 0 0.2 0.1l0.1 0.1-0.1 0.2q-0.1 0.3-0.2 0.6 0.3-0.3 0.6-0.5-0.5-0.5-0.6-1.2-0.1-0.4 0-0.8 0-0.2 0.1-0.4c0-0.1 0.1-0.3 0.2-0.4h0.1 0.1c0.2 0 0.3 0.1 0.3 0.3q0 0.1-0.1 0.3c0 0.1-0.1 0.2-0.1 0.3q0 0.3 0 0.6c0.1 0.3 0.2 0.7 0.4 0.9q1.5-1 3.4-1.6 0 0 0 0-0.4-0.4-0.6-0.8c-0.3-0.6-0.3-1.3-0.1-2 0.4-1.2 1.5-2.1 3.2-2.7h0.1c0.2 0 0.3 0.1 0.3 0.3 0.1 0.2 0 0.4-0.2 0.4q-2.1 0.7-2.7 2.1c-0.2 0.6-0.2 1.1 0 1.6q0.1 0.3 0.4 0.6 0.1 0.1 0.3 0.2 0.1 0 0.2 0.1 0.4-0.1 0.8-0.2-0.2-0.1-0.3-0.3c-0.3-0.4-0.3-1-0.2-1.5q0.2-0.8 0.8-1.5 0.2-0.3 0.6-0.6l0.2-0.1c0.1-0.2 0.3-0.4 0.5-0.5h0.1 0.1q0.1 0 0.2 0.2l0.1 0.1-0.1 0.1q-0.2 0.2-0.4 0.4-0.1 0.1-0.2 0.1-0.3 0.3-0.5 0.5-0.6 0.6-0.8 1.2-0.2 0.6 0.1 1.2 0.1 0.3 0.4 0.5c0.4-1.2 1.1-2.3 2.1-3.1q0.9-0.7 1.9-1.2 0.6-0.2 1.1-0.4h0.1c0.3-0.1 0.5-0.1 0.8-0.1q0.1 0 0.2 0h0.1l0.1 0.2c0 0.1-0.1 0.3-0.2 0.3-0.2 0.1-0.4 0.2-0.6 0.2q-0.2 0-0.3 0.1-0.6 0.1-1.1 0.3-0.9 0.5-1.7 1.1-1 0.9-1.7 2.2c0.9-0.7 1.7-1.4 2.8-1.9q1-0.5 2-0.7c0.6-0.1 1.1-0.3 1.6-0.3q0.3 0 0.6 0.1l0.1 0.1 0.1 0.2c0 0.1-0.1 0.2-0.2 0.2q-0.4 0.1-0.7 0.1-0.2 0-0.3 0-0.6 0.1-1.2 0.2-1 0.2-1.9 0.7c-1 0.5-2 1.2-2.9 2q2.8 0.5 5.4 0.6 1.4 0.1 2.8 0.1h0.1q0.6 0 1.2 0 0.6-0.1 1.3-0.1 0.3 0 0.6 0c0.1 0 0.3 0.2 0.3 0.3v0.2l-0.3 0.1c-0.7 0.1-1.6 0.2-2.3 0.2l-0.8-0.1q-1.5 0-3-0.1-2-0.1-4.2-0.4 2.5 1 5 1.4 1.8 0.3 3.7 0.3 0 0 0 0c0.6 0 1.1 0 1.7-0.1q0.7 0 1.4 0c0-1.2-0.6-2.4-1.8-3.7-0.8-0.7-1.6-1.4-2.4-2.1q-0.5-0.4-1.1-0.9l-0.1-0.1 0.1-0.2c0-0.1 0.1-0.2 0.2-0.2h0.1 0.1c1.2 0.8 2.5 1.9 3.8 3.3q1.8 2 1.8 4.1c0.3 0.2 0.6 0.5 0.8 0.7q0.4 0.5 0.7 1.2c0.3 0.8 0.3 1.8-0.1 2.7h0.1c0.7 0.1 1.6 0.2 2.2 0.6q0 0 0.1 0c0.6-0.5 1.2-0.9 1.7-1.4 0.6-0.7 1-1.4 1.3-2.2 0.4-0.8 0.5-1.8 0.5-2.7q0-0.7-0.1-1.4-0.1-0.3-0.2-0.7-0.1-0.3-0.2-0.6 0-0.2 0.1-0.3 0.1-0.1 0.2-0.1 0.2 0 0.3 0.1c0.5 0.9 0.6 2.2 0.7 3.1q-0.1 1.5-0.6 3c-0.7 1.7-1.9 3-3.3 3.7q0.4 0.5 0.5 1.3c0.1 0.6 0 1.3-0.2 1.8 0.9 0.1 1.9 0.2 2.7 0.7 0.9-0.4 1.8-0.9 2.5-1.7 0.8-0.8 1.4-1.8 1.8-2.8 0.7-2.1 0.4-4.7-0.8-6.8l-0.1-0.1v-0.1q0.1-0.2 0.3-0.2h0.1l0.1 0.1c1.6 2.1 2 5 1.1 7.5-0.8 2.1-2.5 3.9-4.3 4.6q0.6 0.6 0.8 1.6c0.3 1 0.3 2 0 3 1.3 0.2 2.3 1 2.8 2.1q0.7 0 1.3 0.1 0.1-0.1 0.1-0.1c1.2-0.1 2.1-0.4 2.7-1.1q0.9-0.9 1.3-2.5c0.3-1.1 0.3-2.2 0.3-3.3q0-0.8-0.1-1.5 0-0.2 0-0.5c-0.1-0.3-0.2-0.7-0.1-1v-0.2h0.3q0.1 0 0.2 0.1c0.2 0.3 0.3 0.8 0.3 1.2q0.3-0.2 0.8-0.2 0 0 0.1 0c0.4 0 0.7 0.1 1.1 0.2q0.2 0.1 0.5 0.1 0.2 0.1 0.5 0.1c0.8 0.1 2 0.2 2.1 1.2v0.1 0.2q-0.1 0.1-0.2 0.1h-0.1l-0.2-0.2q-0.3-0.4-0.8-0.6-0.4-0.1-0.9-0.1-0.2 0-0.4-0.1-0.3 0-0.6-0.1c-0.4-0.1-0.8-0.2-1.1-0.2q-0.5 0-0.7 0.3 0 0.6 0 1.1 0.4-0.1 0.9-0.1c0.8 0 1.6 0.4 2.1 1.2 0.2 0.3 0.4 0.5 0.8 0.5q0.1 0 0.3 0 0.3 0 0.7 0.1c0.7 0.2 1.2 0.7 1.4 1.2v0.1l-0.1 0.2q-0.1 0.1-0.2 0.1h-0.1l-0.1-0.1c-0.5-0.5-0.9-0.8-1.5-0.8-0.5 0-1.1 0-1.6-0.6q-0.1-0.1-0.2-0.3-0.1-0.2-0.3-0.4-0.2-0.2-0.6-0.4-0.4-0.2-0.8-0.2-0.4 0-0.7 0.1c0 0.8 0 1.4-0.1 2q0.8 0 1.7 0.3l0.4 0.2q0.3 0.1 0.6 0.2l0.2 0.1c0.3 0.1 0.5 0.1 0.8 0.3l0.1 0.1v0.2q0 0.2-0.2 0.2-0.1 0-0.3 0c-0.2 0-0.5-0.1-0.8-0.2q-0.3-0.1-0.6-0.2l-0.3-0.1c-0.6-0.2-1.1-0.4-1.7-0.4q-0.1 0.5-0.2 0.9-0.2 0.5-0.5 1 0.4 0.2 0.9 0.2c0.5 0 1-0.1 1.5-0.2l0.3-0.1c0.3-0.1 0.8-0.1 1.3-0.1q0.9 0 1.5 0.4 0.1 0.2 0.1 0.4-0.1 0.2-0.3 0.2h-0.1c-0.5-0.2-0.9-0.3-1.3-0.3h-0.1c-0.4 0-0.9 0.1-1.3 0.2l-0.3 0.1c-0.3 0-0.8 0.1-1.2 0.1q-0.8 0-1.4-0.3c-0.4 0.5-1.1 1.3-2.1 1.6q0.8 0.4 1.3 1 0.5 0.2 0.9 0.5c0.3 0.1 0.6 0.3 0.9 0.4q0.4 0.1 0.7 0.1 0.7 0 1.3-0.5 0.2-0.1 0.3-0.2c0.4-0.3 0.7-0.6 1.2-0.8l0.3-0.2c0.5-0.2 1-0.4 1.5-0.8h0.1q0.2 0 0.3 0.1v0.1 0.1c-0.3 0.7-0.9 0.9-1.5 1.1l-0.2 0.1c-0.4 0.2-0.8 0.5-1.1 0.8q-0.4 0.3-0.8 0.5-0.6 0.4-1.4 0.4-0.3 0-0.7-0.1-0.7-0.1-1.3-0.5 0.1 0.4 0.1 0.8 0.2 0.4 0.3 0.8 0 0.3 0.1 0.5 0.1 0 0.2 0 0.3 0 0.6 0.1 0.2 0 0.4 0 0.3 0 0.6-0.1 0.2-0.2 0.5-0.3 0.2-0.2 0.5-0.3l0.1-0.1c0.3-0.2 0.6-0.3 1-0.4q0 0 0 0 0.3 0 0.3 0.2 0.1 0.2-0.1 0.4c-0.2 0.1-0.4 0.3-0.7 0.4q-0.2 0.1-0.3 0.1-0.3 0.2-0.5 0.3-0.3 0.2-0.6 0.4-0.3 0.1-0.8 0.1c-0.3 0-0.6-0.1-0.9-0.1q-0.2-0.1-0.3-0.1 0 0.2 0 0.4c0.1 0.3 0.1 0.6-0.1 0.8v0.1h-0.2-0.1l-0.1-0.1c-0.1-0.2-0.1-0.4-0.1-0.6v-0.2q0-0.3-0.1-0.7v-0.1q-0.1 0.2-0.2 0.4c-0.6 1.1-1.8 2-3.3 2.4q-1 0.4-2.1 0.4-0.4 0-0.7-0.1 0.1 0.1 0.1 0.1 0.5 0.2 0.9 0.4 0.2 0.1 0.5 0.1h0.1q0.2 0.1 0.3 0.2 0.2 0.1 0.2 0.3c0 0.1-0.1 0.2-0.3 0.2q0 0 0 0c-0.2 0-0.4 0-0.5 0q-0.1-0.1-0.3-0.1c0 1.2-1.2 1.8-2.1 2.4q-0.5 0.2-0.8 0.4c-0.9 0.7-1.3 1.7-1.2 2.7 0.2 1.1 0.9 2 1.9 2.3q0.3 0.1 0.7 0.2c0.5 0.1 1.1 0.2 1.6 0.7 0.4 0.5 0.5 1.1 0.1 1.7-0.1 0.2-0.3 0.4-0.5 0.6q-0.1 0.1-0.2 0.3-0.5 0.5-0.7 1.3-0.4 1.3 0.2 2.6c0.2 0.5 0.3 1 0.3 1.5q0-0.1 0.1-0.3c0-0.1 0.1-0.4 0.2-0.5l0.1-0.1 0.1-0.1c0.2 0 0.3 0.1 0.3 0.3 0.1 0.3 0 0.5-0.1 0.8l-0.1 0.1q-0.1 0.4-0.3 0.8-0.2 0.4-0.5 0.8-0.1 0.2-0.3 0.3 0 0.1-0.1 0.2-0.2 0.2-0.3 0.3h-0.1zm-4.5-6.9q0.2 0.2 0.4 0.4 0.3 0.3 0.6 0.5 0.6 0.5 1.3 0.9 1 0.6 2.3 0.9c-0.6-1.1-0.5-2.6 0.2-3.8q0.3-0.4 0.6-0.7l0.1-0.2c0.3-0.3 0.5-0.6 0.5-0.9 0-0.3-0.4-0.5-0.8-0.7q-0.4-0.1-0.7-0.1c-0.6-0.2-1.2-0.3-1.7-0.8-1.3-1-1.7-2.7-1.1-4.1 0.4-1 1.3-1.5 2.1-2 0.9-0.5 1.7-1 1.9-2q-0.3-0.2-0.6-0.3-0.5-0.2-0.9-0.6c-0.2-0.1-0.4-0.3-0.6-0.5q-0.2-0.1-0.4-0.3-0.1 0.1-0.1 0.1 0 0.2-0.1 0.3-0.2 0.3-0.5 0.6-0.5 0.6-1.2 1h-0.1c-0.1 0-0.3-0.1-0.3-0.2 0-0.1 0-0.3 0.1-0.3q0.6-0.4 1-0.9 0.2-0.2 0.4-0.5 0.1-0.1 0.2-0.3 0-0.1 0-0.1c-0.7-0.6-1.2-1.2-1.3-1.9q-0.1-0.1-0.3-0.1-0.1 0.8-0.3 1.6c-0.5 2.2-0.9 4.5-1.2 6.8-0.2 2.9-0.1 5.7 0.5 8.2zm2.1-16.3c0.3 0.4 0.5 0.8 0.9 1.1 0.6 0.4 1.2 0.7 2 0.9q0.5 0.1 1.1 0.1c1.3 0 2.5-0.4 3.4-1 1.2-0.8 2.1-2.3 1.5-3.9-0.6-1.4-2.1-1.7-3.8-1.8 0.2 0.8 0.1 1.7-0.4 2.5-0.5 0.9-1.4 1.6-2.5 1.9q0.9 0.4 1.7 0.4c1 0 1.8-0.4 2.4-1q0.5-0.4 0.7-1c0.1-0.3 0.3-0.8 0-1.1q-0.1-0.1-0.4-0.1-0.3 0-0.4 0.1c-0.3 0.2-0.4 0.6-0.4 1v0.1l-0.1 0.1q-0.1 0.1-0.2 0.1c-0.2 0-0.3-0.1-0.3-0.3-0.1-0.5 0.1-1 0.4-1.4q0.4-0.4 1-0.4 0.7 0 1 0.4c0.2 0.4 0.3 0.8 0.2 1.4-0.2 0.7-0.7 1.4-1.3 2-0.7 0.5-1.6 0.8-2.5 0.8-0.9 0-1.9-0.3-2.8-0.8q-0.2 0-0.4 0-0.2 0-0.3 0-0.2-0.1-0.5-0.1zm-4.4-5c0.7 1.1 1.3 2.2 2.2 3.1 0.9 0.8 2 1.3 3.1 1.3q0.4 0 0.9-0.2c1.3-0.3 2.6-1.4 2.7-3 0.1-1.5-1.1-2.8-2.7-2.9q-0.3 0.7-0.8 1.2c-0.7 0.8-1.7 1.2-2.9 1.2q-0.8 0-1.6-0.3-0.4-0.1-0.9-0.4zm-4.2-6.8c0.5 1.6 1.2 3 2.3 4.2 1.5 1.7 3 2.6 4.5 2.6 2.2-0.1 3.4-2.1 3.4-4 0-0.5-0.1-2-1.1-2.7-0.8-0.6-1.9-0.7-2.9-0.7q0 0 0 0-0.4 0.6-0.9 0.9-0.9 0.5-1.9 0.5-0.6 0-1.4-0.2c0.7 1.6 1.6 3.2 3.3 3.6q0.2 0 0.5 0c0.6 0 1.3-0.3 1.8-0.8 0.5-0.7 0.7-1.6 0.3-2.6v-0.1-0.1q0.1-0.2 0.3-0.2h0.1l0.2 0.2c0.4 0.9 0.4 1.9-0.1 2.8-0.6 1-1.6 1.6-2.6 1.6q-0.1 0-0.2 0-2.9-0.2-4.3-4.6-0.3-0.1-0.5-0.1-0.4-0.2-0.8-0.3zm-4.1-6c0.1 0.7 0.2 1.4 0.5 2.1q0.5 0.9 1.4 1.7c1.2 1 2.9 1.8 4.6 2.2q0.5 0.1 1 0.1 0.8 0 1.5-0.4c0.6-0.4 1-1.1 1.1-2 0-0.6 0-1.7-0.7-2.1-0.5-0.3-1.1-0.4-1.6-0.6q-0.3 0-0.5-0.1-0.1 0-0.2 0-1-0.1-2-0.2c-1.1-0.1-2.3-0.2-3.4-0.4 0.1 0.5 0.2 1.1 0.5 1.7q0.6 0.8 1.5 1.4 0.9 0.5 2.2 0.7 0.5 0.1 1 0.1h0.1c0.3 0 0.6-0.1 0.9-0.4h0.1 0.1q0.1 0 0.2 0.1l0.1 0.1-0.1 0.1q-0.2 0.8-1.4 0.8c-0.3 0-0.6-0.1-0.8-0.1-1.1-0.1-1.9-0.4-2.6-0.7-0.8-0.5-1.5-1.1-1.9-1.8-0.4-0.7-0.5-1.5-0.4-2.1q-0.6-0.1-1.2-0.3zm-7.3-5.7c0.6 0.7 1.1 1.4 1.8 2q1.5 1.3 3.3 2.1c2.3 1.1 4.8 1.4 7.3 1.6q0.9 0.1 1.8 0.2c0.3-0.7 0.3-1.6 0-2.3q-0.2-0.5-0.6-1-0.2-0.3-0.5-0.5-0.1-0.1-0.3-0.2c-0.9 0.2-1.9 0.3-2.7 0.3q-0.5 0-0.8 0-1.7-0.1-3.4-0.4-3.1-0.5-5.9-1.8z"/>
			<path id="&lt;Path&gt;" class="s3" d="m624.3 202.1c-0.2 0-0.4-0.2-0.4-0.4-0.5-5.7-3.3-10.7-7.6-13.5-2.2-1.5-4.8-2.3-7.7-2.5q-0.5 0-1.1 0c-1.6 0-3.2 0.2-4.8 0.3q-1.3 0.2-2.7 0.3 0 0 0 0c-0.2 0-0.3-0.1-0.3-0.3 0-0.1 0.1-0.3 0.2-0.3 2.5-0.5 5-0.8 7.4-0.8q0.5 0 0.9 0c4.5 0.1 8.5 1.9 11.4 5 2.8 3 4.6 7.2 5 11.8q0 0.2-0.1 0.3-0.1 0.1-0.2 0.1z"/>
			<path id="&lt;Path&gt;" class="s3" d="m559.1 103.8l-0.1-0.2c-0.4-0.9-0.3-2 0.1-3 0.5-1 1.2-1.8 1.9-2.1h0.1l0.2 0.2 0.1 0.1-0.2 0.1q-0.1 0.2-0.2 0.3-0.4 0.3-0.6 0.6-0.4 0.5-0.7 1-0.5 1.2-0.3 2.7v0.1 0.1l-0.1 0.1h-0.1z"/>
			<path id="&lt;Path&gt;" class="s3" d="m571.3 102.1c-0.2 0-0.3-0.1-0.3-0.3 0-0.1 0.1-0.2 0.2-0.3 0.9-0.2 1.5-0.3 2.2-0.3h0.3l0.1 0.3c0 0.1-0.1 0.2-0.3 0.2l-0.1 0.1c-0.7 0-1.4 0.1-2.1 0.3z"/>
			<path id="&lt;Compound Path&gt;" fill-rule="evenodd" class="s3" d="m562.8 116.2q-0.7 0-1.3-0.2-0.3-0.1-0.5-0.2c-0.3-0.1-0.5-0.2-0.6-0.4v-0.1l-0.1-0.1 0.1-0.1c0.3-0.3 0.8-0.5 1.3-0.6q0.5-0.1 1-0.1 0.2 0 0.3 0 0.7 0 1.4 0.2 0.3 0.2 0.6 0.3c0.2 0.1 0.4 0.3 0.5 0.5q0.1 0.1 0 0.3h-0.1l-0.2 0.1q-1 0.4-2.1 0.4-0.2 0-0.3 0zm-1.5-0.9q0.2 0.1 0.4 0.1 0.5 0.2 1.1 0.2 0.1 0 0.2 0 0.8 0 1.5-0.2-0.2-0.1-0.4-0.1-0.5-0.2-1.1-0.3-0.1 0-0.3 0-0.4 0-0.9 0.1-0.3 0.1-0.5 0.2z"/>
			<path id="&lt;Path&gt;" class="s3" d="m560 113.9l-0.1-0.1-0.1-0.2 0.2-0.1c0.4-0.5 1-0.7 1.6-0.8q0.7-0.2 1.7-0.3h0.3q0.7 0 1.6 0.1l0.1 0.1c0.6 0 1.3 0.1 1.9 0.4l0.1 0.1v0.2c0 0.1-0.1 0.2-0.2 0.2q0 0 0 0c-0.5 0-0.9-0.1-1.3-0.2q-0.2 0-0.5 0-0.9-0.2-1.7-0.2h-0.2q-0.8 0-1.6 0.3-0.5 0.1-0.9 0.3-0.3 0.1-0.7 0.2h-0.1z"/>
			<path id="&lt;Path&gt;" class="s3" d="m565.7 139.8q-0.3 0-0.7-0.1c-0.1 0-0.2-0.1-0.2-0.2v-0.2l0.2-0.1q0.2 0 0.3 0 0.7 0 1.6-0.2 0.4-0.2 0.8-0.3 0.2-0.1 0.4-0.3c0.2-0.1 0.3-0.2 0.5-0.2q0 0 0 0 0.2 0 0.3 0.2l0.1 0.1-0.1 0.1c-0.2 0.3-0.5 0.5-0.8 0.6-0.4 0.2-0.7 0.3-1 0.4q-0.6 0.2-1.4 0.2z"/>
			<path id="&lt;Path&gt;" class="s3" d="m585.8 124.9c-1.5 0-2.8-1.3-3.4-2.4q-0.1-0.1 0-0.3 0.1-0.1 0.3-0.1 0.1 0 0.2 0.1c0.6 1 1.6 2 2.9 2q0.3 0 0.5 0c0.7-0.2 1.2-0.6 1.4-1.2q0.2-0.4 0.1-0.8-0.1-0.3-0.2-0.5 0-0.1-0.1-0.1 0-0.1-0.1-0.3v-0.1-0.1q0.1-0.1 0.2-0.1h0.1 0.1c0.3 0.2 0.5 0.6 0.6 1 0.1 0.4 0.1 0.8 0 1.2-0.2 0.7-0.9 1.3-1.6 1.6q-0.5 0.1-1 0.1z"/>
			<path id="&lt;Path&gt;" class="s3" d="m583.7 142.9l-0.1-0.2q-0.1-0.5-0.1-1.1 0-0.3 0-0.5c0.1-0.2 0.1-0.5 0.2-0.6l0.1-0.1h0.2q0.1 0 0.2 0.1l0.1 0.2q-0.1 0.1-0.1 0.3-0.1 0.1-0.1 0.2 0 0.2-0.1 0.4 0 0.5 0.1 1l0.1 0.1-0.1 0.1-0.1 0.1h-0.1z"/>
			<path id="&lt;Path&gt;" class="s3" d="m567.6 101.6l-0.1-0.2v-0.2l0.2-0.1q1.4-0.6 2.9-0.9 0.8-0.2 1.5-0.2c0.3 0 0.5 0 0.7 0q0.4 0 0.7 0l0.2 0.1v0.2c0 0.1 0 0.2-0.2 0.3q-0.5 0-1 0.1-0.2 0-0.4 0-0.7 0-1.5 0.1-1.4 0.3-2.8 0.8z"/>
			<path id="&lt;Path&gt;" class="s3" d="m583.7 138.9l-0.1-0.1c-0.6-0.6-0.5-1.6-0.5-2.4 0.1-0.3 0.1-0.5 0.1-0.8 0.1-0.8 0.1-1.6 0.4-2.4 0.4-1 1.2-1.5 2-1.9 0.8-0.4 1.6-0.9 1.8-1.7l0.1-0.1h0.2 0.1l0.1 0.1v0.2c-0.2 1-1.1 1.5-1.9 1.9-0.6 0.4-1.2 0.7-1.5 1.2-0.5 0.6-0.6 1.6-0.6 2.4l-0.1 0.5c-0.1 1-0.2 1.8 0.3 2.7v0.1 0.2q-0.1 0.1-0.3 0.1z"/>
			<path id="&lt;Path&gt;" class="s3" d="m559.9 102.8l-0.2-0.1v-0.1-0.1q0.1-0.5 0.3-0.9 0.2-0.3 0.3-0.5 0.1-0.1 0.2-0.1 0.1-0.2 0.2-0.2h0.1l0.3 0.1q0 0.1 0 0.3-0.1 0.1-0.2 0.1l-0.1 0.3q-0.1 0.1-0.3 0.3-0.2 0.3-0.3 0.7c0 0.2-0.1 0.2-0.2 0.2z"/>
			<path id="&lt;Path&gt;" class="s3" d="m585.4 144.1l-0.2-0.1c-0.2-0.4-0.2-0.9-0.1-1.2q0.1-0.6 0.5-1.1 0.1-0.1 0.2-0.2c0.2-0.3 0.4-0.5 0.4-0.8-0.1-0.3-0.5-0.5-0.9-0.6-0.1 0-0.2-0.2-0.2-0.3v-0.2h0.3c0.4 0 0.9 0.1 1.3 0.6 0.3 0.4 0.2 0.9-0.1 1.3q-0.2 0.2-0.4 0.4c-0.2 0.3-0.3 0.4-0.4 0.7q-0.1 0.3-0.1 0.6 0 0.2 0 0.3 0 0.2 0.1 0.3v0.1l-0.1 0.1q-0.1 0.1-0.2 0.1z"/>
			<path id="&lt;Path&gt;" class="s3" d="m577.3 100l-0.1-0.1c-0.1-0.1-0.1-0.3-0.1-0.3q0-0.2 0-0.3 0-0.2-0.1-0.4-0.1-0.5-0.4-0.9v-0.1-0.2q0.1-0.1 0.3-0.1h0.1l0.1 0.1q0.3 0.5 0.5 1 0 0.3 0.1 0.5 0 0.2 0 0.3c0.1 0.1 0.1 0.2 0 0.3v0.1l-0.2 0.1z"/>
			<path id="&lt;Path&gt;" class="s3" d="m591.4 130c-0.2 0-0.3-0.2-0.3-0.3v-0.2l0.2-0.1q0.7-0.1 1.3-0.5c0.4-0.2 0.8-0.5 1.1-0.8l0.1-0.1h0.1q0.2 0 0.3 0.1v0.1 0.2c-0.3 0.5-0.7 0.9-1.2 1.1q-0.8 0.4-1.6 0.5z"/>
			<path id="&lt;Path&gt;" class="s3" d="m578.4 104.8l-0.1-0.1v-0.1-0.2c0.6-0.9 1.1-1.8 1.4-2.8q0.3-0.7 0.4-1.4 0.1-0.4 0.1-0.7 0.1-0.5 0.2-0.9v-0.2h0.2 0.2v0.2c0.2 1.1-0.1 2.3-0.5 3.2q-0.5 1.6-1.5 2.9l-0.1 0.1h-0.1z"/>
			<path id="&lt;Path&gt;" class="s3" d="m585.2 123.2q-0.1 0-0.3-0.1c-0.1 0-0.3-0.1-0.4-0.3v-0.1-0.1q0-0.1 0.2-0.2h0.1l0.1 0.2v-0.2h0.2q0.1 0 0.2 0c0.2 0 0.3 0 0.5-0.1q0.4-0.3 0.5-0.8v-0.2h0.2 0.2l0.1 0.2c0 0.5-0.2 1.1-0.6 1.4q-0.3 0.2-0.8 0.2-0.1 0.1-0.2 0.1z"/>
			<path id="&lt;Path&gt;" class="s3" d="m588.3 119.3l-0.1-0.3c0-0.1 0.1-0.2 0.2-0.3q0.3-0.1 0.6-0.2c0.4-0.1 0.8-0.3 1.1-0.5 0.5-0.3 1-0.7 1.3-1.2 0.7-1 0.7-2.1 0.8-3.3 0-0.6 0.1-1.1 0.3-1.5q0.2-0.4 0.5-0.7 0.2-0.4 0.4-0.8c0.6-1.2 0.1-2.5-0.5-3.6q-0.1-0.2 0-0.3 0.1-0.2 0.3-0.2 0.2 0 0.3 0.2c0.6 1.1 1.1 2.4 0.8 3.8-0.2 0.5-0.4 0.9-0.7 1.3q-0.1 0.2-0.2 0.3c-0.4 0.7-0.4 1.3-0.5 2v0.2c0 1.3-0.4 2.5-1.2 3.4-0.7 0.8-1.9 1.7-3.1 1.7z"/>
			<path id="&lt;Path&gt;" class="s3" d="m583.1 113.6c-0.2 0-0.3-0.1-0.3-0.3 0-0.1 0.1-0.3 0.2-0.3 1-0.2 2.3-0.4 2.3-1.5 0-0.3 0-0.5 0.2-0.8 0.1-0.2 0.2-0.4 0.3-0.5q0.2-0.2 0.3-0.3 0.4-0.3 0.6-0.6l0.1-0.1 0.1-0.1q0.2 0 0.3 0.1v0.1 0.2c0 0.4-0.4 0.7-0.6 1q-0.1 0.1-0.2 0.1c-0.2 0.2-0.3 0.3-0.3 0.5q-0.1 0.2-0.1 0.4 0 0.2 0 0.5c-0.1 0.5-0.5 0.9-1 1.2-0.7 0.3-1.3 0.4-1.9 0.4z"/>
			<path id="&lt;Path&gt;" class="s3" d="m581.9 105.7q-0.2 0-0.2-0.2-0.1-0.2 0-0.4c0.8-0.9 1.2-1.6 1.2-2.4q0-0.4-0.2-0.8c-0.1-0.6-0.2-1.2 0.2-1.8h0.1 0.1 0.1l0.1 0.1q0.1 0.1 0.1 0.2c-0.2 0.4-0.1 0.9 0 1.3 0.2 0.5 0.2 1 0.1 1.4-0.2 1.1-0.8 1.9-1.3 2.5h-0.1z"/>
			<path id="&lt;Path&gt;" class="s3" d="m535.3 423c-0.1 0-0.2-0.1-0.3-0.2-0.7-3.6-0.9-7.4-1.1-11.1q-0.1-1.1-0.2-2.2c-0.5-7.6-0.6-15.6-0.4-24 0.2-4.3 0.4-8.6 0.6-12.2 0.2-2.1 0.3-4.7 0.6-7.2v-0.1q-1-0.7-1.9-1.5c-3.9-3.1-7.5-6.5-10.8-10q-0.1 2.3-0.2 4.6 0 1.8-0.1 3.5c-0.2 6-0.4 12.6-0.5 20.8q0 3.6 0 7.2c0 4.5 0 9.2-0.3 13.7 0 0.2-0.1 0.3-0.3 0.3-0.2 0-0.3-0.1-0.3-0.3-0.2-3.4-0.2-7-0.1-10.4v-1.4c0-7 0.1-14 0.3-20.8q0.1-5.2 0.3-10.4v-1.9c0.1-2 0.1-4 0.3-6-3-3.2-5.5-6.5-7.7-9.9q-0.1 0-0.1-0.1-0.2 0.2-0.4 0.3-1 0.9-1.9 1.8c-1.2 1.1-2.3 2.3-3.6 3.8q-1.8 2-3.4 4.3-0.6 0.8-1.1 1.5c-0.6 1-1.2 1.9-1.9 2.7v0.1h-0.2q-0.1 0-0.2-0.1l-0.1-0.1 0.1-0.1c0.5-1.7 1.7-3.2 2.6-4.6l0.1-0.1c1-1.4 2-2.7 3.3-4.2 1.1-1.3 2.3-2.6 3.8-4q1-1 2.1-1.9l0.3-0.2c0.4-0.4 0.7-0.7 1.1-0.9 0.7-1.2 1.5-2.5 1.9-4.1 0.3-1.2-0.3-1.6-1.5-2-1-0.3-1.9-0.6-2.7-0.9-1.7-0.7-3.4-1.5-5.1-2.4-1.5-0.9-3.2-1.9-4.6-3.2q-0.1-0.2-0.1-0.3c0.1-0.2 0.2-0.2 0.3-0.2h0.1 0.1q1.1 0.7 2.2 1.4c1.1 0.7 2.2 1.4 3.4 2 2.2 1.1 4.2 1.9 6.1 2.5q0.2 0.1 0.4 0.2c0.6 0.1 1.2 0.3 1.6 0.6-0.7-6-1.2-12.6-1.5-21.2-0.4-13.3-0.2-26.6 0.9-39.5 0.5-6.4 1.2-12.9 2.1-19.4 0.8-6.3 1.8-13 3.3-19.6 0-0.2 0.2-0.3 0.4-0.3q0.2 0 0.4 0.1 0.1 0.2 0.1 0.4l-0.6 3.4c-1.1 6.1-2.2 12.4-3 18.7-1.6 12.6-2.6 25.7-2.8 39-0.1 6.2 0 12.6 0.3 19.6 0.2 5.3 0.6 10.7 1 15.9l0.3 3.8q0 0.1-0.1 0.2 0.1 0.7-0.1 1.6c-0.5 1.8-1.4 3.6-2.6 5.1q0 0 0.1 0c2.9 4.4 6.4 8.5 10.1 12.4 6.3 6.4 13.9 12.5 22.6 18 4.1 2.6 8.5 5.1 13.4 7.6 2.1 1.1 4.4 2.2 6.8 3.4q1.2 0.5 2.4 1.1c1.5 0.7 3.1 1.4 4.6 2.3 0.2 0 0.2 0.2 0.2 0.3-0.1 0.2-0.2 0.3-0.3 0.3h-0.1v-0.1c-1.7-0.5-3.2-1.3-4.7-2l-0.1 1q-0.2 1.3-0.3 2.7c-0.2 2.3-0.4 4.6-0.5 7.2-0.2 4.5-0.2 9.3-0.1 14.6v0.1l-0.1 0.1q-0.1 0.1-0.2 0.1c-0.2 0-0.3-0.1-0.3-0.3-0.4-4.7-0.5-9.7-0.4-14.8 0.1-2.3 0.3-4.7 0.5-7.3l0.1-0.8q0.1-1.5 0.3-3.1l-2.1-1c-2.8-1.4-5.4-2.7-7.8-4-8.7-4.5-16-9.1-22.5-14.1q-0.1 1.2-0.2 2.3c-0.2 2-0.3 4-0.4 6-0.5 7.9-0.7 15.9-0.5 23.7 0 4.1 0.2 8.2 0.4 12q0.2 2.2 0.4 4.5c0.2 2.4 0.4 4.9 0.4 7.4v0.1l-0.1 0.1q-0.1 0.1-0.2 0.1z"/>
			<path id="&lt;Path&gt;" class="s3" d="m460.6 77.6l-0.1-0.2c0-0.4 0.1-0.7 0.3-1 0.1-0.5 0.3-0.8 0.5-1.1q0.6-1 1.5-1.7 0.8-0.7 1.9-1.1 0.6-0.2 1.2-0.4h0.1c0.2 0 0.4-0.1 0.6-0.1q0-0.4 0-0.7v-0.7q0-0.2 0.1-0.4-0.2-0.3-0.3-0.6-0.2-0.5-0.2-1.1c-0.1-0.8 0-1.6 0.3-2.3 0.2-0.6 0.6-1.2 1.1-1.7q0.3-0.3 0.7-0.6c0.3-0.2 0.7-0.4 1-0.5q0 0 0 0 0.1 0 0.2 0.1c0.2 0 0.3 0 0.3 0.2 0.1 0.2 0.1 0.4 0 0.5v0.9c0 0.4 0 0.9 0 1.4q0.1 0.7 0.4 1.2 0.1 0.2 0.3 0.4l0.1 0.1q0.1 0.1 0.3 0.3c0.2 0.2 0.2 0.5 0.2 0.7q0.1 0.6 0.1 1.2v0.5 0.7q0.1 1.4 0.1 2.8c0 0.2-0.1 0.3-0.3 0.3-0.2 0-0.3-0.1-0.3-0.2q-0.1-1.3-0.2-2.6l-0.1-2.1c0-0.4 0-0.7-0.1-0.9q-0.4-0.2-0.7-0.8-0.3-0.6-0.5-1.3c0-0.6 0-1.1 0-1.6q0.1-0.9 0.1-0.9-0.1 0-0.1 0-0.2 0.1-0.3 0.2-0.4 0.2-0.7 0.6c-0.4 0.4-0.8 0.9-1 1.4-0.2 0.6-0.3 1.3-0.2 1.9q0 0.4 0.2 1 0 0.1 0.1 0.2c0.1 0.2 0.2 0.4 0.2 0.7v0.1q0 0.1 0 0.3l-0.1 0.6q0 0.5-0.1 1v0.1q0 0.2-0.1 0.3c-0.3 0.1-0.5 0.1-0.8 0.1q-0.2 0-0.3 0.1-0.5 0.1-1 0.2-1 0.4-1.8 1.1-0.8 0.7-1.4 1.5-0.2 0.5-0.4 0.9-0.1 0.2-0.1 0.3c-0.1 0.2-0.2 0.4-0.3 0.6l-0.1 0.1h-0.1z"/>
			<path id="&lt;Path&gt;" class="s3" d="m463.8 83.3q-0.8 0-1.6-0.3l-0.1-0.1v-0.2c0-0.1 0.1-0.2 0.2-0.2q0.8 0.1 1.4 0.1 0.2 0 0.4 0 0.4 0 0.8-0.1 0.2-0.1 0.4-0.1c0.2-0.1 0.3-0.2 0.4-0.2q0.3 0.1 0.3 0.3 0.1 0.1 0 0.3c-0.1 0.1-0.3 0.2-0.4 0.2-0.3 0.1-0.4 0.1-0.6 0.2q-0.4 0.1-0.9 0.1-0.1 0-0.3 0z"/>
			<path id="&lt;Path&gt;" class="s3" d="m509.3 383.3c-0.1 0-0.2-0.1-0.3-0.2q-0.1-0.1 0-0.3c2.3-2.9 3.4-5.7 3.2-8.3-0.2-2.9-1.9-5.3-4.5-6.3-0.2-0.1-0.3-0.3-0.2-0.5 0-0.2 0.2-0.3 0.4-0.3h0.1c2.9 0.7 4.8 3.8 5.1 6.5 0.4 3.1-0.9 6.5-3.5 9.3l-0.1 0.1z"/>
			<path id="&lt;Path&gt;" class="s3" d="m500.4 317.5c-0.2 0-0.4-0.2-0.4-0.4-0.5-6.8-0.3-13.9 0.4-21.7 1.1-11.4 3.4-23.4 7.2-37.7 1.4-5.6 3.1-11.4 5.4-18.5l0.6-2.1c0.7-2.3 1.5-4.7 2.3-7.1q0.5-1.6 1.1-3.3c0.6-1.9 1.2-3.9 1.9-5.8 0.1-0.2 0.3-0.3 0.5-0.3q0.2 0 0.4 0.2 0.1 0.1 0 0.4c-0.6 2.3-1.4 4.6-2.1 6.8q-0.6 1.7-1.2 3.5-0.5 1.6-1 3.3-1.1 3.4-2.2 6.9c-3.1 10-7 23.3-9.5 37.1-2.4 13-3.4 25.9-3.1 38.3q0 0.1-0.1 0.2-0.1 0.1-0.2 0.2z"/>
			<path id="&lt;Compound Path&gt;" fill-rule="evenodd" class="s3" d="m501.3 151.4l-0.2-0.2c-1.2-3.2-1.7-6.8-1.6-10.6q-0.9-0.5-1.6-1.1-0.8-0.5-1.5-1l-0.1-0.1c-0.4-0.4-0.9-0.7-1.3-1.2q-0.1-0.1 0-0.3 0.1-0.2 0.3-0.2l0.1 0.1q0.6 0.3 1.1 0.8l0.3 0.3q0.8 0.5 1.5 1 1.3 0.9 2.8 1.8c1.6-2.3 2.7-5.1 3.3-8.3 0.4-1.7 0.6-3.7 0.7-6q0.1-1.2 0.1-2.4-0.1-0.8 0-1.6l-0.6-1q-0.4-0.6-0.8-1.2v-0.1-0.2q0.1-0.1 0.3-0.2h0.1l0.1 0.2q0.4 0.6 0.8 1.2l0.1 0.1q0-0.4 0.1-0.9c0-0.2 0.1-0.3 0.3-0.3 0.2 0 0.3 0.1 0.3 0.3 0.2 0.9 0.1 1.7 0.1 2.6v0.7q0 1.6-0.1 3.2c-0.1 2.2-0.4 4.1-0.7 5.9-0.8 4-2.3 7.2-4.5 9.7l-0.2 0.1c-0.1 0-0.2-0.1-0.3-0.2v-0.1q0.1 4.3 1.5 8.8v0.1l-0.1 0.1q-0.1 0.2-0.2 0.2zm-1-10.4q-0.1 0.6-0.1 1.1l0.1-0.1q0.2-0.3 0.5-0.7-0.3-0.1-0.5-0.3z"/>
			<path id="&lt;Path&gt;" class="s3" d="m556.3 129.8q-0.4 0-0.7 0l-0.2-0.1-0.1-0.2c0.1-0.2 0.2-0.3 0.3-0.3 1 0 1.9-0.1 2.7-0.4q0.7-0.2 1.3-0.6-0.5 0.1-0.9 0.1-0.6 0.1-1.2 0.1 0 0 0 0-0.6 0-1-0.1h-0.4v-0.2-0.2l0.2-0.1q1.3 0 2.6-0.1-0.3-0.2-0.6-0.3h-0.2c-0.7-0.3-1.4-0.6-2.2-0.6q-0.2 0-0.4 0h-0.2l-0.1-0.2v-0.2l0.2-0.1q0.4 0 0.8 0 0.9 0 2 0.4l0.3 0.1q0.5 0.2 1 0.4 0.3 0.1 0.6 0.1 0.2 0.1 0.3 0.1 0.2 0 0.3 0h0.1q0.2 0 0.3 0.2 0.1 0.1 0 0.3c-0.1 0.2-0.3 0.3-0.5 0.4l-0.1 0.1q-0.3 0.2-0.6 0.4-0.6 0.4-1.3 0.6-1.2 0.4-2.3 0.4z"/>
			<path id="&lt;Path&gt;" class="s3" d="m465.4 69.7q-0.4-0.1-0.8-0.2-0.3-0.1-0.6-0.2-0.8-0.2-1.5-0.2-0.3 0-0.6 0-0.4 0-0.8 0-0.3 0-0.6 0.1-0.4 0-0.8 0.1-0.3-0.1-0.3-0.2l-0.1-0.2 0.2-0.1c0.4-0.3 0.8-0.3 1.3-0.4q0-0.2 0-0.3 0-0.3 0-0.7 0.1-0.6 0.2-1.1c0.1-0.7 0.2-1.4 0.4-2.1q-0.1-0.2-0.1-0.3c-0.1-0.2-0.1-0.3-0.2-0.4q-0.1-0.4-0.2-0.8-0.1-0.4-0.1-0.8c-0.1-0.3-0.1-0.5-0.1-0.8l0.1-0.1 0.2-0.1q0.2 0 0.2 0.2 0.1 0.3 0.2 0.6v0.1q0.1 0.4 0.2 0.8 0.1 0.4 0.2 0.7v0.2q0.1 0.2 0.2 0.4 0 0.1 0 0.2-0.1 0.5-0.2 1-0.1 0.6-0.2 1.3-0.1 0.5-0.1 1.1l-0.1 0.4q0 0.2 0 0.5 0.2 0 0.5 0 0.3 0 0.7 0 0.3 0 0.6 0.1 0.2-1 0.4-1.9 0.1-0.6 0.3-1.2v-0.1q0.1-0.3 0.2-0.6-0.1-0.8-0.1-1.6v-1q-0.1-0.3 0-0.5c-0.3-0.7-0.6-1.4-0.7-2.1q-0.2-0.5-0.3-1.1 0-0.1-0.1-0.6-0.1-0.2-0.1-0.5c0-0.1 0.2-0.2 0.3-0.2h0.2l0.1 0.1c0.1 0.3 0.1 0.5 0.2 0.8q0 0.1 0 0.3 0.1 0.5 0.3 1c0.2 0.6 0.4 1.3 0.6 2.1h0.1v0.2c0 0.1 0 0.3 0 0.4l0.1 1c0 0.6 0.1 1.2 0.1 1.7v0.1h-0.1q0 0.2 0 0.4-0.1 0.2-0.2 0.5-0.2 0.5-0.3 1-0.2 0.9-0.3 1.9 1 0.2 1.7 0.6l0.1 0.1v0.2c0 0.2-0.1 0.2-0.3 0.2z"/>
			<path id="&lt;Path&gt;" class="s3" d="m504.5 155.6l-0.1-0.1-0.1-0.1 0.1-0.2c1.5-4.4 2.6-8.8 3.2-13.1 0.3-2.2 0.5-4.6 0.6-6.9 0-1.8-0.1-3.6-0.2-5.3v-1.5q-0.1-0.1 0-0.2 0.1-0.1 0.3-0.1c0.2 0 0.4 0.1 0.4 0.3 0.5 3.9 0.4 8.4-0.3 13.6-0.7 4.7-1.8 9.2-3.5 13.4q-0.1 0.2-0.3 0.2z"/>
			<path id="&lt;Path&gt;" class="s3" d="m509.3 161.5q-0.2-0.1-0.3-0.2-0.1-0.2-0.1-0.3c1.4-2.8 2.6-5.7 3.5-8.5 1.7-4.9 2.7-10 3.2-15.2 0.4-4.7 0.7-10.1-1.8-14.7q-0.1-0.2 0-0.4 0.1-0.2 0.3-0.2 0.1 0 0.3 0.2c1.2 1.9 2 4.5 2.2 7.9 0.2 4.7-0.3 10.1-1.6 15.9-1.2 5.4-3 10.5-5.5 15.3q-0.1 0.1-0.2 0.2z"/>
			<path id="&lt;Path&gt;" class="s3" d="m571.9 452.9q-1 0-2-0.2c-6.1-0.7-11.5-4.2-16.5-7.9-0.1 0-0.2-0.2-0.1-0.3 0-0.2 0.1-0.2 0.3-0.2h0.1q0.9 0.5 1.7 1c5.2 3.2 10.6 6.4 16.7 6.4q0.6 0 1.2-0.1c3.6-0.2 6.3-2 9.1-3.9 1.9-1.3 3.8-2.6 6.1-3.4 1.6-0.6 3.3-0.9 5.1-0.9 2.7 0 5.3 0.6 7.9 1.2l0.7 0.1q1.8 0.4 3.6 0.4c4.3 0 8.3-1.5 12.5-3.1 1.6-0.6 3.4-1.3 5.1-1.8h0.1c0.2 0 0.4 0.1 0.4 0.3 0.1 0.2 0 0.4-0.2 0.4q-1.1 0.5-2.3 1.1c-4.7 2.1-10 4.5-15.2 4.5q-0.3 0-0.7 0c-1.7-0.1-3.4-0.5-5-0.9-1.6-0.4-3.2-0.8-4.8-0.9q-0.6 0-1.2 0c-3.5 0-6.7 1-9.9 3.2-4.4 2.9-7.9 5-12.7 5z"/>
			<path id="&lt;Path&gt;" class="s3" d="m651.7 444.8q-0.7 0-1.2 0c-3.9-0.2-7.6-1.1-11.1-2-4-1-8.1-2.1-12.3-2.1q-0.6 0-1.3 0.1c-0.1 0-0.3-0.1-0.3-0.3 0-0.2 0.1-0.3 0.3-0.3q1.4-0.2 2.9-0.2c4.2 0 8.2 1 12.4 2.1l0.5 0.1c3.1 0.8 7.2 1.7 11 1.7 5.2 0 8.6-1.7 10-5.2 0.1-0.1 0.2-0.2 0.4-0.2q0.2 0 0.3 0.1 0.1 0.2 0.1 0.4c-1.4 5.3-8.7 5.8-11.7 5.8z"/>
			<path id="&lt;Path&gt;" class="s3" d="m636.3 429.2q-0.1 0-0.2-0.1c-2.9-2.6-5.7-5.5-8.4-8.3q-1.4-1.4-2.8-2.8l-1.1-1.2c-2.5-2.4-5-4.9-7-7.8-2.4-3.3-3.9-6.8-4.6-10.8-0.6-3.1-0.6-6.3-0.7-9.5q0-1.3 0-2.6c-0.1-2.2-0.2-4.1-0.4-6.1-0.2-1.7-0.6-3.3-1-5l-0.3-1.2q0-0.2 0.1-0.4 0.1-0.1 0.3-0.1 0.3 0 0.4 0.2c1 2 1.3 4.4 1.6 6.4 0.3 2.5 0.3 4.9 0.4 6.8v1.1c0 3.6 0 7.4 0.7 11 0.7 3.8 2.5 7.4 5.2 10.8 2.1 2.6 4.4 5 6.7 7.3q0.9 0.8 1.7 1.7 1.1 1.1 2.3 2.3c2.4 2.5 5 5.1 7.4 7.8q0.1 0.1 0 0.3c0 0.1-0.2 0.2-0.3 0.2z"/>
			<path id="&lt;Path&gt;" class="s3" d="m548.5 426.5c-0.2 0-0.3-0.1-0.4-0.3-1.1-3.3-2-6-2.7-8.6-1.4-5.2-2.5-10.4-3.2-15.7-0.6-4.4-1.2-10.2-1-15.8 0-0.2 0.2-0.4 0.4-0.4 0.2 0 0.3 0.2 0.3 0.4q0.1 1.6 0.2 3.3c0.1 1.8 0.2 3.7 0.3 5.6 0.9 10.5 3 20.9 6.4 31q0.1 0.2 0 0.3-0.1 0.2-0.3 0.2z"/>
			<path id="&lt;Path&gt;" class="s3" d="m508.5 156.8c3.2-9.5 6.8-20.2 3.1-30.5-1-2.9-2.2-5.1-3.7-6.6q-0.1-0.2-0.3-0.2c-0.1 0-0.3 0.1-0.3 0.3q-0.1 0.1 0 0.3c1.2 1.8 2.5 3.7 3.4 5.9 0.8 2.1 1.3 4.4 1.5 6.8 0.4 4.5-0.1 9.2-1.7 15.1-0.8 3-1.7 5.9-2.6 8.7q-0.1 0.2 0 0.3 0.1 0.1 0.3 0.1c0.1 0 0.2-0.1 0.3-0.2z"/>
			<path id="&lt;Path&gt;" class="s3" d="m564.8 361.3q-0.1 0-0.3-0.1l-0.4-0.7q-0.7-1.1-1.4-2.3c-4.6-7.6-8.9-15.8-12.8-24.3-3.8-8.4-7.2-16.9-10-25.3-2.9-8.8-5.4-17.7-7.4-26.5-1.9-8.4-3.5-17.5-4.6-26.9-0.5-4.2-1-8.7-1.3-13.7-0.3-4.7-0.5-9.2-0.4-13.7 0-0.2 0.2-0.4 0.4-0.4 0.2 0 0.4 0.1 0.4 0.4q0.1 1.7 0.1 3.4c0.3 9.7 1 18.5 2.1 27.1 1.2 8.9 2.8 18 5 27 2.1 8.7 4.6 17.5 7.7 26.1 3 8.6 6.5 17.1 10.4 25.4 4.2 8.9 9.1 17.5 12.8 24q0.1 0.2 0 0.3c0 0.1-0.1 0.2-0.3 0.2z"/>
			<path id="&lt;Path&gt;" class="s3" d="m569.7 256.3c-2 0-4-0.6-6.1-1.7-0.1-0.1-0.2-0.2-0.1-0.4 0-0.1 0.1-0.2 0.3-0.2h0.1c2.2 0.9 4 1.3 5.6 1.3 1.5 0 2.7-0.3 3.9-1 2.1-1.2 3.7-3.5 4.8-6.9 0.9-3.2 1.4-6.7 1.7-9.4 0.3-3.5 0.5-6.6 0.4-9.6 0-2.1-0.2-4.2-0.4-6.3q-0.1-1.7-0.2-3.5v-0.1l0.1-0.1q0.1-0.1 0.2-0.1c0.1 0 0.2 0.1 0.3 0.2 0.9 4 1 8.1 1 11.9 0 3.2-0.2 6.6-0.8 10.3-0.5 3.5-1 6.7-2.4 9.6-1.3 2.8-3.4 4.9-5.7 5.6q-1.3 0.4-2.7 0.4z"/>
			<path id="&lt;Path&gt;" class="s3" d="m608.1 368.4l-0.1-0.1c-1.8-3.2-3.2-6.9-4.2-10-2-6-3.4-12.4-4.1-19.1-0.8-7-0.8-13.5 0-19.5 0-0.2 0.2-0.4 0.4-0.4q0.2 0 0.4 0.2 0.1 0.1 0.1 0.3c-0.3 3-0.5 6.9-0.5 10.9 0.1 6.3 0.9 12.8 2.3 19.1 0.7 3.1 1.6 6.1 2.6 9.2 0.7 1.9 1.4 3.7 2.1 5.5q0.7 1.8 1.4 3.6v0.1l-0.1 0.1v0.1h-0.2z"/>
			<path id="&lt;Path&gt;" class="s3" d="m575.7 347.1q-0.2 0-0.3-0.1c-4-5.5-8-11.4-11.8-17.7-6.4-10.6-12-21.8-16.7-33.4-2.4-5.8-4.6-11.7-6.5-17.7-1-3-1.9-6-2.7-8.9l-0.5-1.6c-0.7-2.5-1.4-5.1-1.8-7.7q-0.1-0.1 0-0.3 0.2-0.1 0.3-0.1c0.2 0 0.3 0.1 0.4 0.3 0.6 2 1.2 4.1 1.7 6.1q0.5 2 1.1 4c1 3.5 2 6.9 3.1 10.1 3.9 11.8 8.8 23.5 14.5 34.6 5.5 10.6 11.9 21 19.5 31.9q0.1 0.1 0 0.3-0.1 0.2-0.3 0.2z"/>
			<path id="&lt;Path&gt;" class="s3" d="m559.2 277q-0.1 0-0.3-0.2c-1.7-2-3.3-4.1-4.8-6.2q-0.6-0.9-1.3-1.8c-7.7-10.4-14.3-20.3-20.2-30.2q-0.1-0.2 0-0.4 0.1-0.1 0.2-0.1 0.2 0 0.3 0.1c1.6 2.6 3.6 5.6 5.6 8.6 3.5 5.5 6.9 10.4 10.2 15 1.7 2.4 3.5 4.8 5.2 7.2q1.1 1.4 2.2 2.8c1.1 1.4 2.3 3 3.3 4.5q0.2 0.2 0.1 0.4c-0.1 0.2-0.3 0.3-0.5 0.3z"/>
			<path id="&lt;Compound Path&gt;" fill-rule="evenodd" class="s3" d="m614 438.9l-0.1-0.2c-1.9-2.3-3.7-5-5.4-8-2.6-4.8-4.8-10.1-6.6-15.7-0.9-2.8-1.6-5.6-2.1-8.4l-0.1-0.2c-0.5-2.7-1-5.4-1.1-8.2l-0.9-0.3q-0.8-0.2-1.5-0.5c-1.8-0.5-3.8-1.2-6-2q-3.1-1.1-6-2.3c-1.9-0.8-3.9-1.5-5.7-2.6-0.1-0.1-0.2-0.2-0.1-0.3 0-0.1 0.1-0.2 0.2-0.2 1.8 0.5 3.5 1.2 5.1 1.9l1 0.4c1.8 0.7 3.6 1.4 5.9 2.2 1.8 0.7 3.7 1.3 6.1 2.1q1.2 0.4 2.3 0.7c1 0.3 2 0.6 3 1-0.5-4.8-0.8-9.7-1-14.4-0.2-3.6-0.4-7.3-0.7-10.9-0.6-5.8-1.6-14.4-5-22.3-3.1-7.3-8-13.5-12.4-18.7q-1.7-2-3.4-3.9c-3.7-4.2-7.4-8.5-10.7-13.2-5-7.2-7.7-13.4-8.4-19.7q0-0.1 0.1-0.2 0.1-0.2 0.3-0.2c0.2 0 0.3 0.1 0.3 0.3 1.6 7.4 5.1 14.6 10.8 22.1 2.5 3.4 5.4 6.7 8.2 9.9 2 2.3 4.1 4.8 6.1 7.3q2 2.4 3.8 4.9c2-2.7 3.4-6.1 4-9.9 0.7-4.2 0.5-8.6 0.3-12.9q0-1.1-0.1-2.1c-0.2-4.6 0.1-9.2 0.4-13.7l0.1-2c0.2-4.2 0.4-9.2-0.7-14-0.7-3.3-2-6.2-3.8-8.8-0.7 5.1-2.1 10.1-7 10.3q-0.1 0-0.2 0c-2.7 0-5-1.7-7.1-3.1-2.2-1.6-4.3-3.3-6.2-5.1-1.9-1.9-3.6-4-5.2-6-1.3-1.8-2.7-3.7-3.7-5.8l-0.1-0.1-0.1-0.1c-3.1-3.2-5.9-6.5-8.6-9.8-3.1-3.8-5.9-7.3-8.5-10.8-3.5-4.5-6.1-8.1-8.3-11.6-2.3-3.6-3.9-6.4-5.2-9.1q-0.7-0.3-1.4-0.7-0.7-0.5-1.4-1h-0.2q-0.1-0.1-0.1-0.2-1.1-0.8-2.1-1.8c-0.6 3.5-1.4 7.2-2.7 10.7 0 0.2-0.1 0.3-0.3 0.3h-0.1l-0.1-0.2q-0.1-0.1-0.1-0.2 0.4-1.7 0.8-3.4c0.6-2.6 1.2-5.3 1.7-8-2.2-2.5-3.6-5.3-4-8.1q0-0.1 0.1-0.3 0.1-0.1 0.2-0.1c0.2 0 0.3 0.1 0.4 0.3q0.5 1.9 1.3 3.5c1.3 0.5 2.8 0.7 4.6 0.7 1.6 0 3.4-0.2 4.9-0.4 6-0.7 11.9-2.1 17.4-4.3 5-1.9 10.2-4.6 15.8-8.3l0.2-0.1c0.1 0 0.3 0.1 0.3 0.3 0.1 0.2 0 0.3-0.1 0.4-2.6 2-5.5 3.8-8.9 5.5-5.4 2.8-11.2 4.8-17.2 6.2-3 0.7-6 1.2-9 1.4-1 0.1-2.2 0.2-3.4 0.2-1.7 0-3-0.2-4.2-0.6q0.9 1.6 2.1 3 1.5 1.7 3.6 3.1c2.6 0.8 5.3 1.2 8 1.2q1.5 0 3-0.2c6-0.7 12.1-3.2 19.1-7.9 5.3-3.5 10.5-7.9 15.9-13.3q0.2-0.2 0.3-0.2c0.2 0 0.3 0.1 0.4 0.3 0 0.1 0 0.3-0.1 0.4-2.5 2.8-5.4 5.6-9 8.5-6.5 5.3-12.2 8.8-17.9 10.9-4 1.5-8.2 2.4-12 2.4q-2.7 0-5.1-0.6 0.2 0.1 0.5 0.3c3 1.3 6.3 2 9.7 2 6.9 0 14.6-2.7 23-7.9 4.6-2.8 8.8-6.1 12.6-9.8 1.8-1.8 3.5-3.7 5.2-5.9 1.2-1.4 2.2-2.9 3.1-4.3-5.6-4.4-11.3-9.3-15.3-15.5q-2.6-0.5-4.7-2c-1.1-0.9-2.1-1.9-3.1-2.8l-0.8-0.8q-0.6-0.6-1.2-1.2c-2.2-2-4.4-4.1-5.8-6.7v-0.1-0.2q0.1 0 0.2-0.1 0.1-0.8 0.7-1.6 0.3-0.4 0.7-0.6 0.2-0.2 0.5-0.3 0.1 0 0.3-0.1l0.2-0.1q0 0 0 0 0.2 0 0.3 0.1 0.1 0 0.3 0 0.2 0.1 0.5 0.2 0.2 0.1 0.5 0.2 0.2 0.1 0.3 0.2 0 0 0 0 0-0.1-0.1-0.2c-0.3-0.4-0.8-1.3-0.5-2.1 0.3-0.7 1-1.1 1.6-1.4q0.9-0.4 1.9-0.5 0-0.1 0-0.2-0.1-0.6 0.1-1.1c-1.5-0.2-3.2-1.1-4.6-2.6q-2-2.3-2.7-5.9c-0.9-4.4-0.1-9 2-13.1q0.1-0.2 0.4-0.2c0.1 0 0.3 0.1 0.4 0.2q0.1 0.2 0 0.5c-2 3.7-2.7 8-2 12q0.6 3.6 2.4 5.7c1.1 1.3 2.5 2.1 4.5 2.7q0.5-0.6 1.2-0.8 0.2 0 0.4 0c0.5 0 1 0.1 1.5 0.4q0.5-0.4 1-0.7 0.3-0.2 0.7-0.3 0.1-0.1 0.3-0.1 0.2-0.1 0.4-0.1h0.1c0.5 0.1 0.9 0.4 1.1 0.5q0.2 0.2 0.6 0.4 0 0 0-0.1 0.1-0.5 0.2-0.7 0.3-0.7 0.9-1.1c0.6-0.7 1.6-1 2.5-1h0.1c0.1 0 0.2 0 0.3 0.1q0.3 0.2 0.4 0.9 0.2 1 0.3 2.1l0.3 1.7c3.2-1.1 5.6-2.5 7.5-4.2q1.8-1.6 3-3.4c0.7-1 1.2-2 1.8-3.1l0.4-0.9q0.1-0.1 0.3-0.1 0.2 0 0.3 0.1 0.1 0.1 0 0.3c-0.9 3.5-3.7 6.3-5.3 7.7-2.4 2.2-5.3 3.7-7.9 4.3l0.2 1.7q0.1 0.1 0.2 0.2h0.1l0.1 0.2c0.5 0.6 0.9 1.5 1.2 2.3 0.5 1 0.8 2 1.1 2.9q1.1 3.1 1.9 6.3 0 0 0 0.1l1.1 0.8c1.3 0.8 2.7 1.8 4.1 2.6 1-2.5 2.2-5.2 3-7.9 0.9-2.6 1.6-5.4 2.2-8.1 0.6-2.9 1.1-5.8 1.3-8.6q0.2-2.1 0.3-4.1 0-0.7 0-1.5c0-0.9-0.1-1.8 0.1-2.7 0-0.1 0.1-0.3 0.3-0.3 0.2 0 0.3 0.1 0.3 0.3 0.2 1 0.2 2.2 0.1 3.3q0 0.4 0 0.9-0.1 2.2-0.3 4.4c-0.3 2.8-0.7 5.7-1.3 8.5-1.2 6.1-3.1 11.6-5.4 16.2q1 0.7 2.1 1.3c3.1 1.7 6.3 3.3 9.7 4.5 2.3-2.7 5-5.9 8.3-8.3q2.4-1.9 5-2.9c1.6-0.7 3.4-1.4 5.1-1.4q0.1 0 0.2 0c0.2 0 0.4 0.2 0.4 0.4 0 0.2-0.1 0.3-0.3 0.4q-0.6 0.1-1.3 0.2-0.7 0.1-1.4 0.3-1.4 0.4-2.8 1-2.3 1-4.6 2.7c-2.9 2.3-5.4 5.1-7.8 7.9q2.7 1 5.4 1.8c1.7 0.5 3.5 0.9 5.2 1.3q1.6 0.4 3.3 0.8c2.5 0.6 5.4 1.4 7.8 2.8 0.9 0 1.4 1.1 1.8 1.8 0.5 1.2 1 2.3 1.4 3.4 0.9 2.7 1.3 5.4 1.1 7.9 0 0.1-0.2 0.3-0.4 0.3q-0.1 0-0.2-0.1-0.1-0.1-0.1-0.3 0.2-3.2-0.9-6.8-0.5-1.6-1.3-3.2l-0.1-0.4c-0.4-0.9-0.8-1.7-1.7-2q-0.1 0-0.1-0.1c-2.8-1.2-5.8-2.1-9.1-2.9-5.3-1.2-10.9-2.7-16.4-5.2-2.7-1.2-5.3-2.5-7.7-4-2.4-1.4-4.8-2.9-7-4.7q-0.1-0.1-0.1-0.3-0.8-3.2-1.8-6c-0.3-0.8-0.6-1.9-1.1-2.9q-0.2-0.6-0.6-1.2-0.2-0.5-0.4-1-0.1 0-0.1-0.1-1-0.7-1.9-1.5-0.8-0.7-1.6-1.4-1-0.7-2-1.5-0.4-0.3-0.9-0.6-0.2-0.2-0.4-0.3-0.1 0-0.2 0c0 0-0.1 0-0.1 0q-0.2 0.1-0.4 0.2-0.3 0.1-0.6 0.2-0.4 0.2-0.7 0.5 0.3 0.2 0.7 0.5l2.2 1.7c0.4 0.3 0.9 0.7 1.1 1.2v0.1l-0.1 0.2q-0.1 0.1-0.2 0.1-0.2 0-0.3-0.1c-0.3-0.4-0.6-0.7-1.1-1l-1.5-1.2q-0.3-0.2-0.5-0.4c-0.7-0.6-1.5-1.2-2.4-1.2q0 0 0 0-0.6 0-1 0.5c-0.4 0.4-0.5 1.1-0.3 1.7q0.1 0.7 0.6 1.4 0.2 0.2 0.3 0.3c0.2 0.3 0.5 0.6 0.6 0.9v0.1 0.1l-0.1 0.1h-0.1-0.1-0.1c-0.5-0.3-0.9-0.9-1.3-1.5q-0.2-0.4-0.4-0.8-0.9 0.1-1.7 0.4c-0.5 0.3-1.1 0.6-1.3 1-0.3 0.5 0.1 1.1 0.4 1.6l0.1 0.1c0.2 0.3 0.5 0.6 0.8 0.9q0.2 0.3 0.4 0.6l0.1 0.1q0 0.2-0.1 0.3l-0.2 0.1q-0.1 0-0.1 0-0.3-0.2-0.6-0.4-0.1 0-0.3-0.1-0.4-0.2-0.8-0.4c-0.4-0.3-0.9-0.4-1.4-0.6h-0.3-0.2q-0.2 0.1-0.4 0.2-0.3 0.3-0.6 0.6c-0.3 0.4-0.6 0.9-0.7 1.4v0.1c1.9 2.7 4.2 4.9 6.6 7.2 0.4 0.3 0.7 0.6 1 0.9 0.9 1 1.9 1.9 2.9 2.7q2 1.5 4.6 2.1 0.2 0 0.3 0.2c2.5 3.6 5.5 6.9 9 10.1 3.1 2.7 6.4 5.3 9.5 7.7 3.1 2.4 6.5 4.9 10.2 6.8 4.6 2.4 9.5 3.8 13.8 3.8 4 0 7.4-1.1 10.2-3.3l0.2-0.1c0.1 0 0.3 0.1 0.3 0.3q0.1 0.2-0.1 0.3c-1.9 1.6-4.3 2.6-7.1 3.2q0 4.4 0 8.9c0 8 0.1 16 0.3 23.8q0 0.8 0 1.1 0.3-1.1 0.6-2.1c0.4-1.7 0.8-3.4 1.1-5.1q0.5-2.4 0.9-4.9 0.1-0.9 0.2-1.8c0.1-1 0.2-2.1 0.4-3.1 0-0.1 0.2-0.2 0.3-0.2 0.2 0 0.3 0.1 0.3 0.3 0.1 1.4-0.1 2.9-0.3 4.3l-0.1 0.6q-0.3 2.4-0.8 4.9c-0.6 3.3-1.3 6.6-2.5 9.7 0.1 2.8 0.2 5.6 0.2 8.5q0.1 1.9 0.2 3.9c0.1 2.7 0.2 5.4 0.2 8.2v0.1l-0.3 0.1c-0.1 0-0.2-0.1-0.3-0.2-0.2-1.8-0.2-3.7-0.3-5.4l-0.1-1.5q-0.1-3.4-0.3-6.9c-0.3-7.2-0.4-15-0.5-23.8l-0.1-2.3c0-5.5-0.1-11.3 0-17q-1.4 0.2-3 0.2-1 0-2.1-0.1c-1.3-0.1-2.5-0.3-3.9-0.7 0.1 1.8 0 3.5 0 5.2q0 1.6 0 3.3-0.1 3.3-0.1 6.7 0 2.2-0.1 4.3-0.2 20-0.4 39.9 0 5.4-0.1 10.9c-0.1 8.8-0.1 18-0.4 27 0.5-1.2 1.1-2.4 1.6-3.5l0.2-0.3c1-2 2.1-3.7 3.1-5.1q1.7-2.3 3.6-3.9c1.3-1.1 2.7-2.1 4.2-2.6 0.3-2 1.3-4.3 2.8-6.9 1.6-2.7 3.2-4.6 4.9-5.9q0.1-0.1 0.2-0.1c0.2 0 0.4 0.1 0.4 0.2q0.1 0.2-0.1 0.4-0.4 0.5-0.8 1c-0.6 0.5-1.2 1.1-1.7 1.8q-1.2 1.4-2.2 3.1-0.9 1.6-1.7 3.3c-0.2 0.7-0.5 1.4-0.7 2.1q-0.2 0.7-0.5 1.4 0 0.1-0.1 0.2-0.6 0.4-1.2 0.7-0.6 0.3-1.1 0.6-1.1 0.7-2.1 1.7-1.9 1.6-3.4 3.7c-1 1.4-2 3-3 4.9q-0.4 1-0.8 1.9c-0.5 1-1 2.1-1.5 3 2.6 1.6 5.1 3.6 7.8 6.3 2.8 2.8 4.9 5.4 6.4 8q0.1 0.2 0 0.4c0 0.2-0.2 0.2-0.3 0.2q-0.2 0-0.3-0.1c-1.9-2.6-3.9-5.4-6.4-7.9-2.5-2.5-5.3-4.6-7.7-6.3-0.2 0-0.3-0.2-0.3-0.3 0-6.3 0-12.7 0.1-18.9v-3.6q0.1-10.9 0.2-21.7 0.1-9.1 0.2-18.2l0.1-2.5q0-8.7 0.1-17.4l0.1-2.4q0-3.7 0-7.5v-1.1c0-2 0-4.1 0.1-6.2-2.7-0.8-5.5-2-8.5-3.7 0.5 5 0.7 10.1 0.9 14.4 0.4 8.2 0.5 16.8 0.4 26.2-0.1 10.3-0.4 18.7-0.9 26.6 0 0.2-0.2 0.3-0.4 0.3h-0.1l-0.1-0.1q-0.1-0.1-0.1-0.2v-1.1c0.2-4.5 0.4-9.2 0.6-13.8 0.2-8.9 0.3-17.8 0.1-26.3-0.2-6.4-0.5-12.8-0.8-19.1q-0.2-3.7-0.3-7.3c-3.2-1.9-6.1-4.2-8.6-6.1q-0.9-0.7-1.9-1.4c0.8 4 1.4 8.3 2 13.9 0.6 5.8 0.9 10.3 0.9 14.4-0.1 0.2-0.2 0.3-0.3 0.3-0.2 0-0.3-0.1-0.3-0.3l-0.2-2.4c-0.2-3.8-0.5-7.8-0.9-11.6-0.5-4.5-1.2-9-1.9-13.3-0.9 1.3-1.9 2.7-3.1 4.2q-1.2 1.5-2.7 3.1c-0.1 1.3-0.3 2.6-0.5 3.8l-0.1 0.2q-0.5 3.2-1.5 6.5c-1.2 3.7-2.8 7.2-4.8 10.6-2.2 3.7-4.3 6.3-6.8 8.2-2.6 2-6 3.2-9.3 3.2q-0.5 0-1-0.1c-3.9-0.2-7.4-1.7-9.5-4.1q-0.2-0.2-0.1-0.3 0.1-0.2 0.3-0.2h0.1c1.5 1.1 3.2 2.2 5.2 2.9q2.4 0.8 4.9 0.8 0.4 0 0.9 0c3.5-0.2 6.9-1.7 9.6-4.3 2.6-2.6 4.5-5.8 6-8.6 1.7-3.3 3.1-6.7 4.1-10.3 0.6-2 0.9-3.7 1.2-5.3q0.1-0.9 0.2-1.9-1.3 1.4-2.6 2.5c-3.9 3.6-8.4 6.9-13.3 9.7-6.1 3.5-11.6 5.5-16.9 6.2q-2 0.3-4 0.3c-3.6 0-6.8-0.6-9.8-1.9 4.5 8.5 10.1 16.1 14.6 21.8l1.4 1.7c4.2 5.4 8.5 11 13.3 15.9q0.2 0 0.3 0.2 0.1 0.1 0.2 0.2l0.1 0.2 0.3 0.3q0.5 0.5 1 1c3.3 3.3 6.5 5.8 9.8 7.7 2.2 1.3 4 2.2 5.7 2.8q1.6 0.5 2.8 0.5 2 0 3.2-1.2c1.2-1.4 1.6-3.4 1.8-5 0.3-1.9 0.3-4 0.4-6v-0.9c0.2-4.7 0.2-9.7 0-15.2-0.1-4.6-0.3-9.6-0.7-15q-0.1-2.6-0.4-5.2c-0.2-3.3-0.5-6.7-0.6-10.1l0.1-0.2q0.1-0.1 0.2-0.1c0.2 0 0.3 0.2 0.4 0.3 0.1 1.4 0.3 2.6 0.4 3.9 0.8 10.1 1.5 20.9 1.6 31.6 0.1 6.1-0.1 11.1-0.4 15.7-0.3 5-1.9 7.7-4.8 8.2q-0.6 0.2-1.2 0.2c-1.8 0-3.5-0.7-4.9-1.4q-2.9-1.2-5.6-3.1c-2.4-1.5-4.7-3.3-7.1-5.5q0.1 0 0.1 0 1.2 1.9 2.5 3.6c1.8 2.2 3.7 4.4 5.8 6.3 2 1.7 4 3.3 6.1 4.7 1.4 1 3.4 2.1 5.3 2.1q1.2 0 2.3-0.6c2.3-1.4 3.1-4.1 3.6-6.8 0.6-2.9 0.9-5.9 1.2-9 0.4-5.5 0.4-11.3-0.1-17.9-0.2-3.2-0.5-6.4-0.8-9q-0.1-1.4-0.3-2.8c-0.2-2.1-0.4-4.2-0.5-6.2q0-0.2 0.1-0.3 0.1-0.1 0.2-0.1c0.2 0 0.3 0.1 0.4 0.3 0.5 3.1 0.8 6.4 1.1 9.5l0.1 1.1c0.4 4 0.7 7.6 0.8 10.8 0.4 7.1 0.2 13.4-0.5 19.2l-0.2 1.1c2.4 2.8 4 6.6 4.8 11.1 0.9 5 0.7 10.1 0.4 14.8l-0.1 0.6c-0.1 2.5-0.3 5-0.4 7.5 0 2.6 0.1 5.3 0.2 7.9v0.2c0.3 5.4 0.4 10.2-0.8 14.9-0.8 3.5-2.1 6.3-3.9 8.6 3.1 4.5 5.4 8.9 6.9 13.2 3.6 10.2 4.1 21 4.7 31.5 0.2 4.6 0.4 9.4 0.9 14q0 0.2-0.1 0.4 0 0.2-0.1 0.4-0.1 0.4-0.3 0.7-0.3 0.6-0.6 1.2-0.4 0.6-0.8 1.1c-0.3 0.3-0.6 0.7-0.9 0.9 0.2 1.2 0.4 2.5 0.7 3.9 1.3 6 3 11.3 5.3 16.1 2.5 5.6 5.5 10.6 8.1 14.8q0.1 0.1 0 0.3-0.1 0.2-0.3 0.2zm-14.5-40.3q0.2 1.4 0.4 2.8l0.2 1.1q0.2-0.2 0.4-0.5 0.4-0.4 0.7-1 0.3-0.5 0.6-1.1 0.1-0.1 0.3-0.6 0 0 0 0c-0.8-0.2-1.6-0.4-2.6-0.7zm-29.6-237.8q0.3 0.3 0.7 0.6 1 0.8 2.1 1.7 0.7 0.5 0.9 0.7-0.2-1.4-0.4-2.8-0.2-0.8-0.3-1.7 0-0.1 0-0.3c0-0.4 0-0.8-0.2-1-0.8 0-1.5 0.3-2.1 0.8q-0.4 0.4-0.6 0.9-0.2 0.2-0.2 0.5-0.1 0.2-0.1 0.3 0 0.1 0 0.2z"/>
			<path id="&lt;Path&gt;" class="s3" d="m518.5 169.2q-0.2 0-0.3-0.2l-0.1-0.1 0.1-0.2c1.7-2.5 2.9-4.6 3.6-6.8 0.9-2.3 1.5-4.8 1.8-7.4 0.3-2.6 0.4-5.3 0.3-8.5-0.1-1.6-0.2-3.2-0.3-4.4q0-0.7-0.1-1.5c-0.1-1-0.2-2-0.2-2.9 0-0.2 0.1-0.4 0.4-0.4 0.1 0 0.3 0.1 0.3 0.3 0.2 1.1 0.3 2.3 0.4 3.4q0 0.5 0 1.1c0.2 1.6 0.3 3.1 0.3 4.5 0.1 3.3 0 6.2-0.3 8.8-0.9 6.2-2.8 10.9-5.7 14.2h-0.1z"/>
			<path id="&lt;Path&gt;" class="s3" d="m611.6 285.9c-0.1 0-0.2-0.2-0.3-0.3-0.1-5.3-0.1-10.7-0.1-15.4q0.1-37.6 0.1-40.9v-6.9q0-0.8 0-1.6c0-1.8 0-3.6 0.2-5.3 0-0.2 0.1-0.3 0.3-0.3 0.2 0 0.3 0.1 0.3 0.3 0.2 1.9 0.2 3.9 0.1 5.8q0 1 0 2 0 3.8 0 7.6l-0.1 27.3q0 3 0 6c0 7 0 14.3-0.2 21.4 0 0.1-0.1 0.3-0.3 0.3z"/>
			<path id="&lt;Path&gt;" class="s3" d="m609 348.4c-0.1 0-0.2-0.1-0.3-0.2-1-4.1-1.1-8.5-1.1-11.8q0-3 0.3-6.1l0.1-0.9c0.2-1.6 0.3-3.3 0.9-4.9 0.1-0.2 0.2-0.3 0.4-0.3q0.2 0 0.3 0.2 0.1 0.1 0.1 0.3c0 0.7-0.1 1.4-0.2 2.1q-0.1 0.3-0.1 0.7-0.2 1.6-0.4 3.2c-0.2 1.8-0.3 3.7-0.3 5.7-0.1 1.9 0 3.8 0.1 5.9 0 1.1 0.2 2.2 0.3 3.3q0.1 1.2 0.2 2.5v0.1l-0.1 0.1q-0.1 0.1-0.2 0.1z"/>
			<path id="&lt;Path&gt;" class="s3" d="m550.5 200.4c-0.9-0.1-1.7-0.2-2.5-0.3q-0.3-0.1-0.7-0.2-1.2-0.1-2.3-0.3l-1-0.1c-2.2-0.3-4.5-0.6-6.8-0.9-0.2 0-0.3-0.2-0.3-0.4 0-0.2 0.1-0.3 0.3-0.3 2.4 0.2 4.6 0.4 6.8 0.7q1.6 0.2 3.2 0.5l0.6 0.1c0.9 0.1 1.9 0.2 2.8 0.5 0.1 0.1 0.2 0.2 0.2 0.4 0 0.1-0.2 0.3-0.3 0.3z"/>
			<path id="&lt;Compound Path&gt;" fill-rule="evenodd" class="s3" d="m529.4 208.5c-2.9-0.1-6.8-0.6-9.8-2.8l-0.1-0.1v-0.2c0.1-0.1 0.2-0.2 0.3-0.2h0.1c1.7 0.8 3.5 1.6 5.6 2q2.1 0.5 4.4 0.5 0.8 0 1.5-0.1 0.8 0 1.7-0.1-0.1-0.5-0.1-1c-0.6-0.6-1-1.4-1.1-2q-0.4-1.3-0.3-2.8 0.2-1.4 0.9-3.1 0.3-0.8 0.7-1.5l0.1-0.3q0.2-0.2 0.3-0.5c0.2-2.1 0.6-4.7 1.2-7.1q-1.5-1.6-2.8-3.6c-0.1 0.1-0.3 0.6-0.3 0.7q-0.3 0.8-0.5 1.6-0.5 1.6-0.8 3.2c-0.4 2.4-0.5 4.7-0.6 6.7 0 0.2-0.1 0.3-0.3 0.3-0.1 0-0.2-0.1-0.2-0.2-0.2-2.1-0.1-4.3 0.3-6.8q0.3-1.7 0.8-3.4 0.1-0.2 0.2-0.5c0.2-0.8 0.4-1.7 0.9-2.3-0.5-0.8-0.9-1.4-1.3-2.1q-0.6-1-1-1.9l-0.4 0.8c-0.5 1.3-1.1 2.8-1.6 4.2q-0.9 2.9-1.5 5.8c-0.8 3.9-1.1 8-0.9 12.1v0.1l-0.1 0.1q-0.1 0.1-0.2 0.1c-0.2 0-0.3-0.1-0.3-0.2-0.3-4.1-0.1-8.2 0.7-12.3 0.9-4.6 2.1-8.5 3.8-11.6-0.8-1.7-1.3-3.1-1.6-4.5v-0.1-0.1q0.1-0.2 0.3-0.2h0.1l0.1 0.2q0.4 0.9 0.8 1.8c0.7 1.8 1.5 3.6 2.5 5.2 1.2 2.2 2.7 4.3 4.6 6.5q0.1 0.1 0.1 0.3c2.6 0.5 5.4 0.8 8.5 1.1h0.5q-0.5-0.3-0.9-0.8l-0.4-0.2q-1-0.9-1.9-1.9-1.9-1.9-3.5-4.1c-2.2-3.1-3.9-6.3-5-9.7v-0.1l0.1-0.2q0.1-0.1 0.2-0.1h0.1l0.1 0.2c1.4 3.5 3.1 6.7 5.1 9.4q1.5 2.2 3.4 4.1 1 1 1.9 1.8 0.4 0.4 0.8 0.7c0.5 0.3 0.9 0.7 1.3 1.1 3 0.2 6.1 0.4 9.1 0.6q2.1 0.1 4.1 0.3 5.7 0.4 11.4 0.8l4 0.3q0.1 0 0.2 0.1l1.2-0.5 0.2-0.1c0.1 0 0.3 0.2 0.3 0.4 0.1 0.2 0 0.4-0.2 0.5q-4.8 1.8-9.6 3.7-7 2.8-8.8 3.5-3.2 1.3-6.4 2.6l-2.1 0.8c-2.9 1.1-5.9 2.4-9 3.3-3.8 1.2-7.2 1.8-10.3 1.8q-0.3 0-0.6 0zm4.5-3.6q-0.1 1.3-0.2 2.5c2.2-0.3 4.5-0.9 7.1-1.7h-0.2q-1.2-0.1-2.4-0.2l-0.8-0.1c-1.2-0.1-2.4-0.2-3.5-0.5zm-0.6-6.3q-0.6 1.5-0.8 2.8c-0.2 0.9-0.2 1.8 0 2.6q0.2 0.7 0.5 1.2c-0.1-2.2 0.1-4.4 0.3-6.6zm0.6 5.7q0.8 0 1.5 0.1l0.6 0.1q1.2 0.1 2.4 0.2 1.2 0.1 2.4 0.2 0.4 0 0.7 0.1 0.6 0 1.2 0c1.8-0.6 3.7-1.4 5.2-2q-3.2-0.2-6.5-0.5l-1.1-0.1c-2-0.2-4.2-0.4-6.3-0.7q-0.1 1.3-0.1 2.6zm0.1-3.2c2.2 0 4.3 0.2 6.4 0.4l1.2 0.1q4 0.4 8 0.8l0.7-0.3q1.5-0.6 3-1.2 4.2-1.7 8.4-3.3l1-0.4q-3.2-0.4-6.5-0.7-3.6-0.4-7.2-0.8-3.7-0.4-7.5-0.9c-1-0.1-2.2-0.2-3.4-0.4l-0.2-0.1c-1.1-0.1-2.1-0.3-3.1-0.6v0.2q-0.2 1-0.3 2h0.1l-0.1 0.1q0 0.1 0 0.2-0.2 1.2-0.3 2.4c-0.1 0.9-0.1 1.8-0.2 2.5zm0.9-8.1q0.9 0.1 1.7 0.3 0.7 0.1 1.4 0.2c1.3 0.3 2.7 0.4 3.9 0.5q2.2 0.3 4.3 0.5l3 0.4q3.6 0.3 7.1 0.8 4 0.4 8 0.9 4.4-1.8 8.9-3.5l-0.1-0.1q-3.7-0.2-7.4-0.4-5.7-0.4-11.3-0.8l-4.4-0.3c-4.8-0.3-9.7-0.7-14.5-1.7q-0.2 1-0.4 2-0.1 0.6-0.2 1.2z"/>
			<path id="&lt;Path&gt;" class="s3" d="m526 167.1l-0.1-0.1-0.1-0.1v-0.1c0.4-1.6 1.3-3.1 2-4.6l0.2-0.3c0.5-0.9 1-1.8 1.7-2.8v-0.1c-0.9-3.7-1.3-7.6-1.7-11-0.1-1.5-0.3-3.6-0.4-5.6 0-1.3 0.1-2.7 0.9-3.8l0.1-0.1h0.1q0.2 0 0.3 0.1l0.1 0.1-0.1 0.2c-0.7 1.4-0.6 3-0.5 4.5q0.1 2.6 0.4 5c0.3 2.9 0.7 5.7 1.2 8.5l0.2 1.2q0.3-0.4 0.6-0.8c2.2-3.2 4.6-5.9 7.1-8.1q0.1 0 0.2 0c0.1 0 0.3 0.1 0.3 0.2q0.1 0.2 0 0.4c-3 2.8-5.3 5.4-7.1 8q-1.4 2.1-2.7 4.5c-0.4 0.7-0.8 1.4-1.1 2.1-0.4 0.9-0.8 1.8-1.3 2.6v0.1h-0.2z"/>
			<path id="&lt;Path&gt;" class="s3" d="m534.3 151q0.1-0.2 0.1-0.3c-1.4-3.6-1.8-6.5-1.6-9.5 0.3-3.4 1.7-6.4 3.1-8.8q0.1-0.2 0-0.3-0.1-0.2-0.3-0.2l-0.2 0.1c-3.9 4.9-4.7 13.2-1.7 19q0.1 0.1 0.3 0.1 0.2 0 0.3-0.1z"/>
			<path id="&lt;Path&gt;" class="s3" d="m579.2 437.6c-0.1 0-0.3-0.1-0.3-0.2-0.7-2.9-1.4-6.1-2-10.2-1.9-11.9-2.6-24.1-2.2-36.2 0-0.3 0.3-0.5 0.6-0.5q0.2 0 0.3 0.1 0.2 0.2 0.2 0.4c-0.2 3.6-0.2 6.9-0.1 10.2 0.1 5.7 0.4 11.5 1.1 18 0.5 4.7 1.3 9.4 2.1 14q0.3 2 0.6 4 0.1 0.2 0 0.3-0.1 0.1-0.3 0.1z"/>
			<path id="&lt;Path&gt;" class="s3" d="m586.6 292.9c-1.8 0-3.7-0.3-5.5-1-2.6-1.1-5-2.7-7.1-4.1l-0.5-0.3q-3.5-2.4-7-4.8c-0.1 0-0.2-0.2-0.1-0.3 0-0.1 0.1-0.2 0.3-0.2h0.1q3.4 2.2 6.8 4.4l1.5 0.9c1.7 1.1 3.4 2.2 5.3 3.1 2.1 1 4.1 1.5 6 1.5q0.4 0 0.7 0c2.3-0.2 4.2-1 5.8-2.7q0.1-0.1 0.3-0.1c0.2 0 0.3 0.1 0.4 0.3q0.1 0.2 0 0.4c-1.9 2.4-4.9 2.9-7 2.9q0 0 0 0z"/>
			<path id="&lt;Path&gt;" class="s3" d="m555.8 191.4l-0.1-0.1c-5.9-4.5-10.7-10.3-13.5-16.3l-0.1-0.1 0.1-0.2q0.1-0.1 0.2-0.1h0.2l0.1 0.1c1.6 2.7 3.5 5.8 6 8.7 2.1 2.5 4.5 4.9 7.5 7.3q0.2 0.1 0.1 0.4c-0.1 0.1-0.2 0.3-0.4 0.3z"/>
			<path id="&lt;Path&gt;" class="s3" d="m552.6 444.4q-0.1-0.1-0.3-0.2-0.8-0.7-1.8-1.4c-4.4-3.6-10-8.2-15.6-8.2q-2 0-3.8 0.8c-2.1 0.9-4 1.3-5.9 1.3q-1.5 0-3.1-0.4c-4.4-1.1-6.5-2.8-6.1-5 0.1-1 0.7-1.8 1.5-2.3 0.2-0.2 0.4-0.3 0.7-0.3q0.1 0 0.3 0.1 0.1 0.1 0.2 0.2c0.1 0.2 0.1 0.5 0 0.8q-0.2 0.2-0.3 0.4l-0.1 0.1q-0.9 1-0.6 2c0.3 1.2 2 2.3 3.4 2.7q2 0.6 4 0.6 2 0 4-0.6c0.8-0.2 1.6-0.6 2.3-0.9 1.3-0.5 2.6-1.1 4.1-1.1q0.5 0 0.9 0.1c4.9 0.7 10 5 14.1 8.5q1.3 1.1 2.4 2c0.2 0.1 0.2 0.3 0.2 0.4-0.1 0.2-0.3 0.4-0.5 0.4z"/>
		</g>
		<g id="&lt;Clip Group&gt;">
			<g id="&lt;Group&gt;">
				<path id="&lt;Path&gt;" class="s1" d="m479.6 524.3c3.4-10.6 15.6-15.3 25.1-12.2-6.4-16.4 0.4-38 15.1-46.2 15.5-8.6 36.7-1 44.4 15.9-3.7-27.3 21-54.7 46.1-51.1 1.3-11.6 9.6-22 20.1-24.8 10.4-2.8 22.2 2.1 28.2 11.7 3.4-23 21.6-41.3 42-46.5 19.3-4.9 42.1 7.1 52.3 25.7 4.4 8.2 6.5 17.8 6 27.2q0.2-0.2 0.3-0.3c2.7-3 6.4-4.6 10-5.8 13.3-4.6 28.3-5.9 40.7 0.7 9.6 5.1 17.2 15.9 17.9 27.6 0.6 9.8-1.9 24.8-11.4 29.4 16.6-8.1 37.7 11.9 32.7 30.9 4.7-14.1 39-6.4 44 7.6 5 13.9-3.8 30.1-15.9 37.2-12.1 7.1-26.4 7.5-40.1 7.7q-153 2.1-305.9 4.3c-12.4 0.1-25.4 0.2-36.4-5.9-11.1-6.1-19.3-20.4-15.2-33.1z"/>
				<g id="&lt;Group&gt;">
					<path id="&lt;Path&gt;" class="s2" d="m526.2 480c-4.4 4.2-6.3 9.3-7.6 15-0.1 0.5-0.7 0.3-0.7-0.1-0.4-6.1 2.7-12.1 6.9-16.3 3.6-3.6 10-7.8 15.3-6.6 0.5 0 0.6 0.7 0.2 0.9-2 0.9-4.1 1.1-6.1 1.9-3 1.1-5.8 2.9-8 5.2z"/>
					<path id="&lt;Path&gt;" class="s2" d="m541.5 486.3c-6.2 0.4-11.8 2.5-15.4 7.9-0.3 0.4-0.9 0-0.6-0.4 3.3-5.5 9.6-9.5 16.2-8.5 0.6 0.1 0.4 1-0.2 1z"/>
					<path id="&lt;Path&gt;" class="s2" d="m610.1 440.1c-5.2 1.9-10.4 2.3-15.4 4.9-4.4 2.3-8.3 5.2-11.7 8.8-7.8 8.5-11.5 19.7-11.5 31.1 0 0.3-0.4 0.2-0.4 0-1.2-11.5 2.4-23.1 10.1-31.8 6.4-7.3 18.5-15.5 28.7-14.2 0.7 0.1 0.9 1 0.2 1.2z"/>
					<path id="&lt;Path&gt;" class="s2" d="m644.9 414.7c-11.9-2.3-23.6 8.1-27.2 18.7-0.1 0.4 0.5 0.5 0.6 0.2 2.3-5.8 6.3-10.6 11.7-13.7 4.8-2.8 9.6-3.3 14.9-4.1 0.6-0.1 0.6-1 0-1.1z"/>
					<path id="&lt;Path&gt;" class="s2" d="m728.8 407c0.5 0.5 0 1.4-0.7 1.2-2.9-0.8-5.5-2.4-8.4-3.4-3.3-1.1-6.8-1.7-10.3-2-5.8-0.5-11.9 0.3-17.5 2.3-10.9 4-19.7 12.4-24.6 22.9-0.1 0.2-0.5 0-0.4-0.2 4.5-10.9 12.9-19.6 23.9-24.1 6.4-2.6 13.4-3.5 20.3-2.8 5.8 0.5 13.4 2 17.7 6.1z"/>
					<path id="&lt;Path&gt;" class="s2" d="m728.9 394.5c0.5 0.8-0.5 1.5-1.2 1.2-3.4-1.6-6.3-4.2-9.9-5.7q-5.2-2.2-10.9-3c-8.1-1-16.2 0.5-23.4 4.4-0.3 0.2-0.6-0.3-0.3-0.5 7.4-4.3 16-6.3 24.6-5.5 6.9 0.7 16.8 3.2 21.1 9.1z"/>
					<path id="&lt;Path&gt;" class="s2" d="m816.7 440.3c-4.7-4-8.3-8.5-14-11.4-5.7-3-12.2-4.8-18.6-4.9-12.9-0.1-25 6-33 15.8-0.2 0.2-0.5 0-0.4-0.2 8-10.4 20.2-16.9 33.4-17.1 11.7-0.2 28.1 5.8 33.7 16.9 0.4 0.7-0.5 1.4-1.1 0.9z"/>
					<path id="&lt;Path&gt;" class="s2" d="m790.8 441.8c-11.3-3.7-25.9 2.8-34.4 10.1-0.2 0.2 0.1 0.5 0.3 0.3 5-3.9 10.6-6.8 16.8-8.3 5.9-1.4 11.3-0.6 17.2-0.9 0.7 0 0.8-1 0.1-1.2z"/>
					<path id="&lt;Path&gt;" class="s2" d="m837.8 502.2c-2.1-12.9-14.3-20.4-26.8-15.3-0.4 0.2-0.7-0.5-0.3-0.7 12.5-6 27.7 1.2 29.6 15.4 0.2 1.5-2.2 2.3-2.5 0.6z"/>
					<path id="&lt;Path&gt;" class="s2" d="m829.9 507.6c-0.1 0.5-0.9 0.3-0.9-0.2-0.3-4.3-2.2-8.2-6.6-9.5-0.4-0.1-0.2-0.6 0.1-0.6 4.4 1.1 8.4 5.5 7.4 10.3z"/>
					<path id="&lt;Path&gt;" class="s2" d="m500.4 517.5c-9.4 0.3-19 11.5-12.5 20.6 0.3 0.5 1.1 0.2 1-0.4-1-4.5-1.8-8.6 0.6-12.9 2.3-4 6.4-6.3 10.9-6.8 0.3 0 0.4-0.5 0-0.5z"/>
				</g>
			</g>
			<g id="&lt;Group&gt;">
				<path id="&lt;Path&gt;" class="s1" d="m-38.6 573.3c3.1-9.4 13.9-13.6 22.3-10.8-5.7-14.6 0.4-33.7 13.4-41 13.7-7.6 32.5-0.9 39.3 14.1-3.3-24.2 18.6-48.4 40.9-45.2 1.1-10.3 8.5-19.5 17.7-22 9.3-2.6 19.7 1.8 25.1 10.4 2.9-20.4 19.1-36.7 37.1-41.3 17.2-4.3 37.4 6.4 46.4 22.8 3.9 7.2 5.8 15.7 5.3 24.1q0.2-0.1 0.3-0.3c2.3-2.7 5.6-4 8.9-5.1 11.8-4 25-5.2 36 0.6 8.5 4.5 15.3 14.1 15.9 24.5 0.5 8.7-1.7 22-10.1 26 14.6-7.1 33.4 10.6 29 27.4 4.1-12.5 34.5-5.6 38.9 6.7 4.5 12.3-3.3 26.7-14 33-10.8 6.3-23.5 6.6-35.6 6.8q-135.5 1.9-271 3.8c-11 0.2-22.5 0.2-32.3-5.2-9.8-5.4-17.1-18.1-13.5-29.3z"/>
				<g id="&lt;Group&gt;">
					<path id="&lt;Path&gt;" class="s2" d="m2.7 534c-3.8 3.7-5.6 8.2-6.7 13.3-0.1 0.4-0.6 0.3-0.7-0.1-0.3-5.4 2.5-10.7 6.2-14.4 3.2-3.2 8.9-7 13.6-5.9 0.4 0.1 0.5 0.7 0.1 0.8-1.7 0.8-3.6 1-5.4 1.7-2.7 1-5.1 2.6-7.1 4.6z"/>
					<path id="&lt;Path&gt;" class="s2" d="m16.3 539.6c-5.5 0.3-10.5 2.2-13.7 7-0.2 0.3-0.7 0-0.5-0.3 2.9-4.9 8.5-8.4 14.3-7.6 0.6 0.1 0.4 0.9-0.1 0.9z"/>
					<path id="&lt;Path&gt;" class="s2" d="m77 498.7c-4.5 1.6-9.1 2-13.6 4.3-3.8 2-7.4 4.6-10.3 7.8-7 7.5-10.3 17.4-10.3 27.6 0 0.2-0.3 0.2-0.3 0-1-10.2 2.2-20.5 9-28.2 5.6-6.5 16.4-13.7 25.4-12.6 0.6 0.1 0.8 0.9 0.1 1.1z"/>
					<path id="&lt;Path&gt;" class="s2" d="m107.9 476.2c-10.5-2.1-20.9 7.2-24.1 16.6-0.1 0.3 0.4 0.4 0.5 0.1 2-5.2 5.6-9.4 10.4-12.2 4.2-2.4 8.5-2.9 13.2-3.6 0.5 0 0.5-0.9 0-0.9z"/>
					<path id="&lt;Path&gt;" class="s2" d="m188.7 475c0.3 0.5-0.4 1.1-1 0.8-2.2-1.5-3.9-3.7-6-5.3-2.5-1.9-5.2-3.5-8-4.7-4.8-2.1-10.1-3.2-15.4-3.1-10.3 0.1-20.1 4.6-27.2 12-0.2 0.1-0.5-0.1-0.3-0.3 6.9-7.8 16.5-12.7 27-13.2 6.1-0.4 12.2 0.9 17.8 3.5 4.7 2.1 10.6 5.5 13.1 10.3z"/>
					<path id="&lt;Path&gt;" class="s2" d="m190.8 464c0.4 0.8-0.6 1.2-1.1 0.8-2.8-1.9-4.8-4.7-7.6-6.7q-4.2-2.8-9-4.5c-6.9-2.3-14.1-2.5-21.1-0.4-0.3 0.1-0.4-0.3-0.1-0.4 7.2-2.5 14.9-2.6 22.3-0.4 5.8 1.8 14 5.7 16.6 11.6z"/>
					<path id="&lt;Path&gt;" class="s2" d="m260.1 498.8c-4.1-3.5-7.4-7.5-12.3-10.1-5.1-2.6-10.9-4.2-16.6-4.3-11.4-0.1-22.1 5.3-29.2 14-0.2 0.2-0.4 0-0.3-0.2 7-9.1 17.9-15 29.5-15.1 10.4-0.2 24.9 5.1 29.9 14.9 0.3 0.7-0.4 1.3-1 0.8z"/>
					<path id="&lt;Path&gt;" class="s2" d="m237.2 500.2c-10.1-3.3-23 2.5-30.5 8.9-0.2 0.2 0.1 0.5 0.3 0.3 4.4-3.5 9.4-6 14.9-7.3 5.1-1.3 10-0.6 15.2-0.8 0.6-0.1 0.7-0.9 0.1-1.1z"/>
					<path id="&lt;Path&gt;" class="s2" d="m278.9 553.7c-2-11.4-12.8-18.1-23.8-13.6-0.4 0.2-0.6-0.5-0.3-0.6 11.1-5.3 24.5 1.1 26.2 13.6 0.2 1.4-1.9 2.1-2.1 0.6z"/>
					<path id="&lt;Path&gt;" class="s2" d="m271.8 558.4c0 0.5-0.7 0.4-0.8-0.1-0.2-3.8-2-7.2-5.8-8.4-0.3-0.1-0.2-0.6 0.1-0.5 3.9 0.9 7.4 4.9 6.5 9z"/>
					<path id="&lt;Path&gt;" class="s2" d="m-20.1 567.3c-8.4 0.3-16.8 10.1-11.1 18.2 0.3 0.5 1 0.2 0.9-0.4-0.9-3.9-1.6-7.5 0.5-11.3 2-3.6 5.7-5.7 9.7-6.1 0.3 0 0.3-0.5 0-0.4z"/>
				</g>
			</g>
		</g>
	</g>
</svg>